URWGroteskGPL-Medium.ufo
<glyph name="exclam" format="2">
  <advance width="286"/>
  <unicode hex="0021"/>
  <outline>
    <contour>
      <point x="60.0489" y="63.3523" type="curve" smooth="yes"/>
      <point x="60.0489" y="26.0326"/>
      <point x="90.5817" y="-12.6749"/>
      <point x="142.15" y="-12.6749" type="curve" smooth="yes" name="hr01"/>
      <point x="192.832" y="-12.6749"/>
      <point x="224.251" y="25.1047"/>
      <point x="224.251" y="62.3773" type="curve" smooth="yes"/>
      <point x="224.251" y="99.65"/>
      <point x="192.832" y="137.43"/>
      <point x="142.15" y="137.43" type="curve" smooth="yes"/>
      <point x="92.3771" y="137.43" name="hr02"/>
      <point x="60.0489" y="100.549"/>
    </contour>
    <contour>
      <point x="93.2625" y="202.798" type="line"/>
      <point x="192.024" y="202.798" type="line"/>
      <point x="205.784" y="392.99" type="line" smooth="yes"/>
      <point x="206.689" y="405.501"/>
      <point x="207.757" y="416.093"/>
      <point x="208.781" y="426.113" type="curve" smooth="yes"/>
      <point x="210.692" y="444.827"/>
      <point x="212.401" y="461.562"/>
      <point x="212.401" y="484.549" type="curve" smooth="yes"/>
      <point x="212.401" y="667.825" type="line"/>
      <point x="72.8864" y="667.825" type="line"/>
      <point x="72.8864" y="484.549" type="line" smooth="yes"/>
      <point x="72.8864" y="461.562"/>
      <point x="74.5953" y="444.827"/>
      <point x="76.5062" y="426.113" type="curve" smooth="yes"/>
      <point x="77.5295" y="416.093"/>
      <point x="78.598" y="405.501"/>
      <point x="79.5032" y="392.99" type="curve" smooth="yes"/>
    </contour>
  </outline>
</glyph>
<glyph name="quotedbl" format="2">
  <advance width="375"/>
  <unicode hex="0022"/>
  <outline>
    <contour>
      <point x="215.39" y="389.022" type="line"/>
      <point x="312.413" y="389.022" type="line"/>
      <point x="329.272" y="667.825" type="line"/>
      <point x="199.585" y="667.825" type="line"/>
    </contour>
    <contour>
      <point x="61.3732" y="389.022" type="line"/>
      <point x="158.364" y="389.022" type="line"/>
      <point x="175.222" y="667.825" type="line"/>
      <point x="44.5148" y="667.825" type="line"/>
    </contour>
  </outline>
</glyph>
<glyph name="numbersign" format="2">
  <advance width="475"/>
  <unicode hex="0023"/>
  <outline>
    <contour>
      <point x="32" y="214" type="line"/>
      <point x="15" y="122" type="line"/>
      <point x="101" y="122" type="line"/>
      <point x="78" y="0" type="line" name="hr01"/>
      <point x="128" y="0" type="line"/>
      <point x="150" y="122" type="line" name="hr02"/>
      <point x="253" y="122" type="line"/>
      <point x="231" y="0" type="line" name="hr03"/>
      <point x="280" y="0" type="line"/>
      <point x="302" y="122" type="line" name="hr04"/>
      <point x="387" y="122" type="line"/>
      <point x="403" y="214" type="line"/>
      <point x="318" y="214" type="line"/>
      <point x="362" y="463" type="line"/>
      <point x="445" y="463" type="line"/>
      <point x="461" y="555" type="line"/>
      <point x="377" y="555" type="line"/>
      <point x="398" y="667" type="line" name="hr05"/>
      <point x="349" y="667" type="line"/>
      <point x="328" y="555" type="line" name="hr06"/>
      <point x="225" y="555" type="line"/>
      <point x="246" y="667" type="line" name="hr07"/>
      <point x="199" y="667" type="line"/>
      <point x="178" y="555" type="line" name="hr08"/>
      <point x="91" y="555" type="line"/>
      <point x="75" y="463" type="line"/>
      <point x="162" y="463" type="line"/>
      <point x="117" y="214" type="line"/>
    </contour>
    <contour>
      <point x="166" y="214" type="line"/>
      <point x="210" y="463" type="line"/>
      <point x="313" y="463" type="line"/>
      <point x="269" y="214" type="line"/>
    </contour>
  </outline>
</glyph>
<glyph name="dollar" format="2">
  <advance width="600"/>
  <unicode hex="0024"/>
  <outline>
    <contour>
      <point x="247.348" y="-111.149" type="line"/>
      <point x="329.587" y="-111.149" type="line"/>
      <point x="329.587" y="-5.82497" type="line"/>
      <point x="325.087" y="-5.82497" type="line"/>
      <point x="368.471" y="-0.876412"/>
      <point x="406.65" y="7.52869"/>
      <point x="442.721" y="30.9406" type="curve" smooth="yes"/>
      <point x="500.166" y="68.2251"/>
      <point x="534.987" y="129.813"/>
      <point x="534.987" y="190.101" type="curve" smooth="yes"/>
      <point x="534.987" y="301.087"/>
      <point x="429.187" y="360.206"/>
      <point x="326.099" y="394.143" type="curve"/>
      <point x="329.587" y="394.143" type="line"/>
      <point x="329.587" y="566.47" type="line"/>
      <point x="358.774" y="558.456"/>
      <point x="371.751" y="535.778"/>
      <point x="381.104" y="501.042" type="curve" smooth="yes"/>
      <point x="384.039" y="490.143" type="line"/>
      <point x="391.062" y="490.143" type="line"/>
      <point x="511.295" y="545.464" type="line"/>
      <point x="513.971" y="545.464" type="line"/>
      <point x="511.564" y="552.435" type="line" smooth="yes"/>
      <point x="484.819" y="629.873"/>
      <point x="415.222" y="670.669"/>
      <point x="324.671" y="673.525" type="curve"/>
      <point x="329.587" y="673.525" type="line"/>
      <point x="329.587" y="744.85" type="line"/>
      <point x="247.348" y="744.85" type="line"/>
      <point x="247.348" y="671.737" type="line"/>
      <point x="251.824" y="671.737" type="line"/>
      <point x="137.671" y="658.14"/>
      <point x="63.6738" y="582.686"/>
      <point x="63.6738" y="482.599" type="curve" smooth="yes"/>
      <point x="63.6738" y="371.686"/>
      <point x="144.328" y="319.71"/>
      <point x="250.79" y="283.504" type="curve"/>
      <point x="247.348" y="283.504" type="line"/>
      <point x="247.348" y="99.531" type="line"/>
      <point x="205.601" y="109.652"/>
      <point x="182.025" y="140.015"/>
      <point x="171.201" y="183.224" type="curve" smooth="yes"/>
      <point x="168.295" y="194.827" type="line"/>
      <point x="161.074" y="194.827" type="line"/>
      <point x="34.2623" y="130.501" type="line"/>
      <point x="31.9572" y="130.501" type="line"/>
      <point x="35.271" y="123.387" type="line" smooth="yes"/>
      <point x="76.9935" y="33.8168"/>
      <point x="142.601" y="-5.50301"/>
      <point x="252.322" y="-7.70769" type="curve"/>
      <point x="247.348" y="-7.70769" type="line"/>
    </contour>
    <contour>
      <point x="247.348" y="425.131" type="line"/>
      <point x="221.228" y="440.073"/>
      <point x="205.163" y="463.316"/>
      <point x="205.163" y="495.274" type="curve" smooth="yes"/>
      <point x="205.163" y="526.184"/>
      <point x="220.219" y="554.771"/>
      <point x="247.348" y="564.609" type="curve"/>
    </contour>
    <contour>
      <point x="329.587" y="255.446" type="line"/>
      <point x="361.638" y="239.749"/>
      <point x="384.61" y="213.377"/>
      <point x="384.61" y="178.401" type="curve" smooth="yes"/>
      <point x="384.61" y="143.05"/>
      <point x="366.157" y="106.824"/>
      <point x="329.587" y="98.9194" type="curve"/>
    </contour>
  </outline>
</glyph>
<glyph name="percent" format="2">
  <advance width="752"/>
  <unicode hex="0025"/>
  <outline>
    <contour>
      <point x="206" y="669" type="curve" smooth="yes"/>
      <point x="158" y="669"/>
      <point x="121" y="655"/>
      <point x="97" y="629" type="curve" smooth="yes"/>
      <point x="72" y="601"/>
      <point x="57" y="555"/>
      <point x="57" y="507" type="curve" smooth="yes"/>
      <point x="57" y="404"/>
      <point x="109" y="348"/>
      <point x="205" y="348" type="curve" smooth="yes"/>
      <point x="302" y="348"/>
      <point x="355" y="403"/>
      <point x="355" y="505" type="curve" smooth="yes"/>
      <point x="355" y="610"/>
      <point x="302" y="669"/>
    </contour>
    <contour>
      <point x="206" y="607" type="curve" smooth="yes"/>
      <point x="246" y="607"/>
      <point x="268" y="572"/>
      <point x="268" y="509" type="curve" smooth="yes"/>
      <point x="268" y="446"/>
      <point x="246" y="411"/>
      <point x="206" y="411" type="curve" smooth="yes"/>
      <point x="166" y="411"/>
      <point x="144" y="446"/>
      <point x="144" y="510" type="curve" smooth="yes"/>
      <point x="144" y="572"/>
      <point x="166" y="607"/>
    </contour>
    <contour>
      <point x="649" y="699" type="line"/>
      <point x="592" y="710" type="line"/>
      <point x="65" y="-96" type="line"/>
      <point x="125" y="-106" type="line"/>
    </contour>
    <contour>
      <point x="546" y="320" type="curve" smooth="yes"/>
      <point x="498" y="320"/>
      <point x="461" y="306"/>
      <point x="437" y="280" type="curve" smooth="yes"/>
      <point x="412" y="252"/>
      <point x="397" y="206"/>
      <point x="397" y="158" type="curve" smooth="yes"/>
      <point x="397" y="55"/>
      <point x="449" y="-1"/>
      <point x="545" y="-1" type="curve" smooth="yes"/>
      <point x="642" y="-1"/>
      <point x="695" y="54"/>
      <point x="695" y="156" type="curve" smooth="yes"/>
      <point x="695" y="261"/>
      <point x="642" y="320"/>
    </contour>
    <contour>
      <point x="546" y="258" type="curve" smooth="yes"/>
      <point x="586" y="258"/>
      <point x="608" y="223"/>
      <point x="608" y="160" type="curve" smooth="yes"/>
      <point x="608" y="98"/>
      <point x="586" y="63"/>
      <point x="546" y="63" type="curve" smooth="yes"/>
      <point x="506" y="63"/>
      <point x="484" y="98"/>
      <point x="484" y="162" type="curve" smooth="yes"/>
      <point x="484" y="223"/>
      <point x="506" y="258"/>
    </contour>
  </outline>
</glyph>
<glyph name="ampersand" format="2">
  <advance width="706"/>
  <unicode hex="0026"/>
  <outline>
    <contour>
      <point x="614.828" y="-6.25169" type="line"/>
      <point x="620.85" y="-6.25169" type="line"/>
      <point x="702.271" y="109.238" type="line"/>
      <point x="699.494" y="109.238" type="line"/>
      <point x="687.35" y="112.646" type="line" smooth="yes"/>
      <point x="640.016" y="125.933"/>
      <point x="612.753" y="134.69"/>
      <point x="572.48" y="159.386" type="curve"/>
      <point x="574.029" y="159.386" type="line"/>
      <point x="619.155" y="225.981"/>
      <point x="639.696" y="279.942"/>
      <point x="644.598" y="357.309" type="curve" smooth="yes"/>
      <point x="645.184" y="366.553" type="line"/>
      <point x="501.16" y="366.553" type="line"/>
      <point x="501.16" y="357.8" type="line" smooth="yes"/>
      <point x="501.16" y="304.853"/>
      <point x="493.958" y="270.419"/>
      <point x="470.017" y="227.95" type="curve"/>
      <point x="429.213" y="262.266"/>
      <point x="392.746" y="301.385"/>
      <point x="358.664" y="344.996" type="curve"/>
      <point x="356.904" y="344.996" type="line"/>
      <point x="441.791" y="386.733"/>
      <point x="503.412" y="438.117"/>
      <point x="503.412" y="532.324" type="curve" smooth="yes"/>
      <point x="503.412" y="623.457"/>
      <point x="432.911" y="680.5"/>
      <point x="328.486" y="680.5" type="curve" smooth="yes"/>
      <point x="208.049" y="680.5"/>
      <point x="127.886" y="608.001"/>
      <point x="127.886" y="505.024" type="curve" smooth="yes"/>
      <point x="127.886" y="455.642"/>
      <point x="145.518" y="415.992"/>
      <point x="171.928" y="373.7" type="curve"/>
      <point x="174.367" y="373.7" type="line"/>
      <point x="86.2207" y="338.842"/>
      <point x="36.0489" y="284.734"/>
      <point x="36.0489" y="196.926" type="curve" smooth="yes"/>
      <point x="36.0489" y="76.5803"/>
      <point x="133.84" y="-12.6749"/>
      <point x="274.174" y="-12.6749" type="curve" smooth="yes"/>
      <point x="360.688" y="-12.6749"/>
      <point x="420.185" y="16.1895"/>
      <point x="479.342" y="62.3586" type="curve"/>
      <point x="517.95" y="36.2675"/>
      <point x="559.794" y="15.5902"/>
      <point x="606.977" y="-3.13572" type="curve" smooth="yes"/>
    </contour>
    <contour>
      <point x="288.945" y="425.19" type="line"/>
      <point x="270.187" y="451.976"/>
      <point x="257.525" y="478.266"/>
      <point x="257.525" y="511.849" type="curve" smooth="yes"/>
      <point x="257.525" y="554.59"/>
      <point x="279.875" y="590.845"/>
      <point x="324.536" y="590.845" type="curve" smooth="yes"/>
      <point x="359.511" y="590.845"/>
      <point x="378.71" y="564.975"/>
      <point x="378.71" y="530.374" type="curve" smooth="yes"/>
      <point x="378.71" y="473.933"/>
      <point x="336.096" y="447.721"/>
      <point x="284.23" y="422.936" type="curve"/>
    </contour>
    <contour>
      <point x="236.29" y="287.894" type="line"/>
      <point x="276.803" y="233.947"/>
      <point x="327.708" y="181.172"/>
      <point x="384.814" y="136.039" type="curve"/>
      <point x="355.008" y="110.276"/>
      <point x="326.659" y="95.5049"/>
      <point x="287.012" y="95.5049" type="curve" smooth="yes" name="hr01"/>
      <point x="227.641" y="95.5049"/>
      <point x="180.501" y="141.95"/>
      <point x="180.501" y="196.926" type="curve" smooth="yes"/>
      <point x="180.501" y="240.898"/>
      <point x="202.318" y="269.266"/>
      <point x="240.91" y="290.427" type="curve"/>
    </contour>
  </outline>
</glyph>
<glyph name="quotesingle" format="2">
  <advance width="211"/>
  <unicode hex="0027"/>
  <outline>
    <contour>
      <point x="146" y="399" type="line"/>
      <point x="166" y="667" type="line"/>
      <point x="45" y="667" type="line"/>
      <point x="65" y="399" type="line"/>
    </contour>
  </outline>
</glyph>
<glyph name="parenleft" format="2">
  <advance width="316"/>
  <unicode hex="0028"/>
  <outline>
    <contour>
      <point x="184" y="700" type="line"/>
      <point x="138" y="641"/>
      <point x="117" y="607"/>
      <point x="95" y="554" type="curve" smooth="yes"/>
      <point x="58" y="467"/>
      <point x="39" y="361"/>
      <point x="39" y="248" type="curve" smooth="yes"/>
      <point x="39" y="140"/>
      <point x="56" y="39"/>
      <point x="89" y="-52" type="curve" smooth="yes"/>
      <point x="113" y="-118"/>
      <point x="136" y="-156"/>
      <point x="187" y="-216" type="curve"/>
      <point x="284" y="-207" type="line"/>
      <point x="244" y="-145"/>
      <point x="228" y="-110"/>
      <point x="210" y="-40" type="curve" smooth="yes"/>
      <point x="185" y="55"/>
      <point x="173" y="155"/>
      <point x="173" y="267" type="curve" smooth="yes"/>
      <point x="173" y="449"/>
      <point x="205" y="573"/>
      <point x="281" y="693" type="curve"/>
    </contour>
  </outline>
</glyph>
<glyph name="parenright" format="2">
  <advance width="316"/>
  <unicode hex="0029"/>
  <outline>
    <contour>
      <point x="131" y="-216" type="line"/>
      <point x="177" y="-156"/>
      <point x="198" y="-123"/>
      <point x="221" y="-69" type="curve" smooth="yes"/>
      <point x="257" y="17"/>
      <point x="276" y="123"/>
      <point x="276" y="237" type="curve" smooth="yes"/>
      <point x="276" y="346"/>
      <point x="259" y="446"/>
      <point x="226" y="536" type="curve" smooth="yes"/>
      <point x="202" y="602"/>
      <point x="179" y="641"/>
      <point x="128" y="700" type="curve"/>
      <point x="31" y="691" type="line"/>
      <point x="72" y="630"/>
      <point x="88" y="595"/>
      <point x="106" y="524" type="curve" smooth="yes"/>
      <point x="131" y="429"/>
      <point x="143" y="330"/>
      <point x="143" y="218" type="curve" smooth="yes"/>
      <point x="143" y="35"/>
      <point x="112" y="-88"/>
      <point x="34" y="-208" type="curve"/>
    </contour>
  </outline>
</glyph>
<glyph name="asterisk" format="2">
  <advance width="431"/>
  <unicode hex="002A"/>
  <outline>
    <contour>
      <point x="81.6403" y="383.38" type="line"/>
      <point x="82.6999" y="383.38" type="line"/>
      <point x="113.685" y="357.886" type="line"/>
      <point x="120.547" y="357.886" type="line"/>
      <point x="214.81" y="454.678" type="line"/>
      <point x="308.353" y="357.654" type="line"/>
      <point x="315.342" y="357.654" type="line"/>
      <point x="345.04" y="383.526" type="line"/>
      <point x="346.007" y="383.526" type="line"/>
      <point x="275.141" y="496.626" type="line"/>
      <point x="273.015" y="496.626" type="line"/>
      <point x="396.879" y="555.366" type="line"/>
      <point x="399.468" y="555.366" type="line"/>
      <point x="386.168" y="591.477" type="line"/>
      <point x="380.344" y="591.477" type="line"/>
      <point x="256.055" y="564.92" type="line"/>
      <point x="239.668" y="702.925" type="line"/>
      <point x="190.081" y="702.925" type="line"/>
      <point x="173.693" y="564.92" type="line"/>
      <point x="49.4048" y="591.477" type="line"/>
      <point x="43.5808" y="591.477" type="line"/>
      <point x="30.2896" y="555.39" type="line"/>
      <point x="32.8638" y="555.39" type="line"/>
      <point x="155.697" y="496.676" type="line"/>
      <point x="153.601" y="496.676" type="line"/>
    </contour>
  </outline>
</glyph>
<glyph name="plus" format="2">
  <advance width="592"/>
  <unicode hex="002B"/>
  <outline>
    <contour>
      <point x="36" y="387" type="line"/>
      <point x="36" y="317" type="line"/>
      <point x="259" y="317" type="line"/>
      <point x="259" y="95" type="line"/>
      <point x="334" y="95" type="line"/>
      <point x="334" y="317" type="line"/>
      <point x="556" y="317" type="line"/>
      <point x="556" y="387" type="line"/>
      <point x="334" y="387" type="line"/>
      <point x="334" y="613" type="line"/>
      <point x="259" y="613" type="line"/>
      <point x="259" y="387" type="line"/>
    </contour>
  </outline>
</glyph>
<glyph name="comma" format="2">
  <advance width="271"/>
  <unicode hex="002C"/>
  <outline>
    <contour>
      <point x="15.4817" y="-137.396" type="line"/>
      <point x="20.594" y="-137.396" type="line"/>
      <point x="101.555" y="-132.239" type="line"/>
      <point x="105.519" y="-132.239" type="line"/>
      <point x="205.963" y="26.2316" type="line"/>
      <point x="205.963" y="150.104" type="line"/>
      <point x="75.3362" y="150.104" type="line"/>
      <point x="75.3362" y="64.3273" type="line" smooth="yes"/>
      <point x="75.3362" y="35.0699"/>
      <point x="64.2657" y="1.62807"/>
      <point x="54.3425" y="-26.6731" type="curve" smooth="yes"/>
    </contour>
  </outline>
</glyph>
<glyph name="hyphen" format="2">
  <advance width="247"/>
  <unicode hex="002D"/>
  <outline>
    <contour>
      <point x="-4.95106" y="196.948" type="line"/>
      <point x="252.075" y="196.948" type="line"/>
      <point x="252.075" y="289.528" type="line"/>
      <point x="-4.95106" y="289.528" type="line"/>
    </contour>
  </outline>
</glyph>
<glyph name="period" format="2">
  <advance width="268"/>
  <unicode hex="002E"/>
  <outline>
    <contour>
      <point x="51.0489" y="63.3523" type="curve" smooth="yes"/>
      <point x="51.0489" y="26.0326"/>
      <point x="81.5817" y="-12.6749"/>
      <point x="133.15" y="-12.6749" type="curve" smooth="yes"/>
      <point x="183.832" y="-12.6749"/>
      <point x="215.251" y="25.1047"/>
      <point x="215.251" y="62.3773" type="curve" smooth="yes"/>
      <point x="215.251" y="99.65"/>
      <point x="183.832" y="137.43"/>
      <point x="133.15" y="137.43" type="curve" smooth="yes"/>
      <point x="83.3771" y="137.43"/>
      <point x="51.0489" y="100.549"/>
    </contour>
  </outline>
</glyph>
<glyph name="slash" format="2">
  <advance width="437"/>
  <unicode hex="002F"/>
  <outline>
    <contour>
      <point x="391" y="700" type="line"/>
      <point x="315" y="710" type="line"/>
      <point x="-1" y="-214" type="line"/>
      <point x="76" y="-226" type="line"/>
    </contour>
  </outline>
</glyph>
<glyph name="zero" format="2">
  <advance width="577"/>
  <unicode hex="0030"/>
  <outline>
    <contour>
      <point x="287.999" y="-12.6749" type="curve" smooth="yes"/>
      <point x="503.32" y="-12.6749"/>
      <point x="539.949" y="197.067"/>
      <point x="539.949" y="333.425" type="curve" smooth="yes"/>
      <point x="539.949" y="466.162"/>
      <point x="504.352" y="680.5"/>
      <point x="291.949" y="680.5" type="curve" smooth="yes"/>
      <point x="70.9807" y="680.5"/>
      <point x="36.0489" y="473.663"/>
      <point x="36.0489" y="332.45" type="curve" smooth="yes"/>
      <point x="36.0489" y="196.13"/>
      <point x="73.0846" y="-12.6749"/>
    </contour>
    <contour>
      <point x="181.488" y="331.475" type="curve" smooth="yes"/>
      <point x="181.488" y="401.481"/>
      <point x="188.362" y="575.245"/>
      <point x="289.974" y="575.245" type="curve" smooth="yes"/>
      <point x="384.76" y="575.245"/>
      <point x="394.51" y="400.358"/>
      <point x="394.51" y="333.425" type="curve" smooth="yes"/>
      <point x="394.51" y="264.617"/>
      <point x="385.319" y="92.5799"/>
      <point x="287.999" y="92.5799" type="curve" smooth="yes"/>
      <point x="192.086" y="92.5799"/>
      <point x="181.488" y="263.365"/>
    </contour>
  </outline>
</glyph>
<glyph name="one" format="2">
  <advance width="580"/>
  <unicode hex="0031"/>
  <outline>
    <contour>
      <point x="278.836" y="0" type="line"/>
      <point x="423.287" y="0" type="line"/>
      <point x="423.287" y="667.825" type="line"/>
      <point x="314.104" y="667.825" type="line"/>
      <point x="311.61" y="662.349" type="line" smooth="yes"/>
      <point x="274.393" y="580.622"/>
      <point x="211.857" y="567.777"/>
      <point x="117.758" y="560.543" type="curve" smooth="yes"/>
      <point x="108.736" y="559.85" type="line"/>
      <point x="104.049" y="559.85" type="line"/>
      <point x="104.049" y="474.253" type="line"/>
      <point x="109.408" y="474.253" type="line"/>
      <point x="278.836" y="483.704" type="line"/>
    </contour>
  </outline>
</glyph>
<glyph name="two" format="2">
  <advance width="578"/>
  <unicode hex="0032"/>
  <outline>
    <contour>
      <point x="60.0489" y="0" type="line"/>
      <point x="517.537" y="0" type="line"/>
      <point x="517.537" y="111.105" type="line"/>
      <point x="512.461" y="111.105" type="line"/>
      <point x="244.022" y="111.105" type="line"/>
      <point x="247.62" y="111.105" type="line"/>
      <point x="312.899" y="176.7"/>
      <point x="379.181" y="243.291"/>
      <point x="431.312" y="320.14" type="curve" smooth="yes"/>
      <point x="468.672" y="375.214"/>
      <point x="493.837" y="435.205"/>
      <point x="493.837" y="499.174" type="curve" smooth="yes"/>
      <point x="493.837" y="618.918"/>
      <point x="410.678" y="680.5"/>
      <point x="276.449" y="680.5" type="curve" smooth="yes"/>
      <point x="140.259" y="680.5"/>
      <point x="98.1651" y="619.351"/>
      <point x="64.6931" y="521.206" type="curve" smooth="yes"/>
      <point x="62.5315" y="514.868" type="line"/>
      <point x="64.8322" y="514.868" type="line"/>
      <point x="183.894" y="447.362" type="line"/>
      <point x="191.416" y="447.362" type="line"/>
      <point x="193.491" y="460.95" type="line" smooth="yes"/>
      <point x="201.689" y="514.635"/>
      <point x="214.427" y="568.42"/>
      <point x="274.474" y="568.42" type="curve" smooth="yes"/>
      <point x="324.109" y="568.42"/>
      <point x="347.41" y="533.399"/>
      <point x="347.41" y="486.499" type="curve" smooth="yes"/>
      <point x="347.41" y="381.641"/>
      <point x="266.687" y="294.55"/>
      <point x="191.139" y="218.483" type="curve" smooth="yes"/>
      <point x="150.327" y="177.391"/>
      <point x="107.801" y="137.801"/>
      <point x="64.5492" y="98.7325" type="curve" smooth="yes"/>
      <point x="61.7225" y="96.1793" type="line"/>
      <point x="60.0489" y="96.1793" type="line"/>
    </contour>
  </outline>
</glyph>
<glyph name="three" format="2">
  <advance width="583"/>
  <unicode hex="0033"/>
  <outline>
    <contour>
      <point x="208" y="290" type="line"/>
      <point x="224" y="292"/>
      <point x="240" y="293"/>
      <point x="247" y="293" type="curve" smooth="yes"/>
      <point x="321" y="293"/>
      <point x="365" y="259"/>
      <point x="365" y="203" type="curve" smooth="yes"/>
      <point x="365" y="149"/>
      <point x="325" y="110"/>
      <point x="268" y="110" type="curve" smooth="yes"/>
      <point x="214" y="110"/>
      <point x="184" y="136"/>
      <point x="167" y="199" type="curve"/>
      <point x="30" y="144" type="line"/>
      <point x="50" y="91"/>
      <point x="63" y="68"/>
      <point x="88" y="43" type="curve" smooth="yes"/>
      <point x="126" y="5"/>
      <point x="184" y="-13"/>
      <point x="263" y="-13" type="curve" smooth="yes"/>
      <point x="341" y="-13"/>
      <point x="403" y="4"/>
      <point x="447" y="38" type="curve"/>
      <point x="495" y="77"/>
      <point x="524" y="138"/>
      <point x="524" y="204" type="curve" smooth="yes"/>
      <point x="524" y="243"/>
      <point x="513" y="275"/>
      <point x="492" y="303" type="curve" smooth="yes"/>
      <point x="470" y="331"/>
      <point x="451" y="342"/>
      <point x="406" y="353" type="curve"/>
      <point x="440" y="372"/>
      <point x="453" y="383"/>
      <point x="469" y="407" type="curve" smooth="yes"/>
      <point x="490" y="437"/>
      <point x="501" y="471" name="hr01"/>
      <point x="501" y="508" type="curve" smooth="yes"/>
      <point x="501" y="616"/>
      <point x="414" y="680"/>
      <point x="267" y="680" type="curve" smooth="yes"/>
      <point x="197" y="680"/>
      <point x="146" y="666"/>
      <point x="111" y="637" type="curve" smooth="yes"/>
      <point x="81" y="611"/>
      <point x="66" y="584"/>
      <point x="52" y="527" type="curve"/>
      <point x="185" y="476" type="line"/>
      <point x="196" y="534"/>
      <point x="223" y="560"/>
      <point x="271" y="560" type="curve" smooth="yes"/>
      <point x="317" y="560"/>
      <point x="346" y="532"/>
      <point x="346" y="489" type="curve" smooth="yes"/>
      <point x="346" y="432"/>
      <point x="301" y="399"/>
      <point x="226" y="399" type="curve" smooth="yes"/>
      <point x="208" y="399" type="line"/>
    </contour>
  </outline>
</glyph>
<glyph name="four" format="2">
  <advance width="583"/>
  <unicode hex="0034"/>
  <outline>
    <contour>
      <point x="471" y="667" type="line"/>
      <point x="308" y="667" type="line"/>
      <point x="35" y="255" type="line"/>
      <point x="35" y="139" type="line"/>
      <point x="327" y="139" type="line"/>
      <point x="327" y="0" type="line"/>
      <point x="471" y="0" type="line"/>
      <point x="471" y="139" type="line"/>
      <point x="557" y="139" type="line"/>
      <point x="557" y="255" type="line"/>
      <point x="471" y="255" type="line"/>
    </contour>
    <contour>
      <point x="327" y="535" type="line"/>
      <point x="327" y="255" type="line"/>
      <point x="157" y="255" type="line"/>
    </contour>
  </outline>
</glyph>
<glyph name="five" format="2">
  <advance width="581"/>
  <unicode hex="0035"/>
  <outline>
    <contour>
      <point x="43.2026" y="122.867" type="line"/>
      <point x="40.8015" y="122.867" type="line"/>
      <point x="44.3365" y="115.501" type="line" smooth="yes"/>
      <point x="87.9857" y="24.543"/>
      <point x="167.328" y="-12.6749"/>
      <point x="266.362" y="-12.6749" type="curve" smooth="yes"/>
      <point x="437.416" y="-12.6749"/>
      <point x="530.162" y="95.9575"/>
      <point x="530.162" y="235.926" type="curve" smooth="yes"/>
      <point x="530.162" y="344.484"/>
      <point x="461.129" y="444.552"/>
      <point x="320.674" y="444.552" type="curve" smooth="yes"/>
      <point x="281.135" y="444.552"/>
      <point x="252.767" y="438.071"/>
      <point x="225.276" y="422.118" type="curve"/>
      <point x="247.373" y="561.595" type="line"/>
      <point x="242.36" y="561.595" type="line"/>
      <point x="498.423" y="561.595" type="line"/>
      <point x="503.499" y="561.595" type="line"/>
      <point x="503.499" y="667.825" type="line"/>
      <point x="130.138" y="667.825" type="line"/>
      <point x="82.7363" y="322.916" type="line"/>
      <point x="86.0739" y="322.916" type="line"/>
      <point x="194.63" y="284.557" type="line"/>
      <point x="200.477" y="284.557" type="line"/>
      <point x="204.841" y="290.779" type="line" smooth="yes"/>
      <point x="227.209" y="322.666"/>
      <point x="247.465" y="339.297"/>
      <point x="285.124" y="339.297" type="curve" smooth="yes"/>
      <point x="352.465" y="339.297"/>
      <point x="380.773" y="284.868"/>
      <point x="380.773" y="224.226" type="curve" smooth="yes"/>
      <point x="380.773" y="158.769"/>
      <point x="340.719" y="94.5299"/>
      <point x="267.349" y="94.5299" type="curve" smooth="yes"/>
      <point x="218.316" y="94.5299"/>
      <point x="190.283" y="125.262"/>
      <point x="172.765" y="169.595" type="curve" smooth="yes"/>
      <point x="168.954" y="179.241" type="line"/>
      <point x="162.057" y="179.241" type="line"/>
    </contour>
  </outline>
</glyph>
<glyph name="six" format="2">
  <advance width="583"/>
  <unicode hex="0036"/>
  <outline>
    <contour>
      <point x="517" y="599" type="line"/>
      <point x="463" y="661"/>
      <point x="420" y="680"/>
      <point x="336" y="680" type="curve" smooth="yes"/>
      <point x="147" y="680"/>
      <point x="49" y="549"/>
      <point x="49" y="298" type="curve" smooth="yes"/>
      <point x="49" y="199"/>
      <point x="67" y="131"/>
      <point x="106" y="78" type="curve" smooth="yes"/>
      <point x="149" y="19"/>
      <point x="219" y="-13"/>
      <point x="304" y="-13" type="curve" smooth="yes"/>
      <point x="447" y="-13"/>
      <point x="539" y="81"/>
      <point x="539" y="227" type="curve" smooth="yes"/>
      <point x="539" y="291"/>
      <point x="521" y="344"/>
      <point x="488" y="380" type="curve"/>
      <point x="455" y="414"/>
      <point x="402" y="436"/>
      <point x="350" y="436" type="curve" smooth="yes"/>
      <point x="293" y="436"/>
      <point x="251" y="418"/>
      <point x="206" y="376" type="curve"/>
      <point x="212" y="445"/>
      <point x="220" y="477"/>
      <point x="237" y="506" type="curve" smooth="yes"/>
      <point x="261" y="546"/>
      <point x="299" y="569"/>
      <point x="342" y="569" type="curve" smooth="yes"/>
      <point x="382" y="569"/>
      <point x="405" y="554"/>
      <point x="428" y="513" type="curve"/>
    </contour>
    <contour>
      <point x="301" y="325" type="curve" smooth="yes"/>
      <point x="358" y="325"/>
      <point x="390" y="286"/>
      <point x="390" y="217" type="curve" smooth="yes"/>
      <point x="390" y="148"/>
      <point x="352" y="103"/>
      <point x="294" y="103" type="curve" smooth="yes"/>
      <point x="238" y="103"/>
      <point x="202" y="145"/>
      <point x="202" y="212" type="curve" smooth="yes"/>
      <point x="202" y="282"/>
      <point x="240" y="325"/>
    </contour>
  </outline>
</glyph>
<glyph name="seven" format="2">
  <advance width="578"/>
  <unicode hex="0037"/>
  <outline>
    <contour>
      <point x="95.1441" y="0" type="line"/>
      <point x="249.202" y="0" type="line"/>
      <point x="518.104" y="576.395" type="line"/>
      <point x="518.104" y="576.395"/>
      <point x="518.614" y="578.021"/>
      <point x="518.631" y="581.454" type="curve" smooth="yes"/>
      <point x="518.645" y="616.663" type="line" smooth="yes"/>
      <point x="518.626" y="636.155" name="hr01"/>
      <point x="518.587" y="656.299"/>
      <point x="518.587" y="659.072" type="curve" smooth="yes"/>
      <point x="518.587" y="667.825" type="line"/>
      <point x="65.0489" y="667.825" type="line"/>
      <point x="65.0489" y="561.595" type="line"/>
      <point x="70.125" y="561.595" type="line"/>
      <point x="364.385" y="561.595" type="line"/>
      <point x="359.793" y="561.595" type="line"/>
    </contour>
  </outline>
</glyph>
<glyph name="eight" format="2">
  <advance width="578"/>
  <unicode hex="0038"/>
  <outline>
    <contour>
      <point x="149.746" y="365.435" type="curve"/>
      <point x="150.633" y="365.435" type="line"/>
      <point x="80.6662" y="334.551"/>
      <point x="51.0489" y="273.584"/>
      <point x="51.0489" y="197.901" type="curve" smooth="yes"/>
      <point x="51.0489" y="145.684"/>
      <point x="69.3935" y="84.4855"/>
      <point x="113.574" y="42.7392" type="curve" smooth="yes"/>
      <point x="159.567" y="-0.719646"/>
      <point x="223.819" y="-12.6749"/>
      <point x="288.187" y="-12.6749" type="curve" smooth="yes"/>
      <point x="352.589" y="-12.6749"/>
      <point x="417.716" y="-0.986178"/>
      <point x="463.809" y="42.7528" type="curve" smooth="yes"/>
      <point x="507.98" y="84.6676"/>
      <point x="526.312" y="145.5"/>
      <point x="526.312" y="197.901" type="curve" smooth="yes"/>
      <point x="526.312" y="273.166"/>
      <point x="496.461" y="334.599"/>
      <point x="426.894" y="365.362" type="curve"/>
      <point x="427.747" y="365.362" type="line"/>
      <point x="479.456" y="401.46"/>
      <point x="504.587" y="442.854"/>
      <point x="504.587" y="502.099" type="curve" smooth="yes"/>
      <point x="504.587" y="617.525"/>
      <point x="417.826" y="680.5"/>
      <point x="289.174" y="680.5" type="curve" smooth="yes"/>
      <point x="161.37" y="680.5"/>
      <point x="72.7738" y="617.205"/>
      <point x="72.7738" y="502.099" type="curve" smooth="yes"/>
      <point x="72.7738" y="442.437"/>
      <point x="98.3859" y="401.863"/>
    </contour>
    <contour>
      <point x="288.187" y="406.527" type="curve" smooth="yes"/>
      <point x="236.392" y="406.527"/>
      <point x="211.301" y="444.726"/>
      <point x="211.301" y="493.324" type="curve" smooth="yes"/>
      <point x="211.301" y="542.177"/>
      <point x="237.187" y="577.195"/>
      <point x="289.174" y="577.195" type="curve" smooth="yes"/>
      <point x="341.161" y="577.195"/>
      <point x="367.048" y="542.177"/>
      <point x="367.048" y="493.324" type="curve" smooth="yes"/>
      <point x="367.048" y="443.255"/>
      <point x="341.649" y="406.527"/>
    </contour>
    <contour>
      <point x="289.174" y="91.6049" type="curve" smooth="yes"/>
      <point x="223.145" y="91.6049"/>
      <point x="194.513" y="140.846"/>
      <point x="194.513" y="200.826" type="curve" smooth="yes"/>
      <point x="194.513" y="262.484"/>
      <point x="222.49" y="308.097"/>
      <point x="290.162" y="308.097" type="curve" smooth="yes"/>
      <point x="355.083" y="308.097"/>
      <point x="382.848" y="259.93"/>
      <point x="382.848" y="200.826" type="curve" smooth="yes"/>
      <point x="382.848" y="141.407"/>
      <point x="354.595" y="91.6049"/>
    </contour>
  </outline>
</glyph>
<glyph name="nine" format="2">
  <advance width="578"/>
  <unicode hex="0039"/>
  <outline>
    <contour>
      <point x="58.9469" y="35.1052" type="line"/>
      <point x="60.1329" y="35.1052" type="line"/>
      <point x="66.3562" y="30.3802" type="line" smooth="yes"/>
      <point x="112.025" y="-4.29395"/>
      <point x="150.77" y="-12.6749"/>
      <point x="211.137" y="-12.6749" type="curve" smooth="yes"/>
      <point x="463.626" y="-12.6749"/>
      <point x="518.387" y="204.452"/>
      <point x="518.387" y="375.35" type="curve" smooth="yes"/>
      <point x="518.387" y="513.468"/>
      <point x="492.158" y="680.5"/>
      <point x="282.237" y="680.5" type="curve" smooth="yes"/>
      <point x="119.448" y="680.5"/>
      <point x="49.0489" y="567.242"/>
      <point x="49.0489" y="442.624" type="curve" smooth="yes"/>
      <point x="49.0489" y="338.23"/>
      <point x="105.291" y="232.048"/>
      <point x="247.674" y="232.048" type="curve" smooth="yes"/>
      <point x="299.043" y="232.048"/>
      <point x="335.394" y="245.365"/>
      <point x="367.489" y="270.1" type="curve"/>
      <point x="354.308" y="184.3"/>
      <point x="312.954" y="89.655"/>
      <point x="211.137" y="89.655" type="curve" smooth="yes"/>
      <point x="180.266" y="89.655"/>
      <point x="161.219" y="99.3966"/>
      <point x="138.026" y="121.905" type="curve" smooth="yes"/>
      <point x="128.921" y="130.741" type="line"/>
      <point x="121.13" y="130.741" type="line"/>
    </contour>
    <contour>
      <point x="275.324" y="335.353" type="curve" smooth="yes"/>
      <point x="209.92" y="335.353"/>
      <point x="192.513" y="394.943"/>
      <point x="192.513" y="453.349" type="curve" smooth="yes"/>
      <point x="192.513" y="515.472"/>
      <point x="215.289" y="575.245"/>
      <point x="285.199" y="575.245" type="curve" smooth="yes"/>
      <point x="352.618" y="575.245"/>
      <point x="371.96" y="514.239"/>
      <point x="371.96" y="454.324" type="curve" smooth="yes"/>
      <point x="371.96" y="393.226"/>
      <point x="343.545" y="335.353"/>
    </contour>
  </outline>
</glyph>
<glyph name="colon" format="2">
  <advance width="268"/>
  <unicode hex="003A"/>
  <outline>
    <contour>
      <point x="51.0489" y="372.425" type="curve" smooth="yes"/>
      <point x="51.0489" y="335.105"/>
      <point x="81.5817" y="296.398"/>
      <point x="133.15" y="296.398" type="curve" smooth="yes"/>
      <point x="183.832" y="296.398"/>
      <point x="215.251" y="334.177"/>
      <point x="215.251" y="371.45" type="curve" smooth="yes"/>
      <point x="215.251" y="408.722"/>
      <point x="183.832" y="446.502"/>
      <point x="133.15" y="446.502" type="curve" smooth="yes"/>
      <point x="83.3771" y="446.502"/>
      <point x="51.0489" y="409.621"/>
    </contour>
    <contour>
      <point x="51.0489" y="63.3523" type="curve" smooth="yes"/>
      <point x="51.0489" y="26.0326"/>
      <point x="81.5817" y="-12.6749"/>
      <point x="133.15" y="-12.6749" type="curve" smooth="yes"/>
      <point x="183.832" y="-12.6749"/>
      <point x="215.251" y="25.1047"/>
      <point x="215.251" y="62.3773" type="curve" smooth="yes"/>
      <point x="215.251" y="99.65"/>
      <point x="183.832" y="137.43"/>
      <point x="133.15" y="137.43" type="curve" smooth="yes"/>
      <point x="83.3771" y="137.43"/>
      <point x="51.0489" y="100.549"/>
    </contour>
  </outline>
</glyph>
<glyph name="semicolon" format="2">
  <advance width="272"/>
  <unicode hex="003B"/>
  <outline>
    <contour>
      <point x="199" y="164" type="line"/>
      <point x="72" y="164" type="line"/>
      <point x="72" y="78" type="line" smooth="yes"/>
      <point x="72" y="49"/>
      <point x="65" y="15"/>
      <point x="50" y="-35" type="curve" smooth="yes" name="hr01"/>
      <point x="16" y="-143" type="line"/>
      <point x="97" y="-134" type="line"/>
      <point x="199" y="36" type="line" name="hr02"/>
    </contour>
    <contour>
      <point x="133" y="463" type="curve" smooth="yes"/>
      <point x="86" y="463"/>
      <point x="50" y="427"/>
      <point x="50" y="381" type="curve" smooth="yes"/>
      <point x="50" y="332"/>
      <point x="85" y="297"/>
      <point x="133" y="297" type="curve" smooth="yes"/>
      <point x="180" y="297"/>
      <point x="216" y="333"/>
      <point x="216" y="380" type="curve" smooth="yes"/>
      <point x="216" y="427"/>
      <point x="180" y="463"/>
    </contour>
  </outline>
</glyph>
<glyph name="less" format="2">
  <advance width="547"/>
  <unicode hex="003C"/>
  <outline>
    <contour>
      <point x="23" y="329" type="line"/>
      <point x="472" y="146" type="line"/>
      <point x="524" y="205" type="line"/>
      <point x="150" y="352" type="line"/>
      <point x="524" y="499" type="line"/>
      <point x="484" y="557" type="line"/>
      <point x="23" y="378" type="line"/>
    </contour>
  </outline>
</glyph>
<glyph name="equal" format="2">
  <advance width="585"/>
  <unicode hex="003D"/>
  <outline>
    <contour>
      <point x="25.0489" y="237.898" type="line"/>
      <point x="559.562" y="237.898" type="line"/>
      <point x="559.562" y="311.953" type="line"/>
      <point x="25.0489" y="311.953" type="line"/>
    </contour>
    <contour>
      <point x="25.0489" y="371.472" type="line"/>
      <point x="559.562" y="371.472" type="line"/>
      <point x="559.562" y="444.552" type="line"/>
      <point x="25.0489" y="444.552" type="line"/>
    </contour>
  </outline>
</glyph>
<glyph name="greater" format="2">
  <advance width="550"/>
  <unicode hex="003E"/>
  <outline>
    <contour>
      <point x="69.7078" y="129.564" type="line"/>
      <point x="75.4021" y="129.564" type="line"/>
      <point x="532.611" y="314.144" type="line"/>
      <point x="535.787" y="314.144" type="line"/>
      <point x="535.787" y="366.463" type="line"/>
      <point x="532.536" y="366.463" type="line"/>
      <point x="63.4825" y="547.288" type="line"/>
      <point x="57.4778" y="547.288" type="line"/>
      <point x="15.5006" y="486.415" type="line"/>
      <point x="17.8375" y="486.415" type="line"/>
      <point x="395.693" y="339.275" type="line"/>
      <point x="16.5067" y="191.617" type="line"/>
      <point x="14.5546" y="191.617" type="line"/>
    </contour>
  </outline>
</glyph>
<glyph name="question" format="2">
  <advance width="406"/>
  <unicode hex="003F"/>
  <outline>
    <contour>
      <point x="97.0361" y="63.3523" type="curve" smooth="yes"/>
      <point x="97.0361" y="26.0326"/>
      <point x="127.569" y="-12.6749"/>
      <point x="179.137" y="-12.6749" type="curve" smooth="yes"/>
      <point x="229.82" y="-12.6749"/>
      <point x="261.238" y="25.1047"/>
      <point x="261.238" y="62.3773" type="curve" smooth="yes"/>
      <point x="261.238" y="99.65"/>
      <point x="229.82" y="137.43"/>
      <point x="179.137" y="137.43" type="curve" smooth="yes"/>
      <point x="129.364" y="137.43"/>
      <point x="97.0361" y="100.549"/>
    </contour>
    <contour>
      <point x="124.433" y="190.123" type="line"/>
      <point x="253.145" y="190.123" type="line"/>
      <point x="242.692" y="203.788" type="line" smooth="yes" name="hr01"/>
      <point x="229.249" y="221.36"/>
      <point x="221.738" y="236.197"/>
      <point x="221.738" y="258.351" type="curve" smooth="yes"/>
      <point x="221.738" y="292.939"/>
      <point x="244.696" y="317.67"/>
      <point x="268.132" y="340.095" type="curve" smooth="yes"/>
      <point x="273.262" y="344.979"/>
      <point x="278.52" y="349.885" name="hr02"/>
      <point x="283.922" y="354.869" type="curve" smooth="yes"/>
      <point x="337.11" y="403.944"/>
      <point x="381.712" y="450.299"/>
      <point x="381.712" y="528.424" type="curve" smooth="yes"/>
      <point x="381.712" y="621.824"/>
      <point x="313.151" y="680.5"/>
      <point x="204.812" y="680.5" type="curve" smooth="yes"/>
      <point x="108.941" y="680.5"/>
      <point x="46.0495" y="642.877"/>
      <point x="17.6184" y="550.22" type="curve" smooth="yes"/>
      <point x="15.5412" y="543.451" type="line"/>
      <point x="18.2456" y="543.451" type="line"/>
      <point x="129.008" y="491.711" type="line"/>
      <point x="136.13" y="491.711" type="line"/>
      <point x="138.528" y="503.466" type="line" smooth="yes"/>
      <point x="146.184" y="540.991"/>
      <point x="158.458" y="571.345"/>
      <point x="194.937" y="571.345" type="curve" smooth="yes"/>
      <point x="227.465" y="571.345"/>
      <point x="247.136" y="546.151"/>
      <point x="247.136" y="513.799" type="curve" smooth="yes"/>
      <point x="247.136" y="464.698"/>
      <point x="213.151" y="435.607"/>
      <point x="179.289" y="406.366" type="curve" smooth="yes"/>
      <point x="175.337" y="402.952" type="line" smooth="yes"/>
      <point x="136.229" y="369.111"/>
      <point x="94.0736" y="331.042"/>
      <point x="94.0736" y="268.101" type="curve" smooth="yes"/>
      <point x="94.0736" y="240.3"/>
      <point x="102.863" y="218.398"/>
      <point x="121.496" y="193.974" type="curve" smooth="yes"/>
    </contour>
  </outline>
</glyph>
<glyph name="at" format="2">
  <advance width="738"/>
  <unicode hex="0040"/>
  <outline>
    <contour>
      <point x="471.491" y="492.397" type="line"/>
      <point x="464.56" y="460.262" type="line"/>
      <point x="439.533" y="488.119"/>
      <point x="406.368" y="503.067"/>
      <point x="371.98" y="503.067" type="curve" smooth="yes"/>
      <point x="276.355" y="503.067"/>
      <point x="191.123" y="407.186"/>
      <point x="191.123" y="299.064" type="curve" smooth="yes"/>
      <point x="191.123" y="209.871"/>
      <point x="250.528" y="144.532"/>
      <point x="332.21" y="144.532" type="curve" smooth="yes"/>
      <point x="375.963" y="144.532"/>
      <point x="421.819" y="166.987"/>
      <point x="455.678" y="203.105" type="curve"/>
      <point x="470.304" y="171.279"/>
      <point x="499.904" y="153.262" name="hr01"/>
      <point x="534.943" y="153.262" type="curve" smooth="yes"/>
      <point x="626.667" y="153.262"/>
      <point x="709.01" y="263.672"/>
      <point x="709.01" y="389.276" type="curve" smooth="yes"/>
      <point x="709.01" y="559.076"/>
      <point x="577.94" y="678.64"/>
      <point x="390.41" y="678.64" type="curve" smooth="yes"/>
      <point x="191.688" y="678.64"/>
      <point x="30.1004" y="518.969"/>
      <point x="30.1004" y="321.375" type="curve" smooth="yes"/>
      <point x="30.1004" y="230.84"/>
      <point x="69.4057" y="137.835"/>
      <point x="132.899" y="77.3655" type="curve"/>
      <point x="196.903" y="19.3618"/>
      <point x="280.102" y="-11.6402"/>
      <point x="386.53" y="-11.6402" type="curve" smooth="yes"/>
      <point x="454.839" y="-11.6402"/>
      <point x="527.709" y="-0.631599"/>
      <point x="591.559" y="19.1837" type="curve"/>
      <point x="570.05" y="103.955" type="line"/>
      <point x="503.636" y="83.2683"/>
      <point x="447.05" y="72.3808"/>
      <point x="388.47" y="72.3808" type="curve" smooth="yes"/>
      <point x="303.205" y="72.3808"/>
      <point x="245.67" y="93.7718"/>
      <point x="198.335" y="142.051" type="curve" smooth="yes"/>
      <point x="155.83" y="186.404"/>
      <point x="130.881" y="252.717"/>
      <point x="130.881" y="321.375" type="curve" smooth="yes"/>
      <point x="130.881" y="474.86"/>
      <point x="248.767" y="595.589"/>
      <point x="399.141" y="595.589" type="curve" smooth="yes"/>
      <point x="534.428" y="595.589"/>
      <point x="622.78" y="513.231"/>
      <point x="622.78" y="388.306" type="curve" smooth="yes"/>
      <point x="622.78" y="311.652"/>
      <point x="580.568" y="229.523"/>
      <point x="541.733" y="229.523" type="curve" smooth="yes"/>
      <point x="530.703" y="229.523"/>
      <point x="523.737" y="240.323"/>
      <point x="523.737" y="258.324" type="curve" smooth="yes"/>
      <point x="523.737" y="264.724"/>
      <point x="525.595" y="281.309"/>
      <point x="530.239" y="301.744" type="curve" smooth="yes"/>
      <point x="571.688" y="492.397" type="line"/>
    </contour>
    <contour>
      <point x="385.56" y="406.436" type="curve" smooth="yes"/>
      <point x="419.158" y="406.436"/>
      <point x="442.357" y="379.498"/>
      <point x="442.357" y="340.775" type="curve" smooth="yes"/>
      <point x="442.357" y="287.747"/>
      <point x="403.522" y="238.253" name="hr02"/>
      <point x="361.31" y="238.253" type="curve" smooth="yes"/>
      <point x="326.811" y="238.253"/>
      <point x="303.544" y="265.243"/>
      <point x="303.544" y="304.885" type="curve" smooth="yes"/>
      <point x="303.544" y="358.751"/>
      <point x="342.438" y="406.436"/>
    </contour>
  </outline>
</glyph>
<glyph name="A" format="2">
  <advance width="640"/>
  <unicode hex="0041"/>
  <outline>
    <contour>
      <point x="-13.6088" y="0" type="line"/>
      <point x="135.431" y="0" type="line"/>
      <point x="199.618" y="174.523" type="line"/>
      <point x="426.579" y="174.523" type="line"/>
      <point x="490.767" y="0" type="line"/>
      <point x="645.565" y="0" type="line"/>
      <point x="395.087" y="667.825" type="line"/>
      <point x="248.023" y="667.825" type="line"/>
    </contour>
    <contour>
      <point x="238.701" y="277.829" type="line"/>
      <point x="315.83" y="484.303" type="line"/>
      <point x="390.573" y="277.829" type="line"/>
      <point x="395.346" y="277.829" type="line"/>
    </contour>
  </outline>
</glyph>
<glyph name="B" format="2">
  <advance width="637"/>
  <unicode hex="0042"/>
  <outline>
    <contour>
      <point x="77" y="0" type="line"/>
      <point x="355" y="0" type="line" smooth="yes"/>
      <point x="419" y="0"/>
      <point x="470" y="11"/>
      <point x="506" y="34" type="curve" smooth="yes"/>
      <point x="561" y="68"/>
      <point x="593" y="129"/>
      <point x="593" y="201" type="curve" smooth="yes"/>
      <point x="593" y="244"/>
      <point x="581" y="281"/>
      <point x="558" y="310" type="curve" smooth="yes"/>
      <point x="539" y="333"/>
      <point x="521" y="344"/>
      <point x="479" y="360" type="curve"/>
      <point x="542" y="396"/>
      <point x="570" y="441" name="hr01"/>
      <point x="570" y="506" type="curve" smooth="yes"/>
      <point x="570" y="609"/>
      <point x="498" y="667"/>
      <point x="370" y="667" type="curve" smooth="yes"/>
      <point x="77" y="667" type="line"/>
    </contour>
    <contour>
      <point x="233" y="396" type="line"/>
      <point x="233" y="547" type="line"/>
      <point x="292" y="547" type="line" smooth="yes"/>
      <point x="374" y="547"/>
      <point x="402" y="530"/>
      <point x="402" y="477" type="curve" smooth="yes"/>
      <point x="402" y="418"/>
      <point x="368" y="396"/>
      <point x="279" y="396" type="curve" smooth="yes"/>
    </contour>
    <contour>
      <point x="233" y="120" type="line"/>
      <point x="233" y="287" type="line"/>
      <point x="282" y="287" type="line" smooth="yes"/>
      <point x="333" y="287"/>
      <point x="351" y="286"/>
      <point x="367" y="281" type="curve" smooth="yes"/>
      <point x="401" y="271"/>
      <point x="420" y="244" name="hr02"/>
      <point x="420" y="207" type="curve" smooth="yes"/>
      <point x="420" y="146"/>
      <point x="382" y="120"/>
      <point x="293" y="120" type="curve" smooth="yes"/>
    </contour>
  </outline>
</glyph>
<glyph name="C" format="2">
  <advance width="663"/>
  <unicode hex="0043"/>
  <outline>
    <contour>
      <point x="541.693" y="201.466" type="line"/>
      <point x="534.466" y="201.466" type="line"/>
      <point x="529.98" y="191.354" type="line" smooth="yes"/>
      <point x="500.851" y="125.689"/>
      <point x="463.96" y="95.5049"/>
      <point x="387.786" y="95.5049" type="curve" smooth="yes"/>
      <point x="250.242" y="95.5049"/>
      <point x="198.326" y="206.193"/>
      <point x="198.326" y="328.55" type="curve" smooth="yes"/>
      <point x="198.326" y="444.769"/>
      <point x="245.561" y="573.295"/>
      <point x="388.774" y="573.295" type="curve" smooth="yes"/>
      <point x="464.159" y="573.295"/>
      <point x="504.485" y="545.427"/>
      <point x="529.657" y="476.962" type="curve" smooth="yes"/>
      <point x="533.716" y="465.924" type="line"/>
      <point x="541.086" y="465.924" type="line"/>
      <point x="657.207" y="535.409" type="line"/>
      <point x="658.902" y="535.409" type="line"/>
      <point x="654.507" y="542.423" type="line" smooth="yes"/>
      <point x="586.42" y="651.082"/>
      <point x="525.469" y="682.45"/>
      <point x="394.699" y="682.45" type="curve" smooth="yes"/>
      <point x="155.706" y="682.45"/>
      <point x="40.0489" y="522.99"/>
      <point x="40.0489" y="331.475" type="curve" smooth="yes"/>
      <point x="40.0489" y="109.012"/>
      <point x="170.228" y="-13.6499"/>
      <point x="388.774" y="-13.6499" type="curve" smooth="yes"/>
      <point x="515.162" y="-13.6499"/>
      <point x="586.255" y="20.7337"/>
      <point x="655.316" y="125.228" type="curve" smooth="yes"/>
      <point x="660.02" y="132.345" type="line"/>
      <point x="658.372" y="132.345" type="line"/>
    </contour>
  </outline>
</glyph>
<glyph name="D" format="2">
  <advance width="710"/>
  <unicode hex="0044"/>
  <outline>
    <contour>
      <point x="223.374" y="109.155" type="line"/>
      <point x="228.451" y="109.155" type="line"/>
      <point x="228.451" y="558.67" type="line"/>
      <point x="223.375" y="558.67" type="line"/>
      <point x="316.199" y="558.67" type="line" smooth="yes"/>
      <point x="364.096" y="558.66"/>
      <point x="405.14" y="558.089"/>
      <point x="442.527" y="532.246" type="curve" smooth="yes"/>
      <point x="498.439" y="493.599"/>
      <point x="513.56" y="408.569"/>
      <point x="513.56" y="343.175" type="curve" smooth="yes"/>
      <point x="513.56" y="206.073"/>
      <point x="463.5" y="109.901"/>
      <point x="317.187" y="109.155" type="curve"/>
    </contour>
    <contour>
      <point x="80.0489" y="0" type="line"/>
      <point x="329.037" y="0" type="line" smooth="yes"/>
      <point x="546.325" y="0"/>
      <point x="669.861" y="123.858"/>
      <point x="669.861" y="347.075" type="curve" smooth="yes"/>
      <point x="669.861" y="439.891"/>
      <point x="644.764" y="546.101"/>
      <point x="555.643" y="612.162" type="curve" smooth="yes"/>
      <point x="492.34" y="659.086"/>
      <point x="411.549" y="667.825"/>
      <point x="332.987" y="667.825" type="curve" smooth="yes"/>
      <point x="80.0489" y="667.825" type="line"/>
    </contour>
  </outline>
</glyph>
<glyph name="E" format="2">
  <advance width="563"/>
  <unicode hex="0045"/>
  <outline>
    <contour>
      <point x="237" y="396" type="line"/>
      <point x="237" y="543" type="line"/>
      <point x="489" y="543" type="line"/>
      <point x="489" y="667" type="line"/>
      <point x="77" y="667" type="line"/>
      <point x="77" y="0" type="line"/>
      <point x="527" y="0" type="line"/>
      <point x="527" y="124" type="line"/>
      <point x="237" y="124" type="line"/>
      <point x="237" y="278" type="line"/>
      <point x="489" y="278" type="line"/>
      <point x="489" y="396" type="line"/>
    </contour>
  </outline>
</glyph>
<glyph name="F" format="2">
  <advance width="508"/>
  <unicode hex="0046"/>
  <outline>
    <contour>
      <point x="237" y="386" type="line"/>
      <point x="237" y="543" type="line"/>
      <point x="487" y="543" type="line"/>
      <point x="487" y="667" type="line"/>
      <point x="77" y="667" type="line"/>
      <point x="77" y="0" type="line"/>
      <point x="237" y="0" type="line"/>
      <point x="237" y="268" type="line"/>
      <point x="478" y="268" type="line"/>
      <point x="478" y="386" type="line"/>
    </contour>
  </outline>
</glyph>
<glyph name="G" format="2">
  <advance width="709"/>
  <unicode hex="0047"/>
  <outline>
    <contour>
      <point x="345.185" y="237.898" type="line"/>
      <point x="350.261" y="237.898" type="line"/>
      <point x="506.286" y="237.898" type="line"/>
      <point x="501.21" y="237.898" type="line"/>
      <point x="501.21" y="109.29" type="line"/>
      <point x="504.655" y="109.29" type="line"/>
      <point x="470.691" y="97.7681"/>
      <point x="442.907" y="93.5549"/>
      <point x="406.549" y="93.5549" type="curve" smooth="yes"/>
      <point x="250.341" y="93.5549"/>
      <point x="197.338" y="195.84"/>
      <point x="197.338" y="326.6" type="curve" smooth="yes"/>
      <point x="197.338" y="442.74"/>
      <point x="247.839" y="573.295"/>
      <point x="390.749" y="573.295" type="curve" smooth="yes"/>
      <point x="462.138" y="573.295"/>
      <point x="503.284" y="546.213"/>
      <point x="533.073" y="483.12" type="curve" smooth="yes"/>
      <point x="537.629" y="473.471" type="line"/>
      <point x="544.742" y="473.471" type="line"/>
      <point x="661.329" y="540.235" type="line"/>
      <point x="663.046" y="540.235" type="line"/>
      <point x="658.293" y="547.458" type="line" smooth="yes"/>
      <point x="591.7" y="648.661"/>
      <point x="518.501" y="682.45"/>
      <point x="395.686" y="682.45" type="curve" smooth="yes"/>
      <point x="153.286" y="682.45"/>
      <point x="40.0489" y="523.423"/>
      <point x="40.0489" y="329.525" type="curve" smooth="yes"/>
      <point x="40.0489" y="107.608"/>
      <point x="170.895" y="-13.6499"/>
      <point x="388.774" y="-13.6499" type="curve" smooth="yes"/>
      <point x="475.205" y="-13.6499"/>
      <point x="557.683" y="2.4522"/>
      <point x="637.987" y="24.7759" type="curve" smooth="yes"/>
      <point x="644.907" y="26.6996" type="line"/>
      <point x="648.624" y="26.6996" type="line"/>
      <point x="648.624" y="346.078" type="line"/>
      <point x="345.185" y="346.078" type="line"/>
    </contour>
  </outline>
</glyph>
<glyph name="H" format="2">
  <advance width="722"/>
  <unicode hex="0048"/>
  <outline>
    <contour>
      <point x="80.0489" y="0" type="line"/>
      <point x="228.451" y="0" type="line"/>
      <point x="228.451" y="282.748" type="line"/>
      <point x="492.822" y="282.748" type="line"/>
      <point x="492.822" y="0" type="line"/>
      <point x="641.224" y="0" type="line"/>
      <point x="641.224" y="667.825" type="line"/>
      <point x="492.822" y="667.825" type="line"/>
      <point x="492.822" y="392.878" type="line"/>
      <point x="228.451" y="392.878" type="line"/>
      <point x="228.451" y="667.825" type="line"/>
      <point x="80.0489" y="667.825" type="line"/>
    </contour>
  </outline>
</glyph>
<glyph name="I" format="2">
  <advance width="313"/>
  <unicode hex="0049"/>
  <outline>
    <contour>
      <point x="237" y="667" type="line"/>
      <point x="77" y="667" type="line"/>
      <point x="77" y="0" type="line"/>
      <point x="237" y="0" type="line"/>
    </contour>
  </outline>
</glyph>
<glyph name="J" format="2">
  <advance width="446"/>
  <unicode hex="004A"/>
  <outline>
    <contour>
      <point x="-39.5923" y="112.267" type="line"/>
      <point x="-42.0695" y="112.267" type="line"/>
      <point x="-38.8178" y="104.982" type="line" smooth="yes"/>
      <point x="0.366039" y="17.1923"/>
      <point x="46.9893" y="-13.6499"/>
      <point x="146.824" y="-13.6499" type="curve" smooth="yes"/>
      <point x="216.67" y="-13.6499"/>
      <point x="284.93" y="7.72203"/>
      <point x="328.273" y="56.9955" type="curve" smooth="yes"/>
      <point x="371.68" y="106.342"/>
      <point x="372.112" y="169.85"/>
      <point x="372.112" y="223.251" type="curve" smooth="yes"/>
      <point x="372.112" y="667.825" type="line"/>
      <point x="223.71" y="667.825" type="line"/>
      <point x="223.71" y="223.251" type="line"/>
      <point x="223.714" y="216.078" type="line" smooth="yes"/>
      <point x="223.714" y="167.259"/>
      <point x="222.336" y="99.4049"/>
      <point x="156.699" y="99.4049" type="curve" smooth="yes"/>
      <point x="119.304" y="99.4049"/>
      <point x="102.733" y="121.923"/>
      <point x="91.0444" y="158.37" type="curve" smooth="yes"/>
      <point x="87.707" y="168.776" type="line"/>
      <point x="80.7153" y="168.776" type="line"/>
    </contour>
  </outline>
</glyph>
<glyph name="K" format="2">
  <advance width="644"/>
  <unicode hex="004B"/>
  <outline>
    <contour>
      <point x="234" y="667" type="line"/>
      <point x="76" y="667" type="line"/>
      <point x="76" y="0" type="line"/>
      <point x="234" y="0" type="line"/>
      <point x="234" y="298" type="line"/>
      <point x="461" y="0" type="line"/>
      <point x="668" y="0" type="line"/>
      <point x="395" y="357" type="line"/>
      <point x="634" y="667" type="line"/>
      <point x="452" y="667" type="line"/>
      <point x="234" y="382" type="line"/>
    </contour>
  </outline>
</glyph>
<glyph name="L" format="2">
  <advance width="482"/>
  <unicode hex="004C"/>
  <outline>
    <contour>
      <point x="80.0489" y="0" type="line"/>
      <point x="484.212" y="0" type="line"/>
      <point x="484.212" y="109.155" type="line"/>
      <point x="479.136" y="109.155" type="line"/>
      <point x="223.374" y="109.155" type="line"/>
      <point x="228.451" y="109.155" type="line"/>
      <point x="228.451" y="667.825" type="line"/>
      <point x="80.0489" y="667.825" type="line"/>
    </contour>
  </outline>
</glyph>
<glyph name="M" format="2">
  <advance width="924"/>
  <unicode hex="004D"/>
  <outline>
    <contour>
      <point x="848" y="667" type="line"/>
      <point x="649" y="667" type="line"/>
      <point x="463" y="242" type="line"/>
      <point x="280" y="667" type="line"/>
      <point x="77" y="667" type="line"/>
      <point x="77" y="0" type="line"/>
      <point x="232" y="0" type="line"/>
      <point x="232" y="427" type="line"/>
      <point x="403" y="0" type="line"/>
      <point x="524" y="0" type="line"/>
      <point x="693" y="427" type="line"/>
      <point x="693" y="0" type="line"/>
      <point x="848" y="0" type="line"/>
    </contour>
  </outline>
</glyph>
<glyph name="N" format="2">
  <advance width="765"/>
  <unicode hex="004E"/>
  <outline>
    <contour>
      <point x="80.0489" y="0" type="line"/>
      <point x="226.476" y="0" type="line"/>
      <point x="226.476" y="430.972" type="line"/>
      <point x="543.763" y="0" type="line"/>
      <point x="684.674" y="0" type="line"/>
      <point x="684.674" y="667.825" type="line"/>
      <point x="538.247" y="667.825" type="line"/>
      <point x="538.247" y="232.942" type="line"/>
      <point x="217.996" y="667.825" type="line"/>
      <point x="80.0489" y="667.825" type="line"/>
    </contour>
  </outline>
</glyph>
<glyph name="O" format="2">
  <advance width="761"/>
  <unicode hex="004F"/>
  <outline>
    <contour>
      <point x="147.575" y="62.8862" type="curve" smooth="yes"/>
      <point x="211.11" y="8.85916"/>
      <point x="292.882" y="-13.6499"/>
      <point x="380.874" y="-13.6499" type="curve" smooth="yes"/>
      <point x="596.082" y="-13.6499"/>
      <point x="719.723" y="120.499"/>
      <point x="719.723" y="334.4" type="curve" smooth="yes"/>
      <point x="719.723" y="549.661"/>
      <point x="595.898" y="682.45"/>
      <point x="379.886" y="682.45" type="curve" smooth="yes"/>
      <point x="168.692" y="682.45"/>
      <point x="40.0489" y="552.63"/>
      <point x="40.0489" y="340.25" type="curve" smooth="yes"/>
      <point x="40.0489" y="241.309"/>
      <point x="58.8664" y="138.319"/>
    </contour>
    <contour>
      <point x="379.886" y="95.5049" type="curve" smooth="yes"/>
      <point x="241.328" y="95.5049"/>
      <point x="198.326" y="226.881"/>
      <point x="198.326" y="338.3" type="curve" smooth="yes"/>
      <point x="198.326" y="447.314"/>
      <point x="245.86" y="573.295"/>
      <point x="379.886" y="573.295" type="curve" smooth="yes"/>
      <point x="516.219" y="573.295"/>
      <point x="561.447" y="444.667"/>
      <point x="561.447" y="334.4" type="curve" smooth="yes"/>
      <point x="561.447" y="224.133"/>
      <point x="516.219" y="95.5049"/>
    </contour>
  </outline>
</glyph>
<glyph name="P" format="2">
  <advance width="583"/>
  <unicode hex="0050"/>
  <outline>
    <contour>
      <point x="77" y="0" type="line"/>
      <point x="237" y="0" type="line"/>
      <point x="237" y="248" type="line"/>
      <point x="279" y="248" type="line" smooth="yes"/>
      <point x="349" y="248"/>
      <point x="406" y="257"/>
      <point x="446" y="275" type="curve" smooth="yes"/>
      <point x="523" y="309"/>
      <point x="567" y="380"/>
      <point x="567" y="469" type="curve" smooth="yes"/>
      <point x="567" y="538"/>
      <point x="541" y="594"/>
      <point x="492" y="629" type="curve" smooth="yes"/>
      <point x="453" y="658"/>
      <point x="416" y="667"/>
      <point x="337" y="667" type="curve" smooth="yes"/>
      <point x="77" y="667" type="line"/>
    </contour>
    <contour>
      <point x="237" y="375" type="line"/>
      <point x="237" y="542" type="line"/>
      <point x="283" y="542" type="line" smooth="yes"/>
      <point x="331" y="542"/>
      <point x="344" y="540"/>
      <point x="360" y="533" type="curve" smooth="yes"/>
      <point x="386" y="521"/>
      <point x="401" y="494"/>
      <point x="401" y="460" type="curve" smooth="yes"/>
      <point x="401" y="400"/>
      <point x="365" y="375"/>
      <point x="277" y="375" type="curve" smooth="yes"/>
    </contour>
  </outline>
</glyph>
<glyph name="Q" format="2">
  <advance width="765"/>
  <unicode hex="0051"/>
  <outline>
    <contour>
      <point x="910" y="-86" type="line"/>
      <point x="536" y="14" type="line"/>
      <point x="591" y="40"/>
      <point x="614" y="56"/>
      <point x="642" y="85" type="curve" smooth="yes"/>
      <point x="697" y="143"/>
      <point x="724" y="227"/>
      <point x="724" y="336" type="curve" smooth="yes"/>
      <point x="724" y="457"/>
      <point x="693" y="540"/>
      <point x="625" y="601" type="curve" smooth="yes"/>
      <point x="564" y="655"/>
      <point x="482" y="683"/>
      <point x="385" y="683" type="curve" smooth="yes"/>
      <point x="281" y="683"/>
      <point x="190" y="650"/>
      <point x="128" y="590" type="curve" smooth="yes"/>
      <point x="68" y="531"/>
      <point x="40" y="449"/>
      <point x="40" y="337" type="curve" smooth="yes"/>
      <point x="40" y="148"/>
      <point x="121" y="38"/>
      <point x="293" y="-7" type="curve"/>
      <point x="788" y="-189" type="line"/>
    </contour>
    <contour>
      <point x="381" y="559" type="curve" smooth="yes"/>
      <point x="483" y="559"/>
      <point x="549" y="471"/>
      <point x="549" y="334" type="curve" smooth="yes"/>
      <point x="549" y="197"/>
      <point x="484" y="109"/>
      <point x="381" y="109" type="curve" smooth="yes"/>
      <point x="277" y="109"/>
      <point x="213" y="196"/>
      <point x="213" y="337" type="curve" smooth="yes"/>
      <point x="213" y="471"/>
      <point x="279" y="559"/>
    </contour>
  </outline>
</glyph>
<glyph name="R" format="2">
  <advance width="618"/>
  <unicode hex="0052"/>
  <outline>
    <contour>
      <point x="80.0489" y="0" type="line"/>
      <point x="227.463" y="0" type="line"/>
      <point x="227.463" y="276.897" type="line" name="hr01"/>
      <point x="222.387" y="276.897" type="line"/>
      <point x="270.311" y="276.897" type="line"/>
      <point x="434.235" y="0" type="line" name="hr02"/>
      <point x="604.889" y="0" type="line"/>
      <point x="415.967" y="301.623" type="line"/>
      <point x="413.868" y="301.623" type="line"/>
      <point x="490.598" y="338.581"/>
      <point x="537.537" y="395.822"/>
      <point x="537.537" y="485.524" type="curve" smooth="yes"/>
      <point x="537.537" y="593.958"/>
      <point x="466.194" y="655.452"/>
      <point x="365.438" y="665.353" type="curve" smooth="yes"/>
      <point x="340.98" y="667.757"/>
      <point x="315.744" y="667.826"/>
      <point x="292.661" y="667.826" type="curve" smooth="yes"/>
      <point x="288.549" y="667.825" type="line"/>
      <point x="80.0489" y="667.825" type="line"/>
    </contour>
    <contour>
      <point x="222.387" y="383.128" type="line"/>
      <point x="227.463" y="383.128" type="line"/>
      <point x="227.463" y="557.696" type="line"/>
      <point x="258.924" y="557.695" type="line" smooth="yes"/>
      <point x="264.467" y="557.695"/>
      <point x="270.327" y="557.826"/>
      <point x="276.182" y="557.959" type="curve" smooth="yes"/>
      <point x="281.883" y="558.088"/>
      <point x="288.718" y="558.221"/>
      <point x="294.526" y="558.237" type="curve" smooth="yes"/>
      <point x="300.525" y="558.189" type="line"/>
      <point x="352.633" y="557.299"/>
      <point x="382.223" y="537.41"/>
      <point x="382.223" y="479.674" type="curve" smooth="yes"/>
      <point x="382.223" y="399.404"/>
      <point x="330.836" y="383.137"/>
      <point x="263.862" y="383.128" type="curve" smooth="yes"/>
    </contour>
  </outline>
</glyph>
<glyph name="S" format="2">
  <advance width="541"/>
  <unicode hex="0053"/>
  <outline>
    <contour>
      <point x="17.048" y="120.084" type="line"/>
      <point x="15.1436" y="120.084" type="line"/>
      <point x="18.3937" y="113.478" type="line" smooth="yes"/>
      <point x="64.5997" y="19.5663"/>
      <point x="152.065" y="-13.6499"/>
      <point x="253.199" y="-13.6499" type="curve" smooth="yes"/>
      <point x="399.365" y="-13.6499"/>
      <point x="502.187" y="67.3806"/>
      <point x="502.187" y="196.926" type="curve" smooth="yes"/>
      <point x="502.187" y="312.05"/>
      <point x="420.068" y="353.056"/>
      <point x="320.184" y="399.67" type="curve" smooth="yes"/>
      <point x="312.11" y="403.437"/>
      <point x="303.581" y="407.061"/>
      <point x="295.129" y="410.709" type="curve" smooth="yes"/>
      <point x="275.774" y="419.064"/>
      <point x="256.399" y="427.528"/>
      <point x="238.784" y="439.243" type="curve" smooth="yes"/>
      <point x="217.455" y="453.428"/>
      <point x="202.975" y="472.148"/>
      <point x="202.975" y="503.074" type="curve" smooth="yes"/>
      <point x="202.975" y="544.81"/>
      <point x="233.844" y="579.145"/>
      <point x="277.887" y="579.145" type="curve" smooth="yes"/>
      <point x="326.372" y="579.145"/>
      <point x="351.84" y="550.9"/>
      <point x="369.54" y="506.956" type="curve" smooth="yes"/>
      <point x="373.869" y="496.208" type="line"/>
      <point x="381.231" y="496.208" type="line"/>
      <point x="492.416" y="564.385" type="line"/>
      <point x="494.28" y="564.385" type="line"/>
      <point x="490.87" y="571.042" type="line" smooth="yes"/>
      <point x="450.145" y="650.547"/>
      <point x="380.508" y="682.45"/>
      <point x="281.836" y="682.45" type="curve" smooth="yes"/>
      <point x="152.156" y="682.45"/>
      <point x="52.5988" y="605.886"/>
      <point x="52.5988" y="490.399" type="curve" smooth="yes"/>
      <point x="52.5988" y="373.644"/>
      <point x="148.001" y="325.682"/>
      <point x="240.741" y="284.304" type="curve" smooth="yes"/>
      <point x="255.525" y="277.708"/>
      <point x="270.347" y="271.094"/>
      <point x="286.825" y="261.712" type="curve" smooth="yes"/>
      <point x="325.645" y="239.606"/>
      <point x="344.898" y="223.382"/>
      <point x="344.898" y="180.351" type="curve" smooth="yes"/>
      <point x="344.898" y="129.492"/>
      <point x="310.547" y="94.5299"/>
      <point x="256.162" y="94.5299" type="curve" smooth="yes"/>
      <point x="199.697" y="94.5299"/>
      <point x="163.939" y="130.079"/>
      <point x="144.85" y="180.225" type="curve" smooth="yes"/>
      <point x="140.662" y="191.227" type="line"/>
      <point x="133.268" y="191.227" type="line"/>
    </contour>
  </outline>
</glyph>
<glyph name="T" format="2">
  <advance width="482"/>
  <unicode hex="0054"/>
  <outline>
    <contour>
      <point x="320" y="544" type="line"/>
      <point x="502" y="544" type="line"/>
      <point x="502" y="667" type="line"/>
      <point x="-21" y="667" type="line"/>
      <point x="-21" y="544" type="line"/>
      <point x="160" y="544" type="line"/>
      <point x="160" y="0" type="line"/>
      <point x="320" y="0" type="line"/>
    </contour>
  </outline>
</glyph>
<glyph name="U" format="2">
  <advance width="712"/>
  <unicode hex="0055"/>
  <outline>
    <contour>
      <point x="73.0489" y="667.825" type="line"/>
      <point x="73.0489" y="275.901" type="line" smooth="yes"/>
      <point x="73.0489" y="219.518"/>
      <point x="73.1488" y="158.12"/>
      <point x="104.348" y="102.363" type="curve" smooth="yes"/>
      <point x="152.548" y="16.225"/>
      <point x="252.123" y="-13.6499"/>
      <point x="354.624" y="-13.6499" type="curve" smooth="yes"/>
      <point x="488.082" y="-13.6499"/>
      <point x="610.293" y="37.7803"/>
      <point x="632.171" y="179.717" type="curve" smooth="yes"/>
      <point x="637.121" y="211.831"/>
      <point x="637.186" y="244.342"/>
      <point x="637.186" y="275.901" type="curve" smooth="yes"/>
      <point x="637.186" y="667.825" type="line"/>
      <point x="488.785" y="667.825" type="line"/>
      <point x="488.785" y="274.926" type="line"/>
      <point x="488.793" y="264.663" type="line" smooth="yes"/>
      <point x="488.793" y="233.347"/>
      <point x="488.409" y="183.156"/>
      <point x="473.59" y="155.873" type="curve" smooth="yes"/>
      <point x="451.249" y="114.74"/>
      <point x="404.891" y="95.5049"/>
      <point x="355.611" y="95.5049" type="curve" smooth="yes"/>
      <point x="233.332" y="95.5049"/>
      <point x="221.451" y="174.759"/>
      <point x="221.451" y="274.926" type="curve" smooth="yes"/>
      <point x="221.451" y="667.825" type="line"/>
    </contour>
  </outline>
</glyph>
<glyph name="V" format="2">
  <advance width="622"/>
  <unicode hex="0056"/>
  <outline>
    <contour>
      <point x="237.039" y="0" type="line"/>
      <point x="366.171" y="0" type="line"/>
      <point x="646.057" y="667.825" type="line"/>
      <point x="500.042" y="667.825" type="line"/>
      <point x="312.179" y="212.796" type="line"/>
      <point x="148.378" y="667.825" type="line"/>
      <point x="-9.38163" y="667.825" type="line"/>
    </contour>
  </outline>
</glyph>
<glyph name="W" format="2">
  <advance width="946"/>
  <unicode hex="0057"/>
  <outline>
    <contour>
      <point x="192.081" y="0" type="line"/>
      <point x="319.411" y="0" type="line"/>
      <point x="466.247" y="418.82" type="line"/>
      <point x="593.142" y="0" type="line"/>
      <point x="719.392" y="0" type="line"/>
      <point x="949.588" y="667.825" type="line"/>
      <point x="807.79" y="667.825" type="line"/>
      <point x="659.183" y="242.857" type="line"/>
      <point x="534.135" y="667.825" type="line"/>
      <point x="417.697" y="667.825" type="line"/>
      <point x="272.221" y="246.735" type="line"/>
      <point x="152.044" y="667.825" type="line"/>
      <point x="1.43403" y="667.825" type="line"/>
    </contour>
  </outline>
</glyph>
<glyph name="X" format="2">
  <advance width="597"/>
  <unicode hex="0058"/>
  <outline>
    <contour>
      <point x="415" y="667" type="line"/>
      <point x="307" y="493" type="line"/>
      <point x="201" y="667" type="line"/>
      <point x="11" y="667" type="line"/>
      <point x="206" y="346" type="line"/>
      <point x="-18" y="0" type="line"/>
      <point x="168" y="0" type="line"/>
      <point x="293" y="203" type="line"/>
      <point x="415" y="0" type="line"/>
      <point x="609" y="0" type="line"/>
      <point x="392" y="355" type="line"/>
      <point x="589" y="667" type="line"/>
    </contour>
  </outline>
</glyph>
<glyph name="Y" format="2">
  <advance width="550"/>
  <unicode hex="0059"/>
  <outline>
    <contour>
      <point x="201.136" y="0" type="line"/>
      <point x="349.537" y="0" type="line"/>
      <point x="349.537" y="8.75277" type="line"/>
      <point x="349.523" y="41.5436" type="line" smooth="yes"/>
      <point x="349.509" y="70.1815"/>
      <point x="349.487" y="113.2"/>
      <point x="349.474" y="155.353" type="curve" smooth="yes"/>
      <point x="349.489" y="277.152" type="line" smooth="yes"/>
      <point x="349.492" y="279.214"/>
      <point x="349.35" y="281.178"/>
      <point x="349.239" y="282.845" type="curve"/>
      <point x="348.817" y="285.997" type="line"/>
      <point x="358.902" y="314.999"/>
      <point x="374.512" y="339.229"/>
      <point x="392.441" y="363.699" type="curve" smooth="yes"/>
      <point x="402.801" y="377.838"/>
      <point x="413.748" y="392.78"/>
      <point x="422.983" y="407.91" type="curve" smooth="yes"/>
      <point x="581.625" y="667.825" type="line"/>
      <point x="427.939" y="667.825" type="line"/>
      <point x="282.028" y="421.639" type="line"/>
      <point x="131.498" y="667.825" type="line"/>
      <point x="-34.9664" y="667.825" type="line"/>
      <point x="126.403" y="405.929" type="line" smooth="yes"/>
      <point x="135.806" y="390.668"/>
      <point x="146.918" y="375.622"/>
      <point x="157.432" y="361.383" type="curve" smooth="yes"/>
      <point x="175.697" y="336.65"/>
      <point x="191.079" y="311.957"/>
      <point x="201.159" y="282.646" type="curve"/>
      <point x="201.189" y="153.83" type="line" smooth="yes"/>
      <point x="201.178" y="112.081"/>
      <point x="201.16" y="69.4735"/>
      <point x="201.148" y="41.1344" type="curve" smooth="yes"/>
      <point x="201.136" y="8.75277" type="line"/>
    </contour>
  </outline>
</glyph>
<glyph name="Z" format="2">
  <advance width="548"/>
  <unicode hex="005A"/>
  <outline>
    <contour>
      <point x="36" y="667" type="line"/>
      <point x="36" y="543" type="line"/>
      <point x="323" y="543" type="line"/>
      <point x="4" y="115" type="line"/>
      <point x="4" y="0" type="line"/>
      <point x="551" y="0" type="line"/>
      <point x="551" y="125" type="line"/>
      <point x="208" y="125" type="line"/>
      <point x="517" y="546" type="line"/>
      <point x="517" y="667" type="line"/>
    </contour>
  </outline>
</glyph>
<glyph name="bracketleft" format="2">
  <advance width="305"/>
  <unicode hex="005B"/>
  <outline>
    <contour>
      <point x="173" y="-153" type="line" name="hr02"/>
      <point x="173" y="634" type="line"/>
      <point x="270" y="648" type="line" name="hr01"/>
      <point x="270" y="700" type="line"/>
      <point x="62" y="700" type="line"/>
      <point x="62" y="-216" type="line"/>
      <point x="270" y="-216" type="line"/>
      <point x="270" y="-162" type="line"/>
    </contour>
  </outline>
</glyph>
<glyph name="backslash" format="2">
  <advance width="437"/>
  <unicode hex="005C"/>
  <outline>
    <contour>
      <point x="45" y="700" type="line"/>
      <point x="361" y="-226" type="line"/>
      <point x="437" y="-214" type="line"/>
      <point x="121" y="710" type="line"/>
    </contour>
  </outline>
</glyph>
<glyph name="bracketright" format="2">
  <advance width="305"/>
  <unicode hex="005D"/>
  <outline>
    <contour>
      <point x="27.0489" y="-212.548" type="line"/>
      <point x="238.65" y="-212.548" type="line"/>
      <point x="238.65" y="700" type="line"/>
      <point x="27.0489" y="700" type="line"/>
      <point x="27.0489" y="636.561" type="line"/>
      <point x="31.6572" y="636.561" type="line"/>
      <point x="126.457" y="627.786" type="line" name="hr01"/>
      <point x="121.849" y="627.786" type="line"/>
      <point x="121.849" y="-138.564" type="line"/>
      <point x="126.354" y="-138.564" type="line"/>
      <point x="31.5544" y="-149.289" type="line" name="hr02"/>
      <point x="27.0489" y="-149.289" type="line"/>
    </contour>
  </outline>
</glyph>
<glyph name="asciicircum" format="2">
  <advance width="466"/>
  <unicode hex="005E"/>
  <outline>
    <contour>
      <point x="46.51" y="444.443" type="line"/>
      <point x="49.419" y="444.443" type="line"/>
      <point x="123.605" y="422.207" type="line"/>
      <point x="129.408" y="422.207" type="line"/>
      <point x="231.148" y="590.823" type="line"/>
      <point x="336.478" y="422.277" type="line"/>
      <point x="342.217" y="422.277" type="line"/>
      <point x="417.611" y="444.478" type="line"/>
      <point x="420.472" y="444.478" type="line"/>
      <point x="260.741" y="698.05" type="line"/>
      <point x="196.867" y="698.05" type="line"/>
    </contour>
  </outline>
</glyph>
<glyph name="underscore" format="2">
  <advance width="576"/>
  <unicode hex="005F"/>
  <outline>
    <contour>
      <point x="-4.95106" y="-112.124" type="line"/>
      <point x="580.911" y="-112.124" type="line"/>
      <point x="580.911" y="-40.019" type="line"/>
      <point x="-4.95106" y="-40.019" type="line"/>
    </contour>
  </outline>
</glyph>
<glyph name="grave" format="2">
  <advance width="500"/>
  <unicode hex="0060"/>
  <outline>
    <contour>
      <point x="171" y="710" type="line"/>
      <point x="51" y="671" type="line"/>
      <point x="265" y="523" type="line"/>
      <point x="320" y="534" type="line"/>
    </contour>
  </outline>
</glyph>
<glyph name="a" format="2">
  <advance width="576"/>
  <unicode hex="0061"/>
  <outline>
    <contour>
      <point x="372.76" y="0" type="line"/>
      <point x="512.35" y="0" type="line"/>
      <point x="512.35" y="454.302" type="line"/>
      <point x="372.76" y="454.302" type="line"/>
      <point x="372.76" y="425.755" type="line"/>
      <point x="343.958" y="451.801"/>
      <point x="312.557" y="465.027"/>
      <point x="259.374" y="465.027" type="curve" smooth="yes"/>
      <point x="101.178" y="465.027"/>
      <point x="37.0109" y="342.25"/>
      <point x="37.0109" y="226.176" type="curve" smooth="yes"/>
      <point x="37.0109" y="97.7487"/>
      <point x="113.001" y="-10.7249"/>
      <point x="249.499" y="-10.7249" type="curve" smooth="yes"/>
      <point x="300.593" y="-10.7249"/>
      <point x="339.919" y="3.24964"/>
      <point x="372.76" y="28.8518" type="curve"/>
    </contour>
    <contour>
      <point x="280.112" y="90.6299" type="curve" smooth="yes"/>
      <point x="207.796" y="90.6299"/>
      <point x="184.501" y="165.342"/>
      <point x="184.501" y="228.126" type="curve" smooth="yes"/>
      <point x="184.501" y="289.217"/>
      <point x="210.089" y="363.672"/>
      <point x="280.112" y="363.672" type="curve" smooth="yes"/>
      <point x="351.067" y="363.672"/>
      <point x="375.722" y="288.921"/>
      <point x="375.722" y="227.151" type="curve" smooth="yes"/>
      <point x="375.722" y="165.037"/>
      <point x="351.496" y="90.6299"/>
    </contour>
  </outline>
</glyph>
<glyph name="b" format="2">
  <advance width="577"/>
  <unicode hex="0062"/>
  <outline>
    <contour>
      <point x="63.0109" y="0" type="line"/>
      <point x="162.679" y="0" type="line"/>
      <point x="190.443" y="39.1609" type="line"/>
      <point x="226.832" y="7.53736"/>
      <point x="266.514" y="-10.7249"/>
      <point x="324.874" y="-10.7249" type="curve" smooth="yes"/>
      <point x="477.658" y="-10.7249"/>
      <point x="539.337" y="120.649"/>
      <point x="539.337" y="229.101" type="curve" smooth="yes"/>
      <point x="539.337" y="357.16"/>
      <point x="461.752" y="465.027"/>
      <point x="325.862" y="465.027" type="curve" smooth="yes"/>
      <point x="274.555" y="465.027"/>
      <point x="235.789" y="449.901"/>
      <point x="202.601" y="424.888" type="curve"/>
      <point x="202.601" y="700" type="line"/>
      <point x="63.0109" y="700" type="line"/>
    </contour>
    <contour>
      <point x="296.237" y="90.6299" type="curve" smooth="yes"/>
      <point x="224.192" y="90.6299"/>
      <point x="199.639" y="165.514"/>
      <point x="199.639" y="228.126" type="curve" smooth="yes"/>
      <point x="199.639" y="288.991"/>
      <point x="226.526" y="363.672"/>
      <point x="296.237" y="363.672" type="curve" smooth="yes"/>
      <point x="367.624" y="363.672"/>
      <point x="391.847" y="289.26"/>
      <point x="391.847" y="227.151" type="curve" smooth="yes"/>
      <point x="391.847" y="165.387"/>
      <point x="367.195" y="90.6299"/>
    </contour>
  </outline>
</glyph>
<glyph name="c" format="2">
  <advance width="490"/>
  <unicode hex="0063"/>
  <outline>
    <contour>
      <point x="354.31" y="167.022" type="line"/>
      <point x="348.059" y="167.022" type="line"/>
      <point x="345.579" y="158.062" type="line" smooth="yes"/>
      <point x="333.527" y="114.51"/>
      <point x="319.831" y="84.78"/>
      <point x="275.174" y="84.78" type="curve" smooth="yes"/>
      <point x="204.899" y="84.78"/>
      <point x="184.501" y="164.533"/>
      <point x="184.501" y="225.201" type="curve" smooth="yes"/>
      <point x="184.501" y="290.137"/>
      <point x="206.34" y="370.497"/>
      <point x="282.087" y="370.497" type="curve" smooth="yes"/>
      <point x="330.594" y="370.497"/>
      <point x="344.046" y="336.033"/>
      <point x="346.11" y="289.209" type="curve" smooth="yes"/>
      <point x="346.645" y="277.061" type="line"/>
      <point x="353.381" y="277.061" type="line"/>
      <point x="475.567" y="318.055" type="line"/>
      <point x="478.957" y="318.055" type="line"/>
      <point x="477.54" y="325.192" type="line" smooth="yes"/>
      <point x="456.871" y="429.336"/>
      <point x="376.813" y="465.027"/>
      <point x="276.162" y="465.027" type="curve" smooth="yes"/>
      <point x="110.309" y="465.027"/>
      <point x="37.0109" y="355.36"/>
      <point x="37.0109" y="226.176" type="curve" smooth="yes"/>
      <point x="37.0109" y="101.697"/>
      <point x="108.096" y="-10.7249"/>
      <point x="270.237" y="-10.7249" type="curve" smooth="yes"/>
      <point x="374.26" y="-10.7249"/>
      <point x="446.247" y="24.1701"/>
      <point x="480.077" y="125.212" type="curve" smooth="yes"/>
      <point x="482.874" y="133.563" type="line"/>
      <point x="479.346" y="133.563" type="line"/>
    </contour>
  </outline>
</glyph>
<glyph name="d" format="2">
  <advance width="576"/>
  <unicode hex="0064"/>
  <outline>
    <contour>
      <point x="372.76" y="0" type="line"/>
      <point x="512.35" y="0" type="line"/>
      <point x="512.35" y="700" type="line"/>
      <point x="372.76" y="700" type="line"/>
      <point x="372.76" y="427.371" type="line"/>
      <point x="341.217" y="451.94"/>
      <point x="303.967" y="465.027"/>
      <point x="254.437" y="465.027" type="curve" smooth="yes"/>
      <point x="116.042" y="465.027"/>
      <point x="37.0109" y="357.261"/>
      <point x="37.0109" y="226.176" type="curve" smooth="yes"/>
      <point x="37.0109" y="96.8506"/>
      <point x="113.383" y="-10.7249"/>
      <point x="250.487" y="-10.7249" type="curve" smooth="yes"/>
      <point x="301.554" y="-10.7249"/>
      <point x="339.722" y="4.25536"/>
      <point x="372.76" y="28.8556" type="curve"/>
    </contour>
    <contour>
      <point x="280.112" y="90.6299" type="curve" smooth="yes"/>
      <point x="207.796" y="90.6299"/>
      <point x="184.501" y="165.342"/>
      <point x="184.501" y="228.126" type="curve" smooth="yes"/>
      <point x="184.501" y="289.217"/>
      <point x="210.089" y="363.672"/>
      <point x="280.112" y="363.672" type="curve" smooth="yes"/>
      <point x="351.496" y="363.672"/>
      <point x="375.722" y="289.265"/>
      <point x="375.722" y="227.151" type="curve" smooth="yes"/>
      <point x="375.722" y="165.037"/>
      <point x="351.496" y="90.6299"/>
    </contour>
  </outline>
</glyph>
<glyph name="e" format="2">
  <advance width="520"/>
  <unicode hex="0065"/>
  <outline>
    <contour>
      <point x="360.993" y="154.601" type="line"/>
      <point x="354.657" y="154.601" type="line"/>
      <point x="351.123" y="146.437" type="line" smooth="yes"/>
      <point x="334.454" y="107.927"/>
      <point x="316.823" y="81.855"/>
      <point x="276.162" y="81.855" type="curve" smooth="yes"/>
      <point x="210.166" y="81.855"/>
      <point x="188.419" y="137.597"/>
      <point x="183.128" y="195.974" type="curve"/>
      <point x="478.588" y="195.973" type="line"/>
      <point x="483.702" y="195.973" type="line"/>
      <point x="483.717" y="211.49" type="line" smooth="yes"/>
      <point x="483.717" y="356.385"/>
      <point x="445.622" y="465.027" name="hr01"/>
      <point x="273.199" y="465.027" type="curve" smooth="yes"/>
      <point x="108.491" y="465.027"/>
      <point x="37.0109" y="353.158"/>
      <point x="37.0109" y="226.176" type="curve" smooth="yes"/>
      <point x="37.0109" y="98.479"/>
      <point x="107.033" y="-10.7249"/>
      <point x="272.212" y="-10.7249" type="curve" smooth="yes"/>
      <point x="371.851" y="-10.7249"/>
      <point x="428.407" y="21.8303"/>
      <point x="476.081" y="106.233" type="curve" smooth="yes"/>
      <point x="480.962" y="114.874" type="line"/>
      <point x="478.151" y="114.874" type="line"/>
    </contour>
    <contour>
      <point x="186.376" y="283.678" type="line"/>
      <point x="192.825" y="332.742"/>
      <point x="215.183" y="376.347" name="hr02"/>
      <point x="269.249" y="376.347" type="curve" smooth="yes"/>
      <point x="328.124" y="376.347"/>
      <point x="341.621" y="336.8"/>
      <point x="344.704" y="283.678" type="curve" name="hr03"/>
      <point x="349.81" y="283.678" type="line"/>
    </contour>
  </outline>
</glyph>
<glyph name="f" format="2">
  <advance width="330"/>
  <unicode hex="0066"/>
  <outline>
    <contour>
      <point x="325" y="457" type="line"/>
      <point x="223" y="457" type="line"/>
      <point x="223" y="495" type="line" smooth="yes"/>
      <point x="223" y="555"/>
      <point x="244" y="583"/>
      <point x="288" y="583" type="curve" smooth="yes"/>
      <point x="300" y="583"/>
      <point x="307" y="581"/>
      <point x="324" y="575" type="curve"/>
      <point x="350" y="685" type="line"/>
      <point x="305" y="697"/>
      <point x="283" y="700"/>
      <point x="249" y="700" type="curve" smooth="yes"/>
      <point x="128" y="700"/>
      <point x="74" y="637"/>
      <point x="74" y="494" type="curve" smooth="yes"/>
      <point x="74" y="457" type="line"/>
      <point x="12" y="457" type="line"/>
      <point x="12" y="339" type="line"/>
      <point x="74" y="339" type="line"/>
      <point x="74" y="0" type="line"/>
      <point x="223" y="0" type="line"/>
      <point x="223" y="339" type="line"/>
      <point x="325" y="339" type="line"/>
    </contour>
  </outline>
</glyph>
<glyph name="g" format="2">
  <advance width="594"/>
  <unicode hex="0067"/>
  <outline>
    <contour>
      <point x="534" y="457" type="line" name="hr02"/>
      <point x="384" y="457" type="line"/>
      <point x="384" y="408" type="line"/>
      <point x="347" y="452"/>
      <point x="309" y="469" name="hr01"/>
      <point x="250" y="469" type="curve" smooth="yes"/>
      <point x="194" y="469"/>
      <point x="139" y="447"/>
      <point x="101" y="410" type="curve" smooth="yes"/>
      <point x="58" y="368"/>
      <point x="37" y="308"/>
      <point x="37" y="225" type="curve" smooth="yes"/>
      <point x="37" y="145"/>
      <point x="58" y="85"/>
      <point x="101" y="43" type="curve" smooth="yes"/>
      <point x="137" y="8"/>
      <point x="187" y="-12"/>
      <point x="241" y="-12" type="curve" smooth="yes"/>
      <point x="300" y="-12"/>
      <point x="339" y="4"/>
      <point x="385" y="49" type="curve"/>
      <point x="385" y="11" type="line" smooth="yes"/>
      <point x="385" y="-72"/>
      <point x="348" y="-120"/>
      <point x="285" y="-120" type="curve" smooth="yes"/>
      <point x="240" y="-120"/>
      <point x="212" y="-95"/>
      <point x="199" y="-44" type="curve"/>
      <point x="58" y="-88" type="line"/>
      <point x="75" y="-138"/>
      <point x="88" y="-160"/>
      <point x="111" y="-180" type="curve" smooth="yes"/>
      <point x="145" y="-210"/>
      <point x="196" y="-225"/>
      <point x="265" y="-225" type="curve" smooth="yes"/>
      <point x="437" y="-225"/>
      <point x="534" y="-142"/>
      <point x="534" y="5" type="curve" smooth="yes"/>
    </contour>
    <contour>
      <point x="291" y="359" type="curve" smooth="yes" name="hr03"/>
      <point x="350" y="359"/>
      <point x="386" y="310"/>
      <point x="386" y="228" type="curve" smooth="yes"/>
      <point x="386" y="146"/>
      <point x="351" y="98"/>
      <point x="290" y="98" type="curve" smooth="yes"/>
      <point x="231" y="98"/>
      <point x="196" y="148"/>
      <point x="196" y="230" type="curve" smooth="yes"/>
      <point x="196" y="308"/>
      <point x="233" y="359"/>
    </contour>
  </outline>
</glyph>
<glyph name="h" format="2">
  <advance width="563"/>
  <unicode hex="0068"/>
  <outline>
    <contour>
      <point x="63.0109" y="0" type="line"/>
      <point x="202.601" y="0" type="line"/>
      <point x="202.601" y="254.451" type="line" smooth="yes"/>
      <point x="202.601" y="312.929"/>
      <point x="223.965" y="355.872"/>
      <point x="290.312" y="355.872" type="curve" smooth="yes"/>
      <point x="348.507" y="355.872"/>
      <point x="360.247" y="314.585"/>
      <point x="360.247" y="260.301" type="curve" smooth="yes"/>
      <point x="360.247" y="0" type="line"/>
      <point x="499.837" y="0" type="line"/>
      <point x="499.837" y="285.651" type="line" smooth="yes"/>
      <point x="499.837" y="323.428"/>
      <point x="498.304" y="366.626"/>
      <point x="470.489" y="403.605" type="curve" smooth="yes"/>
      <point x="438.286" y="446.419"/>
      <point x="386.064" y="465.027"/>
      <point x="327.836" y="465.027" type="curve" smooth="yes"/>
      <point x="271.935" y="465.027"/>
      <point x="235.298" y="449.095"/>
      <point x="202.601" y="421.528" type="curve"/>
      <point x="202.601" y="700" type="line"/>
      <point x="63.0109" y="700" type="line"/>
    </contour>
  </outline>
</glyph>
<glyph name="i" format="2">
  <advance width="269"/>
  <unicode hex="0069"/>
  <outline>
    <contour>
      <point x="209" y="457" type="line"/>
      <point x="60" y="457" type="line"/>
      <point x="60" y="0" type="line"/>
      <point x="209" y="0" type="line"/>
    </contour>
    <contour>
      <point x="131" y="688" type="curve" smooth="yes"/>
      <point x="84" y="688"/>
      <point x="48" y="653" name="hr01"/>
      <point x="48" y="607" type="curve" smooth="yes"/>
      <point x="48" y="558"/>
      <point x="83" y="523"/>
      <point x="131" y="523" type="curve" smooth="yes"/>
      <point x="178" y="523"/>
      <point x="213" y="558"/>
      <point x="213" y="606" type="curve" smooth="yes"/>
      <point x="213" y="653"/>
      <point x="178" y="688"/>
    </contour>
  </outline>
</glyph>
<glyph name="j" format="2">
  <advance width="268"/>
  <unicode hex="006A"/>
  <outline>
    <contour>
      <point x="52.5854" y="605.448" type="curve" smooth="yes"/>
      <point x="52.5854" y="568.637"/>
      <point x="80.5536" y="532.346"/>
      <point x="131.762" y="532.346" type="curve" smooth="yes"/>
      <point x="181.473" y="532.346"/>
      <point x="210.938" y="568.118"/>
      <point x="210.938" y="604.473" type="curve" smooth="yes"/>
      <point x="210.938" y="640.828"/>
      <point x="181.473" y="676.6"/>
      <point x="131.762" y="676.6" type="curve" smooth="yes"/>
      <point x="82.9857" y="676.6"/>
      <point x="52.5854" y="641.739"/>
    </contour>
    <contour>
      <point x="-39.4128" y="-208.924" type="line"/>
      <point x="-34.8971" y="-208.924" type="line"/>
      <point x="-27.7085" y="-209.578" type="line" smooth="yes"/>
      <point x="-13.5013" y="-210.869"/>
      <point x="0.644152" y="-211.573"/>
      <point x="15.2373" y="-211.573" type="curve" smooth="yes"/>
      <point x="61.3576" y="-211.573"/>
      <point x="108.456" y="-202.091"/>
      <point x="144.157" y="-175.385" type="curve" smooth="yes"/>
      <point x="203.462" y="-131.02"/>
      <point x="205.013" y="-70.2364"/>
      <point x="205.013" y="-13.672" type="curve" smooth="yes"/>
      <point x="205.013" y="454.302" type="line"/>
      <point x="65.4229" y="454.302" type="line"/>
      <point x="65.4229" y="-14.647" type="line" smooth="yes"/>
      <point x="65.4229" y="-72.891"/>
      <point x="52.554" y="-113.143"/>
      <point x="-10.4376" y="-113.143" type="curve" smooth="yes"/>
      <point x="-21.7882" y="-113.143"/>
      <point x="-32.8547" y="-112.75"/>
      <point x="-44.1876" y="-112.182" type="curve" smooth="yes"/>
      <point x="-57.0324" y="-111.539" type="line"/>
      <point x="-62.2669" y="-111.539" type="line"/>
    </contour>
  </outline>
</glyph>
<glyph name="k" format="2">
  <advance width="508"/>
  <unicode hex="006B"/>
  <outline>
    <contour>
      <point x="63.0109" y="0" type="line"/>
      <point x="202.601" y="0" type="line"/>
      <point x="202.601" y="182.714" type="line"/>
      <point x="342.235" y="0" type="line"/>
      <point x="515.837" y="0" type="line"/>
      <point x="313.341" y="253.45" type="line"/>
      <point x="475.448" y="454.302" type="line"/>
      <point x="321.548" y="454.302" type="line"/>
      <point x="202.601" y="300.414" type="line"/>
      <point x="202.601" y="700" type="line"/>
      <point x="63.0109" y="700" type="line"/>
    </contour>
  </outline>
</glyph>
<glyph name="l" format="2">
  <advance width="267"/>
  <unicode hex="006C"/>
  <outline>
    <contour>
      <point x="63.0109" y="0" type="line"/>
      <point x="202.601" y="0" type="line"/>
      <point x="202.601" y="700" type="line"/>
      <point x="63.0109" y="700" type="line"/>
    </contour>
  </outline>
</glyph>
<glyph name="m" format="2">
  <advance width="837"/>
  <unicode hex="006D"/>
  <outline>
    <contour>
      <point x="63.0109" y="0" type="line"/>
      <point x="202.601" y="0" type="line"/>
      <point x="202.601" y="255.426" type="line" smooth="yes"/>
      <point x="202.601" y="307.681"/>
      <point x="225.697" y="355.872"/>
      <point x="282.412" y="355.872" type="curve" smooth="yes"/>
      <point x="335.47" y="355.872"/>
      <point x="349.385" y="318.285"/>
      <point x="349.385" y="268.101" type="curve" smooth="yes"/>
      <point x="349.385" y="0" type="line"/>
      <point x="488.975" y="0" type="line"/>
      <point x="488.975" y="261.276" type="line" smooth="yes"/>
      <point x="488.975" y="314.817"/>
      <point x="508.138" y="355.872"/>
      <point x="565.823" y="355.872" type="curve" smooth="yes"/>
      <point x="620.94" y="355.872"/>
      <point x="633.784" y="319.129"/>
      <point x="633.784" y="267.126" type="curve" smooth="yes"/>
      <point x="633.784" y="0" type="line"/>
      <point x="773.374" y="0" type="line"/>
      <point x="773.374" y="301.25" type="line" smooth="yes"/>
      <point x="773.374" y="391.769"/>
      <point x="719.524" y="465.027"/>
      <point x="603.348" y="465.027" type="curve" smooth="yes"/>
      <point x="537.328" y="465.027"/>
      <point x="494.847" y="445.367"/>
      <point x="455.226" y="407.745" type="curve"/>
      <point x="423.257" y="447.458"/>
      <point x="385.481" y="465.027"/>
      <point x="321.912" y="465.027" type="curve" smooth="yes"/>
      <point x="268.493" y="465.027"/>
      <point x="234.245" y="451.765"/>
      <point x="202.601" y="426.297" type="curve"/>
      <point x="202.601" y="454.302" type="line"/>
      <point x="63.0109" y="454.302" type="line"/>
    </contour>
  </outline>
</glyph>
<glyph name="n" format="2">
  <advance width="563"/>
  <unicode hex="006E"/>
  <outline>
    <contour>
      <point x="63.0109" y="0" type="line"/>
      <point x="202.601" y="0" type="line"/>
      <point x="202.601" y="254.451" type="line" smooth="yes"/>
      <point x="202.601" y="312.929"/>
      <point x="223.965" y="355.872"/>
      <point x="290.312" y="355.872" type="curve" smooth="yes"/>
      <point x="348.507" y="355.872"/>
      <point x="360.247" y="314.585"/>
      <point x="360.247" y="260.301" type="curve" smooth="yes"/>
      <point x="360.247" y="0" type="line"/>
      <point x="499.837" y="0" type="line"/>
      <point x="499.837" y="285.651" type="line" smooth="yes"/>
      <point x="499.837" y="323.428"/>
      <point x="498.304" y="366.626"/>
      <point x="470.489" y="403.605" type="curve" smooth="yes"/>
      <point x="438.286" y="446.419"/>
      <point x="386.064" y="465.027"/>
      <point x="327.836" y="465.027" type="curve" smooth="yes"/>
      <point x="271.628" y="465.027"/>
      <point x="235.348" y="448.743"/>
      <point x="202.601" y="421.22" type="curve"/>
      <point x="202.601" y="454.302" type="line"/>
      <point x="63.0109" y="454.302" type="line"/>
    </contour>
  </outline>
</glyph>
<glyph name="o" format="2">
  <advance width="560"/>
  <unicode hex="006F"/>
  <outline>
    <contour>
      <point x="279.124" y="-10.7249" type="curve" smooth="yes"/>
      <point x="448.726" y="-10.7249"/>
      <point x="523.212" y="94.9517"/>
      <point x="523.212" y="229.101" type="curve" smooth="yes"/>
      <point x="523.212" y="363.354"/>
      <point x="448.641" y="465.027"/>
      <point x="280.112" y="465.027" type="curve" smooth="yes"/>
      <point x="113.059" y="465.027"/>
      <point x="37.0109" y="360.787"/>
      <point x="37.0109" y="228.126" type="curve" smooth="yes"/>
      <point x="37.0109" y="92.3575"/>
      <point x="106.586" y="-10.7249"/>
    </contour>
    <contour>
      <point x="280.112" y="90.6299" type="curve" smooth="yes"/>
      <point x="207.442" y="90.6299"/>
      <point x="184.501" y="166.12"/>
      <point x="184.501" y="229.101" type="curve" smooth="yes"/>
      <point x="184.501" y="290.798"/>
      <point x="209.449" y="363.672"/>
      <point x="280.112" y="363.672" type="curve" smooth="yes"/>
      <point x="351.07" y="363.672"/>
      <point x="375.722" y="288.915"/>
      <point x="375.722" y="227.151" type="curve" smooth="yes"/>
      <point x="375.722" y="165.387"/>
      <point x="351.07" y="90.6299"/>
    </contour>
  </outline>
</glyph>
<glyph name="p" format="2">
  <advance width="577"/>
  <unicode hex="0070"/>
  <outline>
    <contour>
      <point x="63.0109" y="-212.548" type="line"/>
      <point x="202.601" y="-212.548" type="line"/>
      <point x="202.601" y="29.303" type="line"/>
      <point x="235.465" y="4.37053"/>
      <point x="273.688" y="-10.7249"/>
      <point x="324.874" y="-10.7249" type="curve" smooth="yes"/>
      <point x="477.664" y="-10.7249"/>
      <point x="539.337" y="120.657"/>
      <point x="539.337" y="229.101" type="curve" smooth="yes"/>
      <point x="539.337" y="338.388"/>
      <point x="476.984" y="465.027"/>
      <point x="324.874" y="465.027" type="curve" smooth="yes"/>
      <point x="272.634" y="465.027"/>
      <point x="234.778" y="450.568"/>
      <point x="202.601" y="424.364" type="curve"/>
      <point x="202.601" y="454.302" type="line"/>
      <point x="63.0109" y="454.302" type="line"/>
    </contour>
    <contour>
      <point x="296.237" y="90.6299" type="curve" smooth="yes" name="hr01"/>
      <point x="224.766" y="90.6299"/>
      <point x="199.639" y="165.982"/>
      <point x="199.639" y="228.126" type="curve" smooth="yes"/>
      <point x="199.639" y="288.991"/>
      <point x="226.526" y="363.672"/>
      <point x="296.237" y="363.672" type="curve" smooth="yes"/>
      <point x="367.624" y="363.672"/>
      <point x="391.847" y="289.26"/>
      <point x="391.847" y="227.151" type="curve" smooth="yes"/>
      <point x="391.847" y="165.387"/>
      <point x="367.195" y="90.6299"/>
    </contour>
  </outline>
</glyph>
<glyph name="q" format="2">
  <advance width="576"/>
  <unicode hex="0071"/>
  <outline>
    <contour>
      <point x="372.76" y="-212.548" type="line"/>
      <point x="512.35" y="-212.548" type="line"/>
      <point x="512.35" y="454.302" type="line"/>
      <point x="416.094" y="454.302" type="line"/>
      <point x="386.119" y="416.139" type="line"/>
      <point x="351.195" y="448.687"/>
      <point x="311.874" y="465.027"/>
      <point x="254.437" y="465.027" type="curve" smooth="yes"/>
      <point x="116.042" y="465.027"/>
      <point x="37.0109" y="357.261"/>
      <point x="37.0109" y="226.176" type="curve" smooth="yes"/>
      <point x="37.0109" y="96.8506"/>
      <point x="113.383" y="-10.7249"/>
      <point x="250.487" y="-10.7249" type="curve" smooth="yes"/>
      <point x="301.554" y="-10.7249"/>
      <point x="339.722" y="4.25536"/>
      <point x="372.76" y="28.8556" type="curve"/>
    </contour>
    <contour>
      <point x="280.112" y="90.6299" type="curve" smooth="yes"/>
      <point x="207.796" y="90.6299"/>
      <point x="184.501" y="165.342"/>
      <point x="184.501" y="228.126" type="curve" smooth="yes"/>
      <point x="184.501" y="289.217"/>
      <point x="210.089" y="363.672"/>
      <point x="280.112" y="363.672" type="curve" smooth="yes"/>
      <point x="351.067" y="363.672"/>
      <point x="375.722" y="288.921"/>
      <point x="375.722" y="227.151" type="curve" smooth="yes"/>
      <point x="375.722" y="165.037"/>
      <point x="351.496" y="90.6299"/>
    </contour>
  </outline>
</glyph>
<glyph name="r" format="2">
  <advance width="390"/>
  <unicode hex="0072"/>
  <outline>
    <contour>
      <point x="63.0109" y="0" type="line"/>
      <point x="202.601" y="0" type="line"/>
      <point x="202.601" y="223.251" type="line" smooth="yes"/>
      <point x="202.601" y="273.133"/>
      <point x="229.926" y="350.022"/>
      <point x="285.374" y="350.022" type="curve" smooth="yes"/>
      <point x="308.572" y="350.022"/>
      <point x="320.748" y="341.481"/>
      <point x="339.56" y="322.733" type="curve" smooth="yes"/>
      <point x="350.375" y="311.955" type="line"/>
      <point x="358.684" y="311.955" type="line"/>
      <point x="408.476" y="427.837" type="line"/>
      <point x="406.791" y="427.837" type="line"/>
      <point x="401.312" y="431.833" type="line" smooth="yes"/>
      <point x="374.326" y="451.517"/>
      <point x="351.349" y="465.027"/>
      <point x="310.062" y="465.027" type="curve" smooth="yes"/>
      <point x="260.041" y="465.027"/>
      <point x="226.48" y="444.284"/>
      <point x="200.626" y="417.334" type="curve"/>
      <point x="200.626" y="454.302" type="line"/>
      <point x="63.0109" y="454.302" type="line"/>
    </contour>
  </outline>
</glyph>
<glyph name="s" format="2">
  <advance width="484"/>
  <unicode hex="0073"/>
  <outline>
    <contour>
      <point x="449" y="369" type="line"/>
      <point x="423" y="438"/>
      <point x="364" y="469"/>
      <point x="261" y="469" type="curve" smooth="yes"/>
      <point x="126" y="469"/>
      <point x="49" y="416"/>
      <point x="49" y="323" type="curve" smooth="yes"/>
      <point x="49" y="287"/>
      <point x="63" y="259"/>
      <point x="94" y="233" type="curve" smooth="yes"/>
      <point x="117" y="214"/>
      <point x="143" y="204"/>
      <point x="228" y="184" type="curve" smooth="yes"/>
      <point x="282" y="171"/>
      <point x="295" y="162"/>
      <point x="295" y="136" type="curve" smooth="yes"/>
      <point x="295" y="107"/>
      <point x="270" y="88"/>
      <point x="234" y="88" type="curve" smooth="yes"/>
      <point x="192" y="88"/>
      <point x="165" y="109"/>
      <point x="146" y="158" type="curve"/>
      <point x="14" y="120" type="line"/>
      <point x="43" y="26"/>
      <point x="101" y="-12"/>
      <point x="215" y="-12" type="curve" smooth="yes"/>
      <point x="361" y="-12"/>
      <point x="450" y="49"/>
      <point x="450" y="149" type="curve" smooth="yes"/>
      <point x="450" y="190"/>
      <point x="434" y="222"/>
      <point x="401" y="247" type="curve" smooth="yes"/>
      <point x="375" y="268"/>
      <point x="348" y="276"/>
      <point x="262" y="289" type="curve" smooth="yes"/>
      <point x="215" y="296"/>
      <point x="196" y="310"/>
      <point x="196" y="336" type="curve" smooth="yes"/>
      <point x="196" y="360"/>
      <point x="218" y="376"/>
      <point x="252" y="376" type="curve" smooth="yes"/>
      <point x="291" y="376"/>
      <point x="307" y="364"/>
      <point x="320" y="326" type="curve"/>
    </contour>
  </outline>
</glyph>
<glyph name="t" format="2">
  <advance width="353"/>
  <unicode hex="0074"/>
  <outline>
    <contour>
      <point x="318.029" y="3.41585" type="line"/>
      <point x="322.094" y="3.41585" type="line"/>
      <point x="341.511" y="110.056" type="line"/>
      <point x="335.113" y="110.056" type="line"/>
      <point x="319.872" y="105.831" type="line" smooth="yes"/>
      <point x="307.28" y="102.339"/>
      <point x="295.89" y="99.4049"/>
      <point x="285.674" y="99.4049" type="curve" smooth="yes"/>
      <point x="219.401" y="99.4049"/>
      <point x="215.738" y="137.212"/>
      <point x="215.738" y="196.926" type="curve" smooth="yes"/>
      <point x="215.738" y="349.047" type="line"/>
      <point x="324.186" y="349.047" type="line"/>
      <point x="329.3" y="349.047" type="line"/>
      <point x="329.3" y="454.302" type="line"/>
      <point x="324.186" y="454.302" type="line"/>
      <point x="210.624" y="454.302" type="line"/>
      <point x="215.738" y="454.302" type="line"/>
      <point x="215.738" y="607.789" type="line"/>
      <point x="208.872" y="607.789" type="line"/>
      <point x="79.5101" y="560.612" type="line"/>
      <point x="76.1481" y="560.612" type="line"/>
      <point x="76.1481" y="454.302" type="line"/>
      <point x="81.2623" y="454.302" type="line"/>
      <point x="13.125" y="454.302" type="line"/>
      <point x="8.01088" y="454.302" type="line"/>
      <point x="8.01088" y="349.047" type="line"/>
      <point x="13.1251" y="349.047" type="line"/>
      <point x="76.1481" y="349.047" type="line"/>
      <point x="76.1481" y="186.201" type="line" smooth="yes"/>
      <point x="76.1481" y="92.3838"/>
      <point x="86.2383" y="-6.82494"/>
      <point x="235.312" y="-6.82494" type="curve" smooth="yes"/>
      <point x="262.173" y="-6.82494"/>
      <point x="287.223" y="-2.51336"/>
      <point x="311.448" y="2.14932" type="curve" smooth="yes"/>
    </contour>
  </outline>
</glyph>
<glyph name="u" format="2">
  <advance width="563"/>
  <unicode hex="0075"/>
  <outline>
    <contour>
      <point x="360.247" y="0" type="line"/>
      <point x="499.837" y="0" type="line"/>
      <point x="499.837" y="454.302" type="line"/>
      <point x="360.247" y="454.302" type="line"/>
      <point x="360.247" y="199.851" type="line" smooth="yes"/>
      <point x="360.247" y="144.834"/>
      <point x="339.108" y="98.4299"/>
      <point x="275.499" y="98.4299" type="curve" smooth="yes"/>
      <point x="216.952" y="98.4299"/>
      <point x="202.601" y="145.835"/>
      <point x="202.601" y="199.851" type="curve" smooth="yes"/>
      <point x="202.601" y="454.302" type="line"/>
      <point x="63.0109" y="454.302" type="line"/>
      <point x="63.0109" y="180.351" type="line" smooth="yes"/>
      <point x="63.0109" y="143.668"/>
      <point x="64.4089" y="94.018"/>
      <point x="88.9163" y="56.9748" type="curve" smooth="yes"/>
      <point x="119.079" y="11.3839"/>
      <point x="176.567" y="-10.7249"/>
      <point x="235.999" y="-10.7249" type="curve" smooth="yes"/>
      <point x="291.688" y="-10.7249"/>
      <point x="327.56" y="5.92535"/>
      <point x="360.247" y="32.8761" type="curve"/>
    </contour>
  </outline>
</glyph>
<glyph name="v" format="2">
  <advance width="476"/>
  <unicode hex="0076"/>
  <outline>
    <contour>
      <point x="158" y="0" type="line"/>
      <point x="300" y="0" type="line"/>
      <point x="491" y="457" type="line"/>
      <point x="351" y="457" type="line"/>
      <point x="247" y="203" type="line"/>
      <point x="159" y="457" type="line"/>
      <point x="4" y="457" type="line"/>
    </contour>
  </outline>
</glyph>
<glyph name="w" format="2">
  <advance width="769"/>
  <unicode hex="0077"/>
  <outline>
    <contour>
      <point x="766" y="457" type="line"/>
      <point x="623" y="457" type="line"/>
      <point x="540" y="189" type="line"/>
      <point x="463" y="457" type="line"/>
      <point x="326" y="457" type="line"/>
      <point x="240" y="193" type="line"/>
      <point x="170" y="457" type="line"/>
      <point x="15" y="457" type="line"/>
      <point x="142" y="0" type="line"/>
      <point x="294" y="0" type="line"/>
      <point x="382" y="275" type="line"/>
      <point x="458" y="0" type="line"/>
      <point x="610" y="0" type="line"/>
    </contour>
  </outline>
</glyph>
<glyph name="x" format="2">
  <advance width="472"/>
  <unicode hex="0078"/>
  <outline>
    <contour>
      <point x="-14.0887" y="0" type="line"/>
      <point x="140.513" y="0" type="line"/>
      <point x="229.676" y="139.461" type="line"/>
      <point x="312.66" y="0" type="line"/>
      <point x="470.648" y="0" type="line"/>
      <point x="313.988" y="245.495" type="line"/>
      <point x="458.417" y="454.302" type="line"/>
      <point x="310.109" y="454.302" type="line"/>
      <point x="241.796" y="350.601" type="line"/>
      <point x="180.315" y="454.302" type="line"/>
      <point x="23.2442" y="454.302" type="line"/>
      <point x="159.208" y="242.985" type="line"/>
    </contour>
  </outline>
</glyph>
<glyph name="y" format="2">
  <advance width="477"/>
  <unicode hex="0079"/>
  <outline>
    <contour>
      <point x="-13.8116" y="-210.083" type="line"/>
      <point x="-9.80056" y="-210.083" type="line"/>
      <point x="-3.40882" y="-211.359" type="line" smooth="yes"/>
      <point x="17.0857" y="-215.451"/>
      <point x="38.7783" y="-219.373"/>
      <point x="61.9747" y="-219.373" type="curve" smooth="yes"/>
      <point x="159.12" y="-219.373"/>
      <point x="200.75" y="-173.447"/>
      <point x="239.229" y="-107.448" type="curve" smooth="yes"/>
      <point x="260.715" y="-70.5974"/>
      <point x="277.395" y="-34.2933"/>
      <point x="293.118" y="1.69115" type="curve" smooth="yes"/>
      <point x="490.886" y="454.302" type="line"/>
      <point x="352.533" y="454.302" type="line"/>
      <point x="244.57" y="193.929" type="line"/>
      <point x="148.997" y="454.302" type="line"/>
      <point x="-2.08664" y="454.302" type="line"/>
      <point x="165.184" y="26.4955" type="line"/>
      <point x="155.189" y="3.78213"/>
      <point x="145.105" y="-18.9313"/>
      <point x="135.021" y="-41.6446" type="curve" smooth="yes"/>
      <point x="116.858" y="-82.247"/>
      <point x="86.5645" y="-113.143"/>
      <point x="41.2373" y="-113.143" type="curve" smooth="yes"/>
      <point x="23.7598" y="-113.143"/>
      <point x="5.31999" y="-107.803"/>
      <point x="-14.3702" y="-101.904" type="curve" smooth="yes"/>
      <point x="-30.2058" y="-97.1601" type="line"/>
      <point x="-36.6859" y="-97.1601" type="line"/>
    </contour>
  </outline>
</glyph>
<glyph name="z" format="2">
  <advance width="461"/>
  <unicode hex="007A"/>
  <outline>
    <contour>
      <point x="12.0109" y="0" type="line"/>
      <point x="447.85" y="0" type="line"/>
      <point x="447.85" y="105.255" type="line"/>
      <point x="442.736" y="105.255" type="line"/>
      <point x="196.992" y="105.255" type="line"/>
      <point x="436" y="359.029" type="line"/>
      <point x="436" y="454.302" type="line"/>
      <point x="37.6858" y="454.302" type="line"/>
      <point x="37.6858" y="349.047" type="line"/>
      <point x="42.7999" y="349.047" type="line"/>
      <point x="256.882" y="349.047" type="line"/>
      <point x="12.0109" y="90.409" type="line"/>
    </contour>
  </outline>
</glyph>
<glyph name="braceleft" format="2">
  <advance width="297"/>
  <unicode hex="007B"/>
  <outline>
    <contour>
      <point x="277.06" y="-83.2866" type="line"/>
      <point x="281.838" y="-83.2866" type="line"/>
      <point x="281.838" y="-45.1083" type="line"/>
      <point x="277.415" y="-45.1083" type="line"/>
      <point x="268.973" y="-44.0115" type="line" smooth="yes"/>
      <point x="202.171" y="-35.3332"/>
      <point x="196.913" y="1.04158"/>
      <point x="196.913" y="64.3273" type="curve" smooth="yes"/>
      <point x="196.913" y="176.451" type="line" smooth="yes"/>
      <point x="196.913" y="235.688"/>
      <point x="188.572" y="283.902"/>
      <point x="121.672" y="309.483" type="curve"/>
      <point x="196.13" y="345.779"/>
      <point x="196.913" y="386.031"/>
      <point x="196.913" y="459.199" type="curve" smooth="yes"/>
      <point x="196.913" y="523.549" type="line" smooth="yes"/>
      <point x="196.913" y="584.647"/>
      <point x="199.095" y="648.576"/>
      <point x="268.438" y="655.246" type="curve" smooth="yes"/>
      <point x="277.247" y="656.093" type="line"/>
      <point x="281.838" y="656.093" type="line"/>
      <point x="281.838" y="696.1" type="line"/>
      <point x="237.262" y="696.1" type="line" smooth="yes"/>
      <point x="94.4182" y="696.1"/>
      <point x="84.0611" y="618.889"/>
      <point x="84.0611" y="523.549" type="curve" smooth="yes"/>
      <point x="84.0611" y="442.624" type="line"/>
      <point x="84.0614" y="439.546" type="line" smooth="yes"/>
      <point x="84.0614" y="426.876"/>
      <point x="84.0217" y="413.682"/>
      <point x="82.9729" y="401.16" type="curve" smooth="yes"/>
      <point x="79.6273" y="361.212"/>
      <point x="67.0146" y="328.735"/>
      <point x="20.249" y="326.566" type="curve" smooth="yes"/>
      <point x="10.8899" y="326.132" type="line"/>
      <point x="6.04894" y="326.132" type="line"/>
      <point x="6.04894" y="287.183" type="line"/>
      <point x="10.8411" y="287.183" type="line"/>
      <point x="20.0931" y="286.665" type="line" smooth="yes"/>
      <point x="83.631" y="283.105"/>
      <point x="84.0611" y="256.549"/>
      <point x="84.0611" y="194.976" type="curve" smooth="yes"/>
      <point x="84.0611" y="49.7024" type="line" smooth="yes"/>
      <point x="84.0611" y="-39.0509"/>
      <point x="137.922" y="-84.8243"/>
      <point x="241.212" y="-84.8243" type="curve" smooth="yes"/>
      <point x="250.015" y="-84.8243"/>
      <point x="259.053" y="-84.348"/>
      <point x="267.841" y="-83.83" type="curve" smooth="yes"/>
    </contour>
  </outline>
</glyph>
<glyph name="bar" format="2">
  <advance width="583"/>
  <unicode hex="007C"/>
  <outline>
    <contour>
      <point x="256" y="667" type="line"/>
      <point x="256" y="-167" type="line"/>
      <point x="326" y="-167" type="line"/>
      <point x="326" y="667" type="line"/>
    </contour>
  </outline>
</glyph>
<glyph name="braceright" format="2">
  <advance width="297"/>
  <unicode hex="007D"/>
  <outline>
    <contour>
      <point x="15.0489" y="-83.2566" type="line"/>
      <point x="19.8099" y="-83.2566" type="line"/>
      <point x="28.9935" y="-83.8278" type="line" smooth="yes"/>
      <point x="37.7951" y="-84.3753"/>
      <point x="46.8559" y="-84.8243"/>
      <point x="55.6749" y="-84.8243" type="curve" smooth="yes"/>
      <point x="158.965" y="-84.8243"/>
      <point x="212.825" y="-39.0509"/>
      <point x="212.825" y="49.7024" type="curve" smooth="yes"/>
      <point x="212.825" y="194.976" type="line" smooth="yes"/>
      <point x="212.825" y="256.549"/>
      <point x="213.256" y="283.105"/>
      <point x="276.793" y="286.665" type="curve" smooth="yes"/>
      <point x="286.045" y="287.183" type="line"/>
      <point x="290.838" y="287.183" type="line"/>
      <point x="290.838" y="326.132" type="line"/>
      <point x="285.997" y="326.132" type="line"/>
      <point x="276.638" y="326.566" type="line" smooth="yes"/>
      <point x="212.531" y="329.539"/>
      <point x="212.825" y="391.251"/>
      <point x="212.825" y="439.546" type="curve" smooth="yes"/>
      <point x="212.825" y="442.624" type="line"/>
      <point x="212.825" y="523.549" type="line" smooth="yes"/>
      <point x="212.825" y="618.766"/>
      <point x="202.584" y="696.1"/>
      <point x="59.6249" y="696.1" type="curve" smooth="yes"/>
      <point x="15.0489" y="696.1" type="line"/>
      <point x="15.0489" y="655.836" type="line"/>
      <point x="19.7834" y="655.836" type="line"/>
      <point x="28.9088" y="655.22" type="line" smooth="yes"/>
      <point x="98.7821" y="650.506"/>
      <point x="99.9736" y="576.821"/>
      <point x="99.9736" y="523.549" type="curve" smooth="yes"/>
      <point x="99.9736" y="459.199" type="line" smooth="yes"/>
      <point x="99.9736" y="385.963"/>
      <point x="100.757" y="345.704"/>
      <point x="175.819" y="309.388" type="curve"/>
      <point x="108.057" y="283.431"/>
      <point x="99.9736" y="236.756"/>
      <point x="99.9736" y="176.451" type="curve" smooth="yes"/>
      <point x="99.9736" y="64.3273" type="line" smooth="yes"/>
      <point x="99.9736" y="1.04158"/>
      <point x="94.7156" y="-35.3332"/>
      <point x="27.914" y="-44.0115" type="curve" smooth="yes"/>
      <point x="19.4711" y="-45.1083" type="line"/>
      <point x="15.0489" y="-45.1083" type="line"/>
    </contour>
  </outline>
</glyph>
<glyph name="asciitilde" format="2">
  <advance width="521"/>
  <unicode hex="007E"/>
  <outline>
    <contour>
      <point x="68" y="580" type="line"/>
      <point x="97" y="608"/>
      <point x="128" y="621"/>
      <point x="163" y="621" type="curve" smooth="yes"/>
      <point x="184" y="621"/>
      <point x="205" y="616"/>
      <point x="252" y="600" type="curve" smooth="yes"/>
      <point x="295" y="585"/>
      <point x="322" y="579" name="hr01"/>
      <point x="346" y="579" type="curve" smooth="yes"/>
      <point x="391" y="579"/>
      <point x="433" y="598"/>
      <point x="475" y="636" type="curve"/>
      <point x="459" y="706" type="line"/>
      <point x="423" y="670"/>
      <point x="390" y="654"/>
      <point x="351" y="654" type="curve" smooth="yes"/>
      <point x="328" y="654"/>
      <point x="309" y="658"/>
      <point x="259" y="675" type="curve" smooth="yes"/>
      <point x="216" y="690"/>
      <point x="189" y="696" name="hr02"/>
      <point x="168" y="696" type="curve" smooth="yes"/>
      <point x="127" y="696"/>
      <point x="91" y="680"/>
      <point x="43" y="642" type="curve"/>
    </contour>
  </outline>
</glyph>
<glyph name="exclamdown" format="2">
  <advance width="293"/>
  <unicode hex="00A1"/>
  <outline>
    <contour>
      <point x="223" y="-142" type="line"/>
      <point x="223" y="47" type="line"/>
      <point x="195" y="304" type="line"/>
      <point x="99" y="304" type="line"/>
      <point x="71" y="47" type="line"/>
      <point x="71" y="-142" type="line"/>
    </contour>
    <contour>
      <point x="145" y="541" type="curve" smooth="yes"/>
      <point x="98" y="541"/>
      <point x="62" y="505"/>
      <point x="62" y="458" type="curve" smooth="yes"/>
      <point x="62" y="411"/>
      <point x="98" y="375"/>
      <point x="145" y="375" type="curve" smooth="yes"/>
      <point x="192" y="375"/>
      <point x="228" y="411"/>
      <point x="228" y="457" type="curve" smooth="yes"/>
      <point x="228" y="505"/>
      <point x="193" y="541"/>
    </contour>
  </outline>
</glyph>
<glyph name="cent" format="2">
  <advance width="554"/>
  <unicode hex="00A2"/>
  <outline>
    <contour>
      <point x="383" y="254" type="line"/>
      <point x="361" y="206"/>
      <point x="349" y="193"/>
      <point x="314" y="185" type="curve"/>
      <point x="314" y="483" type="line"/>
      <point x="351" y="482"/>
      <point x="367" y="466"/>
      <point x="383" y="416" type="curve"/>
      <point x="503" y="451" type="line"/>
      <point x="480" y="534"/>
      <point x="424" y="570"/>
      <point x="314" y="572" type="curve"/>
      <point x="314" y="640" type="line"/>
      <point x="274" y="640" type="line"/>
      <point x="274" y="572" type="line"/>
      <point x="212" y="566"/>
      <point x="180" y="556"/>
      <point x="145" y="532" type="curve" smooth="yes"/>
      <point x="85" y="490"/>
      <point x="55" y="423"/>
      <point x="55" y="333" type="curve" smooth="yes"/>
      <point x="55" y="184"/>
      <point x="133" y="99"/>
      <point x="274" y="96" type="curve"/>
      <point x="274" y="7" type="line"/>
      <point x="314" y="7" type="line"/>
      <point x="314" y="96" type="line"/>
      <point x="405" y="99"/>
      <point x="471" y="140"/>
      <point x="503" y="213" type="curve"/>
    </contour>
    <contour>
      <point x="274" y="187" type="line"/>
      <point x="219" y="201"/>
      <point x="195" y="244"/>
      <point x="195" y="332" type="curve" smooth="yes"/>
      <point x="195" y="378"/>
      <point x="203" y="415"/>
      <point x="218" y="444" type="curve"/>
      <point x="232" y="468"/>
      <point x="246" y="478"/>
      <point x="274" y="483" type="curve"/>
    </contour>
  </outline>
</glyph>
<glyph name="sterling" format="2">
  <advance width="578"/>
  <unicode hex="00A3"/>
  <outline>
    <contour>
      <point x="31.0489" y="0" type="line"/>
      <point x="526.062" y="0" type="line"/>
      <point x="526.062" y="107.205" type="line"/>
      <point x="520.986" y="107.205" type="line"/>
      <point x="230.299" y="107.205" type="line"/>
      <point x="277.742" y="160.29"/>
      <point x="286.447" y="230.557"/>
      <point x="294.897" y="298.348" type="curve"/>
      <point x="459.761" y="298.348" type="line"/>
      <point x="464.837" y="298.348" type="line"/>
      <point x="464.837" y="399.702" type="line"/>
      <point x="459.761" y="399.702" type="line"/>
      <point x="303.823" y="399.702" type="line"/>
      <point x="304.85" y="410.285" type="line" smooth="yes"/>
      <point x="306.047" y="422.781"/>
      <point x="307.315" y="436.251"/>
      <point x="309.172" y="449.97" type="curve" smooth="yes"/>
      <point x="317.023" y="507.971"/>
      <point x="335.23" y="577.195"/>
      <point x="407.424" y="577.195" type="curve" smooth="yes"/>
      <point x="442.866" y="577.195"/>
      <point x="466.027" y="563.084"/>
      <point x="493.713" y="537.913" type="curve" smooth="yes"/>
      <point x="507.332" y="525.531" type="line"/>
      <point x="515.737" y="525.531" type="line"/>
      <point x="536.781" y="637.975" type="line"/>
      <point x="534.302" y="637.975" type="line"/>
      <point x="528.832" y="641.088" type="line" smooth="yes"/>
      <point x="484.92" y="666.079"/>
      <point x="444.056" y="679.525"/>
      <point x="388.661" y="679.525" type="curve" smooth="yes"/>
      <point x="272.967" y="679.525"/>
      <point x="200.194" y="611.598"/>
      <point x="178.575" y="502.161" type="curve" smooth="yes" name="hr01"/>
      <point x="172.608" y="471.959" name="hr02"/>
      <point x="169.945" y="442.013"/>
      <point x="167.468" y="414.171" type="curve" smooth="yes"/>
      <point x="166.165" y="399.702" type="line"/>
      <point x="83.5249" y="399.702" type="line"/>
      <point x="78.4487" y="399.702" type="line"/>
      <point x="78.4487" y="298.348" type="line"/>
      <point x="83.5249" y="298.348" type="line"/>
      <point x="156.778" y="298.348" type="line"/>
      <point x="154.399" y="268.357"/>
      <point x="151.091" y="237.357"/>
      <point x="145.058" y="208.757" type="curve" smooth="yes"/>
      <point x="132.089" y="147.271"/>
      <point x="112.617" y="107.387"/>
      <point x="45.4838" y="105.249" type="curve" smooth="yes"/>
      <point x="35.9634" y="104.946" type="line"/>
      <point x="31.0489" y="104.946" type="line"/>
    </contour>
  </outline>
</glyph>
<glyph name="currency" format="2">
  <advance width="539"/>
  <unicode hex="00A4"/>
  <outline>
    <contour>
      <point x="72.6084" y="-5.66854" type="line"/>
      <point x="79.905" y="-5.66854" type="line"/>
      <point x="178.252" y="93.3744" type="line"/>
      <point x="205.938" y="77.6183"/>
      <point x="232.259" y="69.2244"/>
      <point x="270.049" y="69.2244" type="curve" smooth="yes"/>
      <point x="305.189" y="69.2244"/>
      <point x="329.984" y="76.3926"/>
      <point x="355.308" y="91.9185" type="curve"/>
      <point x="451.878" y="-6.31683" type="line"/>
      <point x="459.019" y="-6.31683" type="line"/>
      <point x="513.072" y="45.6722" type="line"/>
      <point x="413.246" y="146.205" type="line"/>
      <point x="413.878" y="146.205" type="line"/>
      <point x="432.851" y="174.879"/>
      <point x="441.025" y="202.013"/>
      <point x="441.025" y="233.976" type="curve" smooth="yes"/>
      <point x="441.025" y="266.365"/>
      <point x="432.568" y="293.586"/>
      <point x="413.865" y="322.629" type="curve"/>
      <point x="413.182" y="322.629" type="line"/>
      <point x="510.03" y="419.254" type="line"/>
      <point x="457.327" y="471.289" type="line"/>
      <point x="450.213" y="471.289" type="line"/>
      <point x="353.844" y="377.111" type="line"/>
      <point x="327.78" y="391.145"/>
      <point x="302.372" y="399.702"/>
      <point x="267.087" y="399.702" type="curve" smooth="yes" name="hr01"/>
      <point x="230.883" y="399.702"/>
      <point x="205.753" y="390.47"/>
      <point x="179.462" y="376.209" type="curve"/>
      <point x="82.0964" y="473.313" type="line"/>
      <point x="74.9454" y="473.313" type="line"/>
      <point x="20.128" y="419.136" type="line"/>
      <point x="120.914" y="322.581" type="line"/>
      <point x="120.196" y="322.581" type="line"/>
      <point x="101.64" y="294.6"/>
      <point x="93.1487" y="268.382"/>
      <point x="93.1487" y="236.901" type="curve" smooth="yes"/>
      <point x="93.1487" y="203.666"/>
      <point x="102.677" y="177.051"/>
      <point x="120.343" y="147.535" type="curve"/>
      <point x="121.168" y="147.535" type="line"/>
      <point x="20.1894" y="49.9683" type="line"/>
    </contour>
    <contour>
      <point x="269.062" y="135.48" type="curve" smooth="yes"/>
      <point x="211.829" y="135.48"/>
      <point x="173.413" y="184.097"/>
      <point x="173.413" y="236.901" type="curve" smooth="yes"/>
      <point x="173.413" y="287.216"/>
      <point x="213.864" y="333.447"/>
      <point x="268.074" y="333.447" type="curve" smooth="yes"/>
      <point x="323.236" y="333.447"/>
      <point x="361.748" y="286.027"/>
      <point x="361.748" y="234.951" type="curve" smooth="yes"/>
      <point x="361.748" y="183.544"/>
      <point x="324.66" y="135.48"/>
    </contour>
  </outline>
</glyph>
<glyph name="yen" format="2">
  <advance width="609"/>
  <unicode hex="00A5"/>
  <outline>
    <contour>
      <point x="228.273" y="0" type="line"/>
      <point x="370.75" y="0" type="line"/>
      <point x="370.75" y="239.848" type="line"/>
      <point x="365.674" y="239.848" type="line"/>
      <point x="563.173" y="239.848" type="line"/>
      <point x="568.249" y="239.848" type="line"/>
      <point x="568.249" y="310.003" type="line"/>
      <point x="563.173" y="310.003" type="line"/>
      <point x="379.075" y="310.003" type="line"/>
      <point x="386.662" y="329.924"/>
      <point x="403.358" y="356.887"/>
      <point x="413.919" y="372.447" type="curve"/>
      <point x="563.173" y="372.447" type="line"/>
      <point x="568.249" y="372.447" type="line"/>
      <point x="568.249" y="441.627" type="line"/>
      <point x="563.173" y="441.627" type="line"/>
      <point x="452.423" y="441.627" type="line"/>
      <point x="456.746" y="441.627" type="line"/>
      <point x="595.983" y="667.825" type="line"/>
      <point x="448.186" y="667.825" type="line"/>
      <point x="307.6" y="431.946" type="line"/>
      <point x="170.689" y="667.825" type="line"/>
      <point x="3.18413" y="667.825" type="line"/>
      <point x="139.459" y="441.627" type="line"/>
      <point x="143.807" y="441.627" type="line"/>
      <point x="44.7374" y="441.627" type="line"/>
      <point x="39.6613" y="441.627" type="line"/>
      <point x="39.6613" y="372.447" type="line"/>
      <point x="44.7374" y="372.447" type="line"/>
      <point x="182.167" y="372.447" type="line"/>
      <point x="193.042" y="356.492"/>
      <point x="208.778" y="330.367"/>
      <point x="216.073" y="310.003" type="curve"/>
      <point x="44.7374" y="310.003" type="line"/>
      <point x="39.6613" y="310.003" type="line"/>
      <point x="39.6613" y="239.848" type="line"/>
      <point x="44.7374" y="239.848" type="line"/>
      <point x="233.349" y="239.848" type="line"/>
      <point x="228.273" y="239.848" type="line"/>
    </contour>
  </outline>
</glyph>
<glyph name="brokenbar" format="2">
  <advance width="583"/>
  <unicode hex="00A6"/>
  <outline>
    <contour>
      <point x="217" y="667" type="line"/>
      <point x="217" y="314" type="line"/>
      <point x="366" y="314" type="line"/>
      <point x="366" y="667" type="line"/>
    </contour>
    <contour>
      <point x="217" y="153" type="line"/>
      <point x="217" y="-167" type="line"/>
      <point x="366" y="-167" type="line"/>
      <point x="366" y="153" type="line"/>
    </contour>
  </outline>
</glyph>
<glyph name="section" format="2">
  <advance width="579"/>
  <unicode hex="00A7"/>
  <outline>
    <contour>
      <point x="34.8426" y="9.91046" type="line"/>
      <point x="31.8081" y="9.91046" type="line"/>
      <point x="33.3789" y="3.09981" type="line" smooth="yes"/>
      <point x="62.0104" y="-121.046"/>
      <point x="150.328" y="-170.624"/>
      <point x="276.112" y="-170.624" type="curve" smooth="yes"/>
      <point x="411.082" y="-170.624"/>
      <point x="513.249" y="-86.2435"/>
      <point x="513.249" y="32.1526" type="curve" smooth="yes"/>
      <point x="513.249" y="74.4136"/>
      <point x="501.05" y="100.779"/>
      <point x="473.97" y="135.086" type="curve"/>
      <point x="508.649" y="173.018" name="hr01"/>
      <point x="532.012" y="212.683"/>
      <point x="532.012" y="262.251" type="curve" smooth="yes"/>
      <point x="532.012" y="368.847"/>
      <point x="418.162" y="402.498"/>
      <point x="334.423" y="428.042" type="curve" smooth="yes"/>
      <point x="324.27" y="431.139"/>
      <point x="313.964" y="434.336"/>
      <point x="303.666" y="437.882" type="curve" smooth="yes"/>
      <point x="263.43" y="451.736"/>
      <point x="228.85" y="468.96"/>
      <point x="228.85" y="517.699" type="curve" smooth="yes"/>
      <point x="228.85" y="562.063"/>
      <point x="256.865" y="586.945"/>
      <point x="303.761" y="586.945" type="curve" smooth="yes"/>
      <point x="359.607" y="586.945"/>
      <point x="381.332" y="555.625"/>
      <point x="394.897" y="504.013" type="curve" smooth="yes"/>
      <point x="398.039" y="492.058" type="line"/>
      <point x="405.417" y="492.058" type="line"/>
      <point x="516.561" y="553.931" type="line"/>
      <point x="518.837" y="553.931" type="line"/>
      <point x="516.35" y="560.469" type="line" smooth="yes"/>
      <point x="481.036" y="653.322"/>
      <point x="402.193" y="682.45"/>
      <point x="307.711" y="682.45" type="curve" smooth="yes"/>
      <point x="185.234" y="682.45"/>
      <point x="92.2987" y="614.494"/>
      <point x="92.2987" y="504.049" type="curve" smooth="yes"/>
      <point x="92.2987" y="473.772"/>
      <point x="100.532" y="450.654"/>
      <point x="112.795" y="423.191" type="curve"/>
      <point x="113.969" y="423.191" type="line"/>
      <point x="72.1897" y="384.253"/>
      <point x="50.8239" y="344.799"/>
      <point x="50.8239" y="291.5" type="curve" smooth="yes"/>
      <point x="50.8239" y="239.037"/>
      <point x="76.2929" y="184.612"/>
      <point x="127.003" y="150.015" type="curve" smooth="yes"/>
      <point x="160.613" y="127.086"/>
      <point x="256.578" y="96.1614"/>
      <point x="296.937" y="83.3843" type="curve" smooth="yes"/>
      <point x="303.959" y="81.1767" type="line" smooth="yes"/>
      <point x="313.262" y="78.2582"/>
      <point x="321.63" y="75.5553"/>
      <point x="329.432" y="72.6516" type="curve" smooth="yes"/>
      <point x="357.747" y="62.1141"/>
      <point x="367.81" y="49.4672"/>
      <point x="367.81" y="17.5277" type="curve" smooth="yes"/>
      <point x="367.81" y="-33.8184"/>
      <point x="329.97" y="-67.3188"/>
      <point x="275.124" y="-67.3188" type="curve" smooth="yes"/>
      <point x="201.684" y="-67.3188"/>
      <point x="175.032" y="-18.6654"/>
      <point x="163.482" y="47.1478" type="curve" smooth="yes"/>
      <point x="161.475" y="58.5831" type="line"/>
      <point x="154.564" y="58.5831" type="line"/>
    </contour>
    <contour>
      <point x="189.975" y="353.202" type="line"/>
      <point x="225.243" y="337.68"/>
      <point x="261.664" y="324.705"/>
      <point x="298.397" y="313.107" type="curve" smooth="yes"/>
      <point x="319.757" y="306.353"/>
      <point x="341.131" y="299.427"/>
      <point x="361.09" y="289.104" type="curve" smooth="yes"/>
      <point x="385.142" y="276.663"/>
      <point x="401.385" y="259.963"/>
      <point x="401.385" y="233.976" type="curve" smooth="yes"/>
      <point x="401.385" y="214.121"/>
      <point x="392.591" y="197.597"/>
      <point x="379.553" y="182.279" type="curve"/>
      <point x="354.19" y="192.792"/>
      <point x="332.079" y="199.773"/>
      <point x="305.929" y="208.539" type="curve" smooth="yes"/>
      <point x="299.682" y="210.633"/>
      <point x="293.445" y="212.728"/>
      <point x="287.198" y="214.85" type="curve" smooth="yes"/>
      <point x="280.517" y="217.104" type="line" smooth="yes"/>
      <point x="268.326" y="221.212"/>
      <point x="255.151" y="225.747"/>
      <point x="242.151" y="231.016" type="curve" smooth="yes"/>
      <point x="206.079" y="245.639"/>
      <point x="176.513" y="267.781"/>
      <point x="176.513" y="311" type="curve" smooth="yes"/>
      <point x="176.513" y="328.987"/>
      <point x="181.711" y="342.073"/>
      <point x="191.51" y="355.269" type="curve"/>
    </contour>
  </outline>
</glyph>
<glyph name="dieresis" format="2">
  <advance width="516"/>
  <unicode hex="00A8"/>
  <outline>
    <contour>
      <point x="346.786" y="534.296" type="curve" smooth="yes"/>
      <point x="393.909" y="534.296"/>
      <point x="423.95" y="568.501"/>
      <point x="423.95" y="603.498" type="curve" smooth="yes"/>
      <point x="423.95" y="638.079"/>
      <point x="395.297" y="672.7"/>
      <point x="347.774" y="672.7" type="curve" smooth="yes"/>
      <point x="301.193" y="672.7"/>
      <point x="271.598" y="639.002"/>
      <point x="271.598" y="604.473" type="curve" smooth="yes"/>
      <point x="271.598" y="570.31"/>
      <point x="297.965" y="534.296"/>
    </contour>
    <contour>
      <point x="78.0489" y="604.473" type="curve" smooth="yes"/>
      <point x="78.0489" y="569.868"/>
      <point x="105.79" y="534.296"/>
      <point x="154.225" y="534.296" type="curve" smooth="yes"/>
      <point x="201.748" y="534.296"/>
      <point x="230.401" y="568.916"/>
      <point x="230.401" y="603.498" type="curve" smooth="yes"/>
      <point x="230.401" y="637.227"/>
      <point x="202.536" y="672.7"/>
      <point x="155.212" y="672.7" type="curve" smooth="yes"/>
      <point x="108.525" y="672.7"/>
      <point x="78.0489" y="639.787"/>
    </contour>
  </outline>
</glyph>
<glyph name="copyright" format="2">
  <advance width="771"/>
  <unicode hex="00A9"/>
  <outline>
    <contour>
      <point x="28.0489" y="333.425" type="curve" smooth="yes"/>
      <point x="28.0489" y="159.652"/>
      <point x="171.76" y="-13.6499"/>
      <point x="385.661" y="-13.6499" type="curve" smooth="yes"/>
      <point x="599.716" y="-13.6499"/>
      <point x="742.286" y="159.876"/>
      <point x="742.286" y="333.425" type="curve" smooth="yes"/>
      <point x="742.286" y="503.015"/>
      <point x="602.259" y="681.475" name="hr01"/>
      <point x="390.599" y="681.475" type="curve" smooth="yes"/>
      <point x="172.438" y="681.475"/>
      <point x="28.0489" y="512.126"/>
    </contour>
    <contour>
      <point x="385.661" y="62.3552" type="curve" smooth="yes"/>
      <point x="228.324" y="62.3552"/>
      <point x="122.138" y="197.841"/>
      <point x="122.138" y="333.425" type="curve" smooth="yes"/>
      <point x="122.138" y="473.029"/>
      <point x="228.184" y="605.47"/>
      <point x="389.611" y="605.47" type="curve" smooth="yes" name="hr02"/>
      <point x="544.52" y="605.47"/>
      <point x="648.196" y="465.981"/>
      <point x="648.196" y="333.425" type="curve" smooth="yes"/>
      <point x="648.196" y="197.98"/>
      <point x="543.035" y="62.3552"/>
    </contour>
    <contour>
      <point x="484.337" y="272.743" type="line" name="hr03"/>
      <point x="477.069" y="272.743" type="line"/>
      <point x="472.549" y="262.519" type="line" smooth="yes"/>
      <point x="455.739" y="224.5"/>
      <point x="436.33" y="207.629"/>
      <point x="394.549" y="207.629" type="curve" smooth="yes"/>
      <point x="319.248" y="207.629" name="hr04"/>
      <point x="291" y="264.417"/>
      <point x="291" y="331.475" type="curve" smooth="yes"/>
      <point x="291" y="398.088"/>
      <point x="318.808" y="463.121"/>
      <point x="394.549" y="463.121" type="curve" smooth="yes"/>
      <point x="437.49" y="463.121"/>
      <point x="457.751" y="447.277"/>
      <point x="472.227" y="407.747" type="curve" smooth="yes"/>
      <point x="476.294" y="396.639" type="line"/>
      <point x="483.686" y="396.639" type="line"/>
      <point x="568.455" y="447.856" type="line"/>
      <point x="570.026" y="447.856" type="line"/>
      <point x="565.198" y="454.947" type="line" smooth="yes"/>
      <point x="521.728" y="518.788"/>
      <point x="487.9" y="542.051"/>
      <point x="397.511" y="542.051" type="curve" smooth="yes"/>
      <point x="254.101" y="542.051"/>
      <point x="176.173" y="450.971"/>
      <point x="176.173" y="334.4" type="curve" smooth="yes"/>
      <point x="176.173" y="215.25"/>
      <point x="245.842" y="128.699"/>
      <point x="393.561" y="128.699" type="curve" smooth="yes"/>
      <point x="481.342" y="128.699"/>
      <point x="522.073" y="151.563"/>
      <point x="565.194" y="214.825" type="curve" smooth="yes"/>
      <point x="570.028" y="221.917" type="line"/>
      <point x="568.459" y="221.917" type="line"/>
    </contour>
  </outline>
</glyph>
<glyph name="ordfeminine" format="2">
  <advance width="374"/>
  <unicode hex="00AA"/>
  <outline>
    <contour>
      <point x="229.089" y="389.997" type="line"/>
      <point x="329.438" y="389.997" type="line"/>
      <point x="329.438" y="667.825" type="line"/>
      <point x="222.435" y="667.825" type="line"/>
      <point x="222.435" y="659.975" type="line"/>
      <point x="205.14" y="669.915"/>
      <point x="184.642" y="674.65" name="hr01"/>
      <point x="160.399" y="674.65" type="curve" smooth="yes"/>
      <point x="62.1395" y="674.65"/>
      <point x="19.0109" y="598.832"/>
      <point x="19.0109" y="528.424" type="curve" smooth="yes"/>
      <point x="19.0109" y="460.131"/>
      <point x="61.1668" y="384.147"/>
      <point x="157.437" y="384.147" type="curve" smooth="yes"/>
      <point x="184.014" y="384.147"/>
      <point x="206.992" y="389.558"/>
      <point x="226.772" y="401.435" type="curve"/>
    </contour>
    <contour>
      <point x="175.212" y="456.252" type="curve" smooth="yes"/>
      <point x="139.434" y="456.252"/>
      <point x="126.014" y="493.892"/>
      <point x="126.014" y="530.374" type="curve" smooth="yes"/>
      <point x="126.014" y="565.79"/>
      <point x="140.595" y="602.545"/>
      <point x="175.212" y="602.545" type="curve" smooth="yes"/>
      <point x="210.676" y="602.545"/>
      <point x="224.41" y="565.593"/>
      <point x="224.41" y="529.399" type="curve" smooth="yes"/>
      <point x="224.41" y="493.204"/>
      <point x="210.676" y="456.252"/>
    </contour>
  </outline>
</glyph>
<glyph name="guillemotleft" format="2">
  <advance width="453"/>
  <unicode hex="00AB"/>
  <outline>
    <contour>
      <point x="412" y="0" type="line"/>
      <point x="343" y="229" type="line"/>
      <point x="409" y="457" type="line"/>
      <point x="335" y="457" type="line"/>
      <point x="214" y="229" type="line"/>
      <point x="335" y="0" type="line"/>
    </contour>
    <contour>
      <point x="233" y="0" type="line"/>
      <point x="164" y="229" type="line"/>
      <point x="231" y="457" type="line"/>
      <point x="156" y="457" type="line"/>
      <point x="35" y="229" type="line"/>
      <point x="157" y="0" type="line"/>
    </contour>
  </outline>
</glyph>
<glyph name="logicalnot" format="2">
  <advance width="589"/>
  <unicode hex="00AC"/>
  <outline>
    <contour>
      <point x="22.0489" y="266.173" type="line"/>
      <point x="27.125" y="266.173" type="line"/>
      <point x="466.561" y="266.173" type="line"/>
      <point x="461.485" y="266.173" type="line"/>
      <point x="461.485" y="48.7496" type="line"/>
      <point x="550.637" y="48.7496" type="line"/>
      <point x="550.637" y="339.253" type="line"/>
      <point x="22.0489" y="339.253" type="line"/>
    </contour>
  </outline>
</glyph>
<glyph name="softhyphen" format="2">
  <advance width="249"/>
  <unicode hex="00AD"/>
  <outline>
    <contour>
      <point x="0" y="292" type="line"/>
      <point x="0" y="193" type="line"/>
      <point x="249" y="193" type="line"/>
      <point x="249" y="292" type="line"/>
    </contour>
  </outline>
</glyph>
<glyph name="registered" format="2">
  <advance width="771"/>
  <unicode hex="00AE"/>
  <outline>
    <contour>
      <point x="28.0489" y="333.425" type="curve" smooth="yes"/>
      <point x="28.0489" y="159.652"/>
      <point x="171.76" y="-13.6499"/>
      <point x="385.661" y="-13.6499" type="curve" smooth="yes"/>
      <point x="599.716" y="-13.6499"/>
      <point x="742.286" y="159.876"/>
      <point x="742.286" y="333.425" type="curve" smooth="yes"/>
      <point x="742.286" y="503.015"/>
      <point x="602.259" y="681.475"/>
      <point x="390.599" y="681.475" type="curve" smooth="yes"/>
      <point x="172.438" y="681.475"/>
      <point x="28.0489" y="512.126"/>
    </contour>
    <contour>
      <point x="385.661" y="62.3552" type="curve" smooth="yes"/>
      <point x="228.324" y="62.3552"/>
      <point x="122.138" y="197.841"/>
      <point x="122.138" y="333.425" type="curve" smooth="yes"/>
      <point x="122.138" y="473.029"/>
      <point x="228.184" y="605.47"/>
      <point x="389.611" y="605.47" type="curve" smooth="yes"/>
      <point x="544.52" y="605.47"/>
      <point x="648.196" y="465.981"/>
      <point x="648.196" y="333.425" type="curve" smooth="yes"/>
      <point x="648.196" y="197.98"/>
      <point x="543.035" y="62.3552"/>
    </contour>
    <contour>
      <point x="243.323" y="135.524" type="line"/>
      <point x="352.225" y="135.524" type="line"/>
      <point x="352.225" y="293.472" type="line"/>
      <point x="347.149" y="293.472" type="line"/>
      <point x="359.328" y="293.472" type="line"/>
      <point x="448.202" y="135.524" type="line"/>
      <point x="569.308" y="135.524" type="line"/>
      <point x="464.302" y="312.678" type="line"/>
      <point x="462.422" y="312.678" type="line"/>
      <point x="508.52" y="338.571" name="hr01"/>
      <point x="535.899" y="370.362"/>
      <point x="535.899" y="420.199" type="curve" smooth="yes"/>
      <point x="535.899" y="515.84"/>
      <point x="452.188" y="532.301"/>
      <point x="376.774" y="532.301" type="curve" smooth="yes"/>
      <point x="243.323" y="532.301" type="line"/>
    </contour>
    <contour>
      <point x="352.225" y="371.427" type="line"/>
      <point x="352.225" y="452.396" type="line"/>
      <point x="359.986" y="452.396" type="line" smooth="yes"/>
      <point x="363.774" y="452.396" name="hr02"/>
      <point x="367.567" y="452.422"/>
      <point x="371.325" y="452.422" type="curve" smooth="yes"/>
      <point x="376.984" y="452.422"/>
      <point x="382.291" y="452.364"/>
      <point x="387.663" y="452.074" type="curve" smooth="yes"/>
      <point x="412.385" y="450.741"/>
      <point x="423.047" y="445.251"/>
      <point x="423.047" y="417.274" type="curve" smooth="yes"/>
      <point x="423.047" y="381.274" name="hr03"/>
      <point x="401.887" y="371.428"/>
      <point x="362.949" y="371.428" type="curve" smooth="yes"/>
    </contour>
  </outline>
</glyph>
<glyph name="macron" format="2">
  <advance width="500"/>
  <unicode hex="00AF"/>
  <outline>
    <contour>
      <point x="104" y="644" type="line"/>
      <point x="104" y="577" type="line"/>
      <point x="397" y="577" type="line"/>
      <point x="397" y="644" type="line"/>
    </contour>
  </outline>
</glyph>
<glyph name="degree" format="2">
  <advance width="361"/>
  <unicode hex="00B0"/>
  <outline>
    <contour>
      <point x="180" y="668" type="curve" smooth="yes"/>
      <point x="98" y="668"/>
      <point x="29" y="601"/>
      <point x="29" y="521" type="curve" smooth="yes"/>
      <point x="29" y="437"/>
      <point x="96" y="370"/>
      <point x="181" y="370" type="curve" smooth="yes"/>
      <point x="264" y="370"/>
      <point x="332" y="437"/>
      <point x="332" y="519" type="curve" smooth="yes"/>
      <point x="332" y="601"/>
      <point x="264" y="668"/>
    </contour>
    <contour>
      <point x="180" y="599" type="curve" smooth="yes"/>
      <point x="225" y="599"/>
      <point x="261" y="563"/>
      <point x="261" y="520" type="curve" smooth="yes"/>
      <point x="261" y="476"/>
      <point x="224" y="440"/>
      <point x="181" y="440" type="curve" smooth="yes"/>
      <point x="136" y="440"/>
      <point x="100" y="476"/>
      <point x="100" y="521" type="curve" smooth="yes"/>
      <point x="100" y="563"/>
      <point x="137" y="599"/>
    </contour>
  </outline>
</glyph>
<glyph name="plusminus" format="2">
  <advance width="594"/>
  <unicode hex="00B1"/>
  <outline>
    <contour>
      <point x="36" y="399" type="line"/>
      <point x="36" y="332" type="line"/>
      <point x="262" y="332" type="line"/>
      <point x="262" y="107" type="line"/>
      <point x="333" y="107" type="line"/>
      <point x="333" y="332" type="line"/>
      <point x="558" y="332" type="line"/>
      <point x="558" y="399" type="line"/>
      <point x="333" y="399" type="line"/>
      <point x="333" y="623" type="line"/>
      <point x="262" y="623" type="line"/>
      <point x="262" y="399" type="line"/>
    </contour>
    <contour>
      <point x="36" y="68" type="line"/>
      <point x="36" y="0" type="line"/>
      <point x="558" y="0" type="line"/>
      <point x="558" y="68" type="line"/>
    </contour>
  </outline>
</glyph>
<glyph name="twosuperior" format="2">
  <advance width="379"/>
  <unicode hex="00B2"/>
  <outline>
    <contour>
      <point x="38.0489" y="260.323" type="line"/>
      <point x="333.587" y="260.323" type="line"/>
      <point x="333.587" y="339.253" type="line"/>
      <point x="328.511" y="339.253" type="line"/>
      <point x="177.171" y="339.253" type="line"/>
      <point x="180.696" y="339.253" type="line"/>
      <point x="238.649" y="395.2"/>
      <point x="322.725" y="475.534"/>
      <point x="322.725" y="561.573" type="curve" smooth="yes"/>
      <point x="322.725" y="639.588"/>
      <point x="264.517" y="675.625" name="hr01"/>
      <point x="179.399" y="675.625" type="curve" smooth="yes"/>
      <point x="91.9073" y="675.625"/>
      <point x="62.2465" y="637.383"/>
      <point x="40.7101" y="573.842" type="curve" smooth="yes"/>
      <point x="38.5224" y="567.387" type="line"/>
      <point x="40.905" y="567.387" type="line"/>
      <point x="128.778" y="519.606" type="line"/>
      <point x="136.239" y="519.606" type="line"/>
      <point x="137.963" y="533.303" type="line" smooth="yes"/>
      <point x="141.169" y="558.781"/>
      <point x="146.021" y="595.72"/>
      <point x="179.399" y="595.72" type="curve" smooth="yes"/>
      <point x="202.953" y="595.72"/>
      <point x="214.811" y="579.056"/>
      <point x="214.811" y="553.773" type="curve" smooth="yes"/>
      <point x="214.811" y="495.061"/>
      <point x="168.144" y="445.95"/>
      <point x="124.48" y="403.38" type="curve" smooth="yes"/>
      <point x="98.1749" y="377.735"/>
      <point x="70.7566" y="353.169"/>
      <point x="42.7807" y="328.964" type="curve" smooth="yes"/>
      <point x="39.8037" y="326.388" type="line"/>
      <point x="38.0489" y="326.388" type="line"/>
    </contour>
  </outline>
</glyph>
<glyph name="threesuperior" format="2">
  <advance width="372"/>
  <unicode hex="00B3"/>
  <outline>
    <contour>
      <point x="132" y="438" type="line"/>
      <point x="143" y="439"/>
      <point x="154" y="440"/>
      <point x="159" y="440" type="curve" smooth="yes"/>
      <point x="203" y="440"/>
      <point x="228" y="422"/>
      <point x="228" y="390" type="curve" smooth="yes"/>
      <point x="228" y="359"/>
      <point x="205" y="338"/>
      <point x="172" y="338" type="curve" smooth="yes"/>
      <point x="139" y="338"/>
      <point x="123" y="353"/>
      <point x="112" y="392" type="curve"/>
      <point x="22" y="357" type="line"/>
      <point x="50" y="283"/>
      <point x="87" y="259"/>
      <point x="169" y="259" type="curve" smooth="yes"/>
      <point x="270" y="259"/>
      <point x="332" y="309"/>
      <point x="332" y="391" type="curve" smooth="yes"/>
      <point x="332" y="436"/>
      <point x="309" y="467"/>
      <point x="266" y="479" type="curve"/>
      <point x="300" y="500"/>
      <point x="319" y="532" name="hr01"/>
      <point x="319" y="570" type="curve" smooth="yes"/>
      <point x="319" y="636"/>
      <point x="264" y="675"/>
      <point x="172" y="675" type="curve" smooth="yes"/>
      <point x="90" y="675"/>
      <point x="54" y="650"/>
      <point x="36" y="579" type="curve"/>
      <point x="123" y="546" type="line"/>
      <point x="131" y="583"/>
      <point x="146" y="598"/>
      <point x="175" y="598" type="curve" smooth="yes"/>
      <point x="201" y="598"/>
      <point x="218" y="583"/>
      <point x="218" y="559" type="curve" smooth="yes"/>
      <point x="218" y="524"/>
      <point x="192" y="508"/>
      <point x="132" y="509" type="curve"/>
    </contour>
  </outline>
</glyph>
<glyph name="acute" format="2">
  <advance width="500"/>
  <unicode hex="00B4"/>
  <outline>
    <contour>
      <point x="325" y="708" type="line"/>
      <point x="176" y="533" type="line"/>
      <point x="232" y="522" type="line"/>
      <point x="444" y="672" type="line"/>
    </contour>
  </outline>
</glyph>
<glyph name="micro" format="2">
  <advance width="520"/>
  <unicode hex="00B5"/>
  <outline>
    <contour>
      <point x="53.1487" y="-175.499" type="line"/>
      <point x="172.046" y="-175.499" type="line"/>
      <point x="168.405" y="13.2363" type="line" name="hr01"/>
      <point x="189.781" y="0.178878"/>
      <point x="213.134" y="-6.82494" name="hr02"/>
      <point x="245.762" y="-6.82494" type="curve" smooth="yes"/>
      <point x="288.056" y="-6.82494"/>
      <point x="316.466" y="5.65887"/>
      <point x="341.372" y="24.5327" type="curve"/>
      <point x="341.372" y="0" type="line"/>
      <point x="457.263" y="0" type="line"/>
      <point x="457.263" y="452.352" type="line"/>
      <point x="339.397" y="452.352" type="line"/>
      <point x="339.477" y="198.879" type="line" smooth="yes"/>
      <point x="339.477" y="138.359"/>
      <point x="321.616" y="90.6299"/>
      <point x="251.687" y="90.6299" type="curve" smooth="yes"/>
      <point x="190.576" y="90.6299"/>
      <point x="177.618" y="138.703"/>
      <point x="177.618" y="188.532" type="curve" smooth="yes"/>
      <point x="177.618" y="192.573"/>
      <point x="177.665" y="196.569"/>
      <point x="177.712" y="200.488" type="curve" smooth="yes"/>
      <point x="177.757" y="204.258"/>
      <point x="177.801" y="207.955"/>
      <point x="177.801" y="211.551" type="curve" smooth="yes"/>
      <point x="177.801" y="452.352" type="line"/>
      <point x="60.8071" y="452.352" type="line"/>
      <point x="65.862" y="71.0494" type="line" smooth="yes"/>
      <point x="65.9508" y="64.3481"/>
      <point x="65.9936" y="57.6375"/>
      <point x="65.9936" y="50.9193" type="curve" smooth="yes"/>
      <point x="65.9936" y="-21.4384"/>
      <point x="61.0179" y="-94.4309"/>
      <point x="54.0712" y="-165.996" type="curve" smooth="yes"/>
    </contour>
  </outline>
</glyph>
<glyph name="paragraph" format="2">
  <advance width="515"/>
  <unicode hex="00B6"/>
  <outline>
    <contour>
      <point x="359" y="616" type="line"/>
      <point x="359" y="-86" type="line"/>
      <point x="413" y="-86" type="line"/>
      <point x="413" y="623" type="line"/>
      <point x="500" y="633" type="line"/>
      <point x="500" y="667" type="line"/>
      <point x="221" y="667" type="line" smooth="yes"/>
      <point x="155" y="667"/>
      <point x="117" y="659"/>
      <point x="87" y="638" type="curve" smooth="yes"/>
      <point x="46" y="609"/>
      <point x="21" y="557"/>
      <point x="21" y="500" type="curve" smooth="yes"/>
      <point x="21" y="434"/>
      <point x="53" y="376"/>
      <point x="109" y="341" type="curve" smooth="yes"/>
      <point x="145" y="318"/>
      <point x="174" y="309"/>
      <point x="238" y="300" type="curve"/>
      <point x="238" y="-86" type="line"/>
      <point x="292" y="-86" type="line"/>
      <point x="292" y="607" type="line"/>
    </contour>
  </outline>
</glyph>
<glyph name="periodcentered" format="2">
  <advance width="282"/>
  <unicode hex="00B7"/>
  <outline>
    <contour>
      <point x="144" y="342" type="curve" smooth="yes"/>
      <point x="92" y="342"/>
      <point x="52" y="302"/>
      <point x="52" y="252" type="curve" smooth="yes"/>
      <point x="52" y="198"/>
      <point x="91" y="159"/>
      <point x="144" y="159" type="curve" smooth="yes"/>
      <point x="195" y="159"/>
      <point x="235" y="199"/>
      <point x="235" y="251" type="curve" smooth="yes"/>
      <point x="235" y="302"/>
      <point x="195" y="342"/>
    </contour>
  </outline>
</glyph>
<glyph name="cedilla" format="2">
  <advance width="500"/>
  <unicode hex="00B8"/>
  <outline>
    <contour>
      <point x="207" y="-67" type="line"/>
      <point x="229" y="-87"/>
      <point x="239" y="-103"/>
      <point x="239" y="-117" type="curve" smooth="yes"/>
      <point x="239" y="-151"/>
      <point x="220" y="-169"/>
      <point x="171" y="-180" type="curve"/>
      <point x="194" y="-205" type="line"/>
      <point x="247" y="-190"/>
      <point x="266" y="-183"/>
      <point x="284" y="-169" type="curve" smooth="yes"/>
      <point x="312" y="-147"/>
      <point x="328" y="-119"/>
      <point x="328" y="-92" type="curve" smooth="yes"/>
      <point x="328" y="-66"/>
      <point x="319" y="-47"/>
      <point x="290" y="-12" type="curve"/>
    </contour>
  </outline>
</glyph>
<glyph name="onesuperior" format="2">
  <advance width="380"/>
  <unicode hex="00B9"/>
  <outline>
    <contour>
      <point x="172.686" y="260.323" type="line"/>
      <point x="279.613" y="260.323" type="line"/>
      <point x="279.613" y="667.825" type="line"/>
      <point x="197.346" y="667.825" type="line"/>
      <point x="194.763" y="662.565" type="line" smooth="yes"/>
      <point x="171.155" y="614.482"/>
      <point x="135.918" y="608.565"/>
      <point x="78.8267" y="604.422" type="curve" smooth="yes"/>
      <point x="69.7576" y="603.763" type="line" name="hr01"/>
      <point x="65.0489" y="603.763" type="line"/>
      <point x="65.0489" y="539.592" type="line"/>
      <point x="70.4005" y="539.592" type="line"/>
      <point x="172.686" y="545.152" type="line"/>
    </contour>
  </outline>
</glyph>
<glyph name="ordmasculine" format="2">
  <advance width="374"/>
  <unicode hex="00BA"/>
  <outline>
    <contour>
      <point x="187.212" y="455.277" type="curve" smooth="yes"/>
      <point x="151.434" y="455.277"/>
      <point x="138.014" y="492.917"/>
      <point x="138.014" y="529.399" type="curve" smooth="yes"/>
      <point x="138.014" y="564.815"/>
      <point x="152.595" y="601.57"/>
      <point x="187.212" y="601.57" type="curve" smooth="yes"/>
      <point x="222.145" y="601.57"/>
      <point x="236.41" y="564.134"/>
      <point x="236.41" y="528.424" type="curve" smooth="yes"/>
      <point x="236.41" y="492.713"/>
      <point x="222.145" y="455.277"/>
    </contour>
    <contour>
      <point x="31.0109" y="529.399" type="curve" smooth="yes"/>
      <point x="31.0109" y="443.977"/>
      <point x="79.3986" y="383.172"/>
      <point x="187.212" y="383.172" type="curve" smooth="yes"/>
      <point x="292.877" y="383.172"/>
      <point x="343.413" y="445.71"/>
      <point x="343.413" y="529.399" type="curve" smooth="yes"/>
      <point x="343.413" y="613.639"/>
      <point x="292.333" y="673.675"/>
      <point x="187.212" y="673.675" type="curve" smooth="yes"/>
      <point x="83.6973" y="673.675"/>
      <point x="31.0109" y="612.36"/>
    </contour>
  </outline>
</glyph>
<glyph name="guillemotright" format="2">
  <advance width="453"/>
  <unicode hex="00BB"/>
  <outline>
    <contour>
      <point x="42" y="457" type="line"/>
      <point x="111" y="228" type="line"/>
      <point x="44" y="0" type="line"/>
      <point x="119" y="0" type="line"/>
      <point x="240" y="228" type="line"/>
      <point x="118" y="457" type="line"/>
    </contour>
    <contour>
      <point x="221" y="457" type="line"/>
      <point x="290" y="228" type="line"/>
      <point x="223" y="0" type="line"/>
      <point x="297" y="0" type="line"/>
      <point x="419" y="228" type="line"/>
      <point x="297" y="457" type="line"/>
    </contour>
  </outline>
</glyph>
<glyph name="onequarter" format="2">
  <advance width="875"/>
  <unicode hex="00BC"/>
  <outline>
    <contour>
      <point x="170.713" y="-5.45646" type="line"/>
      <point x="174.158" y="-5.45646" type="line"/>
      <point x="250.173" y="-17.5183" type="line"/>
      <point x="255.215" y="-17.5183" type="line"/>
      <point x="708.113" y="674.188" type="line"/>
      <point x="704.691" y="674.188" type="line"/>
      <point x="630.766" y="686.353" type="line"/>
      <point x="625.701" y="686.353" type="line"/>
    </contour>
    <contour>
      <point x="172.686" y="260.323" type="line"/>
      <point x="279.613" y="260.323" type="line"/>
      <point x="279.613" y="667.825" type="line"/>
      <point x="197.346" y="667.825" type="line"/>
      <point x="194.763" y="662.565" type="line" smooth="yes"/>
      <point x="171.155" y="614.482"/>
      <point x="135.918" y="608.565"/>
      <point x="78.8267" y="604.422" type="curve" smooth="yes"/>
      <point x="69.7576" y="603.763" type="line"/>
      <point x="65.0489" y="603.763" type="line"/>
      <point x="65.0489" y="539.592" type="line"/>
      <point x="70.4005" y="539.592" type="line"/>
      <point x="172.686" y="545.152" type="line"/>
    </contour>
    <contour>
      <point x="519.297" y="82.8743" type="line"/>
      <point x="524.373" y="82.8743" type="line" name="hr01"/>
      <point x="697.046" y="82.8747" type="line"/>
      <point x="697.046" y="0" type="line"/>
      <point x="799.036" y="0" type="line"/>
      <point x="799.036" y="82.8747" type="line"/>
      <point x="848.272" y="82.8743" type="line"/>
      <point x="853.348" y="82.8743" type="line"/>
      <point x="853.348" y="158.879" type="line"/>
      <point x="848.272" y="158.879" type="line"/>
      <point x="793.96" y="158.879" type="line"/>
      <point x="799.036" y="158.879" type="line"/>
      <point x="799.036" y="407.502" type="line"/>
      <point x="692.285" y="407.502" type="line"/>
      <point x="519.297" y="149.297" type="line"/>
    </contour>
    <contour>
      <point x="627.375" y="158.879" type="line"/>
      <point x="697.046" y="270.741" type="line"/>
      <point x="697.046" y="158.879" type="line"/>
    </contour>
  </outline>
</glyph>
<glyph name="onehalf" format="2">
  <advance width="875"/>
  <unicode hex="00BD"/>
  <outline>
    <contour>
      <point x="534.11" y="0" type="line"/>
      <point x="829.648" y="0" type="line"/>
      <point x="829.648" y="78.93" type="line"/>
      <point x="824.572" y="78.93" type="line"/>
      <point x="676.757" y="78.9299" type="line"/>
      <point x="734.709" y="134.876"/>
      <point x="818.786" y="215.211"/>
      <point x="818.786" y="301.25" type="curve" smooth="yes"/>
      <point x="818.786" y="379.265"/>
      <point x="760.578" y="415.302"/>
      <point x="675.46" y="415.302" type="curve" smooth="yes"/>
      <point x="587.968" y="415.302"/>
      <point x="558.307" y="377.06" name="hr01"/>
      <point x="536.771" y="313.519" type="curve" smooth="yes"/>
      <point x="534.583" y="307.064" type="line"/>
      <point x="536.966" y="307.064" type="line"/>
      <point x="624.838" y="259.283" type="line"/>
      <point x="632.299" y="259.283" type="line"/>
      <point x="634.023" y="272.98" type="line" smooth="yes"/>
      <point x="637.23" y="298.458"/>
      <point x="642.082" y="335.397"/>
      <point x="675.46" y="335.397" type="curve" smooth="yes"/>
      <point x="699.014" y="335.397"/>
      <point x="710.871" y="318.733"/>
      <point x="710.871" y="293.45" type="curve" smooth="yes" name="hr02"/>
      <point x="710.871" y="234.738"/>
      <point x="664.205" y="185.627"/>
      <point x="620.541" y="143.057" type="curve" smooth="yes"/>
      <point x="594.236" y="117.412"/>
      <point x="566.817" y="92.8464"/>
      <point x="538.841" y="68.6407" type="curve" smooth="yes"/>
      <point x="535.864" y="66.0648" type="line" name="hr03"/>
      <point x="534.11" y="66.0648" type="line"/>
    </contour>
    <contour>
      <point x="170.713" y="-5.45646" type="line"/>
      <point x="174.158" y="-5.45646" type="line"/>
      <point x="250.173" y="-17.5183" type="line"/>
      <point x="255.215" y="-17.5183" type="line"/>
      <point x="708.113" y="674.188" type="line"/>
      <point x="704.691" y="674.188" type="line"/>
      <point x="630.766" y="686.353" type="line"/>
      <point x="625.701" y="686.353" type="line"/>
    </contour>
    <contour>
      <point x="172.686" y="260.323" type="line"/>
      <point x="279.613" y="260.323" type="line"/>
      <point x="279.613" y="667.825" type="line"/>
      <point x="197.346" y="667.825" type="line"/>
      <point x="194.763" y="662.565" type="line" smooth="yes"/>
      <point x="171.155" y="614.482"/>
      <point x="135.918" y="608.565"/>
      <point x="78.8267" y="604.422" type="curve" smooth="yes"/>
      <point x="69.7576" y="603.763" type="line"/>
      <point x="65.0489" y="603.763" type="line"/>
      <point x="65.0489" y="539.592" type="line"/>
      <point x="70.4005" y="539.592" type="line"/>
      <point x="172.686" y="545.152" type="line"/>
    </contour>
  </outline>
</glyph>
<glyph name="threequarters" format="2">
  <advance width="874"/>
  <unicode hex="00BE"/>
  <outline>
    <contour>
      <point x="132" y="438" type="line"/>
      <point x="143" y="439"/>
      <point x="154" y="440"/>
      <point x="159" y="440" type="curve" smooth="yes"/>
      <point x="203" y="440"/>
      <point x="228" y="422"/>
      <point x="228" y="390" type="curve" smooth="yes"/>
      <point x="228" y="359"/>
      <point x="205" y="338"/>
      <point x="172" y="338" type="curve" smooth="yes"/>
      <point x="139" y="338"/>
      <point x="123" y="353"/>
      <point x="112" y="392" type="curve"/>
      <point x="22" y="357" type="line"/>
      <point x="50" y="283"/>
      <point x="87" y="259"/>
      <point x="169" y="259" type="curve" smooth="yes"/>
      <point x="270" y="259"/>
      <point x="332" y="309"/>
      <point x="332" y="391" type="curve" smooth="yes"/>
      <point x="332" y="436"/>
      <point x="309" y="467"/>
      <point x="266" y="479" type="curve"/>
      <point x="300" y="500"/>
      <point x="319" y="532" name="hr01"/>
      <point x="319" y="570" type="curve" smooth="yes"/>
      <point x="319" y="636"/>
      <point x="264" y="675"/>
      <point x="172" y="675" type="curve" smooth="yes"/>
      <point x="90" y="675"/>
      <point x="54" y="650"/>
      <point x="36" y="579" type="curve"/>
      <point x="123" y="546" type="line"/>
      <point x="131" y="583"/>
      <point x="146" y="598"/>
      <point x="175" y="598" type="curve" smooth="yes"/>
      <point x="201" y="598"/>
      <point x="218" y="583"/>
      <point x="218" y="559" type="curve" smooth="yes"/>
      <point x="218" y="524"/>
      <point x="192" y="508"/>
      <point x="132" y="509" type="curve"/>
    </contour>
    <contour>
      <point x="701" y="683" type="line"/>
      <point x="639" y="693" type="line"/>
      <point x="180" y="-15" type="line"/>
      <point x="243" y="-25" type="line"/>
    </contour>
    <contour>
      <point x="802" y="400" type="line"/>
      <point x="697" y="400" type="line"/>
      <point x="528" y="155" type="line"/>
      <point x="528" y="82" type="line"/>
      <point x="707" y="82" type="line"/>
      <point x="707" y="0" type="line"/>
      <point x="802" y="0" type="line"/>
      <point x="802" y="82" type="line"/>
      <point x="855" y="82" type="line"/>
      <point x="855" y="157" type="line"/>
      <point x="802" y="157" type="line"/>
    </contour>
    <contour>
      <point x="707" y="307" type="line"/>
      <point x="707" y="157" type="line"/>
      <point x="612" y="157" type="line"/>
    </contour>
  </outline>
</glyph>
<glyph name="questiondown" format="2">
  <advance width="413"/>
  <unicode hex="00BF"/>
  <outline>
    <contour>
      <point x="144.536" y="466.024" type="curve" smooth="yes"/>
      <point x="144.536" y="428.751"/>
      <point x="175.955" y="390.972"/>
      <point x="226.637" y="390.972" type="curve" smooth="yes"/>
      <point x="276.409" y="390.972"/>
      <point x="308.738" y="427.853"/>
      <point x="308.738" y="465.049" type="curve" smooth="yes"/>
      <point x="308.738" y="502.369"/>
      <point x="278.205" y="541.076"/>
      <point x="226.637" y="541.076" type="curve" smooth="yes"/>
      <point x="175.954" y="541.076"/>
      <point x="144.536" y="503.297"/>
    </contour>
    <contour>
      <point x="276.227" y="39.6103" type="line"/>
      <point x="269.212" y="39.6103" type="line"/>
      <point x="268.029" y="27.0292" type="line" smooth="yes"/>
      <point x="264.441" y="-11.1553"/>
      <point x="249.712" y="-44.894"/>
      <point x="211.824" y="-44.894" type="curve" smooth="yes"/>
      <point x="179.996" y="-44.894"/>
      <point x="160.613" y="-18.3016"/>
      <point x="160.613" y="13.6277" type="curve" smooth="yes"/>
      <point x="160.613" y="62.2127"/>
      <point x="194.862" y="91.967"/>
      <point x="228.182" y="121.343" type="curve" smooth="yes"/>
      <point x="233.022" y="125.612" type="line" smooth="yes"/>
      <point x="272.411" y="160.444"/>
      <point x="314.663" y="199.874"/>
      <point x="314.663" y="264.201" type="curve" smooth="yes"/>
      <point x="314.663" y="290.614"/>
      <point x="305.375" y="309.1"/>
      <point x="292.235" y="332.456" type="curve" smooth="yes"/>
      <point x="289.509" y="337.303" type="line"/>
      <point x="149.451" y="337.303" type="line"/>
      <point x="157.33" y="324.387" type="line" smooth="yes" name="hr01"/>
      <point x="169.302" y="304.762"/>
      <point x="176.136" y="285.689"/>
      <point x="176.136" y="262.251" type="curve" smooth="yes"/>
      <point x="176.136" y="230.544"/>
      <point x="153.968" y="207.159"/>
      <point x="132.51" y="186.553" type="curve" smooth="yes"/>
      <point x="128.252" y="182.465"/>
      <point x="123.903" y="178.346"/>
      <point x="119.438" y="174.16" type="curve" smooth="yes"/>
      <point x="67.4363" y="125.412"/>
      <point x="25.0489" y="79.7581"/>
      <point x="25.0489" y="2.90282" type="curve" smooth="yes"/>
      <point x="25.0489" y="-36.4983"/>
      <point x="41.1246" y="-81.8737"/>
      <point x="74.8019" y="-113.299" type="curve" smooth="yes"/>
      <point x="108.967" y="-145.18"/>
      <point x="158.76" y="-154.049"/>
      <point x="205.899" y="-154.049" type="curve" smooth="yes"/>
      <point x="317.13" y="-154.049"/>
      <point x="369.789" y="-104.091"/>
      <point x="395.124" y="-16.8284" type="curve" smooth="yes"/>
      <point x="397.158" y="-9.82377" type="line"/>
      <point x="394.244" y="-9.82377" type="line"/>
    </contour>
  </outline>
</glyph>
<glyph name="Agrave" format="2">
  <advance width="641"/>
  <unicode hex="00C0"/>
  <outline>
    <contour>
      <point x="413" y="667" type="line"/>
      <point x="236" y="667" type="line"/>
      <point x="-14" y="0" type="line"/>
      <point x="140" y="0" type="line"/>
      <point x="191" y="142" type="line"/>
      <point x="426" y="142" type="line"/>
      <point x="474" y="0" type="line"/>
      <point x="641" y="0" type="line"/>
    </contour>
    <contour>
      <point x="394" y="254" type="line"/>
      <point x="230" y="254" type="line"/>
      <point x="316" y="491" type="line"/>
    </contour>
    <contour>
      <point x="249" y="899" type="line"/>
      <point x="131" y="860" type="line"/>
      <point x="344" y="712" type="line"/>
      <point x="399" y="722" type="line"/>
    </contour>
  </outline>
</glyph>
<glyph name="Aacute" format="2">
  <advance width="640"/>
  <unicode hex="00C1"/>
  <outline>
    <contour>
      <point x="264.128" y="708.792" type="line"/>
      <point x="267.095" y="708.792" type="line"/>
      <point x="331.783" y="697.437" type="line"/>
      <point x="335.724" y="697.437" type="line"/>
      <point x="547.962" y="858.058" type="line"/>
      <point x="546.127" y="858.058" type="line"/>
      <point x="424.111" y="888.48" type="line"/>
      <point x="419.039" y="888.48" type="line"/>
    </contour>
    <contour>
      <point x="-13.6088" y="0" type="line"/>
      <point x="135.431" y="0" type="line"/>
      <point x="199.618" y="174.523" type="line"/>
      <point x="426.579" y="174.523" type="line"/>
      <point x="490.767" y="0" type="line"/>
      <point x="645.565" y="0" type="line"/>
      <point x="395.087" y="667.825" type="line"/>
      <point x="248.023" y="667.825" type="line"/>
    </contour>
    <contour>
      <point x="238.701" y="277.829" type="line"/>
      <point x="315.83" y="484.303" type="line"/>
      <point x="390.573" y="277.829" type="line"/>
      <point x="395.346" y="277.829" type="line"/>
    </contour>
  </outline>
</glyph>
<glyph name="Acircumflex" format="2">
  <advance width="640"/>
  <unicode hex="00C2"/>
  <outline>
    <contour>
      <point x="124.154" y="714.341" type="line"/>
      <point x="126.826" y="714.341" type="line"/>
      <point x="186.331" y="701.122" type="line"/>
      <point x="190.602" y="701.122" type="line"/>
      <point x="320.16" y="804.763" type="line"/>
      <point x="450.724" y="702.942" type="line" name="hr01"/>
      <point x="455.122" y="702.942" type="line"/>
      <point x="512.068" y="717.738" type="line"/>
      <point x="514.544" y="717.738" type="line"/>
      <point x="361.07" y="886.223" type="line"/>
      <point x="278.898" y="886.223" type="line"/>
    </contour>
    <contour>
      <point x="-13.6088" y="0" type="line"/>
      <point x="135.431" y="0" type="line"/>
      <point x="199.618" y="174.523" type="line" name="hr02"/>
      <point x="426.579" y="174.523" type="line"/>
      <point x="490.767" y="0" type="line" name="hr03"/>
      <point x="645.565" y="0" type="line"/>
      <point x="395.087" y="667.825" type="line"/>
      <point x="248.023" y="667.825" type="line"/>
    </contour>
    <contour>
      <point x="238.701" y="277.829" type="line"/>
      <point x="315.83" y="484.303" type="line"/>
      <point x="390.573" y="277.829" type="line"/>
      <point x="395.346" y="277.829" type="line"/>
    </contour>
  </outline>
</glyph>
<glyph name="Atilde" format="2">
  <advance width="640"/>
  <unicode hex="00C3"/>
  <outline>
    <contour>
      <point x="140.045" y="755.597" type="line"/>
      <point x="140.647" y="755.597" type="line"/>
      <point x="175.376" y="726.206" type="line"/>
      <point x="182.363" y="726.206" type="line"/>
      <point x="196.693" y="741.686" type="line" smooth="yes"/>
      <point x="198.825" y="744.064"/>
      <point x="200.905" y="746.443"/>
      <point x="203.066" y="748.78" type="curve" smooth="yes"/>
      <point x="214.222" y="760.849"/>
      <point x="227.273" y="774.144"/>
      <point x="244.962" y="774.144" type="curve" smooth="yes"/>
      <point x="263.601" y="774.144"/>
      <point x="289.016" y="763.627" name="hr01"/>
      <point x="316.637" y="751.636" type="curve" smooth="yes"/>
      <point x="319.437" y="750.419" type="line" smooth="yes"/>
      <point x="332.18" y="744.882"/>
      <point x="345.034" y="739.44"/>
      <point x="356.783" y="735.281" type="curve" smooth="yes"/>
      <point x="369.497" y="730.781"/>
      <point x="382.804" y="727.344"/>
      <point x="396.048" y="727.344" type="curve" smooth="yes"/>
      <point x="443.807" y="727.344"/>
      <point x="475.981" y="768.635"/>
      <point x="501.716" y="803.846" type="curve" smooth="yes" name="hr02"/>
      <point x="511.53" y="817.166" type="line"/>
      <point x="510.837" y="817.166" type="line"/>
      <point x="476.113" y="848.185" type="line" name="hr03"/>
      <point x="468.742" y="848.185" type="line"/>
      <point x="461.97" y="839.577" type="line" smooth="yes"/>
      <point x="447.318" y="820.949"/>
      <point x="428.713" y="803.349" name="hr04"/>
      <point x="409.873" y="803.349" type="curve" smooth="yes"/>
      <point x="402.19" y="803.349"/>
      <point x="392.561" y="805.654"/>
      <point x="381.136" y="809.606" type="curve" smooth="yes"/>
      <point x="370.389" y="813.323"/>
      <point x="359.629" y="818.194"/>
      <point x="348.314" y="823.144" type="curve" smooth="yes"/>
      <point x="345.477" y="824.385" type="line" smooth="yes"/>
      <point x="320.885" y="835.128"/>
      <point x="292.845" y="847.224" name="hr05"/>
      <point x="263.724" y="847.224" type="curve" smooth="yes"/>
      <point x="215.68" y="847.224"/>
      <point x="184.488" y="811.035"/>
      <point x="157.066" y="776.494" type="curve" smooth="yes"/>
      <point x="152.94" y="771.297"/>
      <point x="149.086" y="766.323"/>
      <point x="145.282" y="761.81" type="curve" smooth="yes"/>
    </contour>
    <contour>
      <point x="-13.6088" y="0" type="line"/>
      <point x="135.431" y="0" type="line"/>
      <point x="199.618" y="174.523" type="line"/>
      <point x="426.579" y="174.523" type="line"/>
      <point x="490.767" y="0" type="line"/>
      <point x="645.565" y="0" type="line"/>
      <point x="395.087" y="667.825" type="line"/>
      <point x="248.023" y="667.825" type="line"/>
    </contour>
    <contour>
      <point x="238.701" y="277.829" type="line"/>
      <point x="315.83" y="484.303" type="line"/>
      <point x="390.573" y="277.829" type="line"/>
      <point x="395.346" y="277.829" type="line"/>
    </contour>
  </outline>
</glyph>
<glyph name="Adieresis" format="2">
  <advance width="641"/>
  <unicode hex="00C4"/>
  <outline>
    <contour>
      <point x="413" y="667" type="line"/>
      <point x="236" y="667" type="line"/>
      <point x="-14" y="0" type="line"/>
      <point x="140" y="0" type="line"/>
      <point x="191" y="142" type="line"/>
      <point x="426" y="142" type="line"/>
      <point x="474" y="0" type="line"/>
      <point x="641" y="0" type="line"/>
    </contour>
    <contour>
      <point x="394" y="254" type="line"/>
      <point x="230" y="254" type="line"/>
      <point x="316" y="491" type="line"/>
    </contour>
    <contour>
      <point x="202" y="882" type="curve" smooth="yes"/>
      <point x="159" y="882"/>
      <point x="126" y="850"/>
      <point x="126" y="807" type="curve" smooth="yes"/>
      <point x="126" y="762"/>
      <point x="158" y="730"/>
      <point x="202" y="730" type="curve" smooth="yes"/>
      <point x="246" y="730"/>
      <point x="278" y="762"/>
      <point x="278" y="806" type="curve" smooth="yes"/>
      <point x="278" y="850"/>
      <point x="246" y="882"/>
    </contour>
    <contour>
      <point x="436" y="882" type="curve" smooth="yes"/>
      <point x="393" y="882"/>
      <point x="360" y="850"/>
      <point x="360" y="807" type="curve" smooth="yes"/>
      <point x="360" y="762"/>
      <point x="392" y="730"/>
      <point x="436" y="730" type="curve" smooth="yes"/>
      <point x="480" y="730"/>
      <point x="512" y="762"/>
      <point x="512" y="806" type="curve" smooth="yes"/>
      <point x="512" y="850"/>
      <point x="480" y="882"/>
    </contour>
  </outline>
</glyph>
<glyph name="Aring" format="2">
  <advance width="640"/>
  <unicode hex="00C5"/>
  <outline>
    <contour>
      <point x="196.436" y="793.621" type="curve" smooth="yes"/>
      <point x="196.436" y="732.937"/>
      <point x="247.752" y="687.369" name="hr01"/>
      <point x="320.011" y="687.369" type="curve" smooth="yes"/>
      <point x="391.179" y="687.369"/>
      <point x="442.599" y="732.85" name="hr02"/>
      <point x="442.599" y="792.646" type="curve" smooth="yes"/>
      <point x="442.599" y="852.443"/>
      <point x="391.179" y="897.923" name="hr03"/>
      <point x="320.011" y="897.923" type="curve" smooth="yes"/>
      <point x="250.084" y="897.923"/>
      <point x="196.436" y="853.491"/>
    </contour>
    <contour>
      <point x="320.999" y="746.8" type="curve" smooth="yes" name="hr04"/>
      <point x="295.693" y="746.8"/>
      <point x="278.675" y="767.603"/>
      <point x="278.675" y="793.621" type="curve" smooth="yes"/>
      <point x="278.675" y="817.72"/>
      <point x="296.558" y="838.493" name="hr05"/>
      <point x="320.011" y="838.493" type="curve" smooth="yes"/>
      <point x="344.448" y="838.493"/>
      <point x="362.335" y="817.642"/>
      <point x="362.335" y="792.646" type="curve" smooth="yes"/>
      <point x="362.335" y="768.019" name="hr06"/>
      <point x="344.814" y="746.8"/>
    </contour>
    <contour>
      <point x="-13.6088" y="0" type="line"/>
      <point x="135.431" y="0" type="line"/>
      <point x="199.618" y="174.523" type="line" name="hr07"/>
      <point x="426.579" y="174.523" type="line"/>
      <point x="490.767" y="0" type="line"/>
      <point x="645.565" y="0" type="line"/>
      <point x="395.087" y="667.825" type="line"/>
      <point x="248.023" y="667.825" type="line"/>
    </contour>
    <contour>
      <point x="238.701" y="277.829" type="line"/>
      <point x="315.83" y="484.303" type="line"/>
      <point x="390.573" y="277.829" type="line"/>
      <point x="395.346" y="277.829" type="line"/>
    </contour>
  </outline>
</glyph>
<glyph name="AE" format="2">
  <advance width="840"/>
  <unicode hex="00C6"/>
  <outline>
    <contour>
      <point x="533" y="542" type="line"/>
      <point x="765" y="542" type="line"/>
      <point x="765" y="667" type="line"/>
      <point x="312" y="667" type="line"/>
      <point x="-42" y="0" type="line"/>
      <point x="138" y="0" type="line"/>
      <point x="205" y="140" type="line"/>
      <point x="387" y="140" type="line"/>
      <point x="387" y="0" type="line"/>
      <point x="803" y="0" type="line"/>
      <point x="803" y="124" type="line"/>
      <point x="533" y="124" type="line"/>
      <point x="533" y="276" type="line"/>
      <point x="765" y="276" type="line"/>
      <point x="765" y="395" type="line"/>
      <point x="533" y="395" type="line"/>
    </contour>
    <contour>
      <point x="387" y="530" type="line"/>
      <point x="387" y="253" type="line"/>
      <point x="255" y="253" type="line"/>
    </contour>
  </outline>
</glyph>
<glyph name="Ccedilla" format="2">
  <advance width="663"/>
  <unicode hex="00C7"/>
  <outline>
    <contour>
      <point x="261.819" y="-168.21" type="line"/>
      <point x="260.643" y="-168.21" type="line"/>
      <point x="308.727" y="-201.444" type="line"/>
      <point x="313.698" y="-201.444" type="line"/>
      <point x="326.364" y="-195.758" type="line" smooth="yes"/>
      <point x="336.592" y="-191.2"/>
      <point x="348.152" y="-186.181"/>
      <point x="358.923" y="-180.539" type="curve" smooth="yes"/>
      <point x="394.799" y="-161.747"/>
      <point x="429.4" y="-129.804"/>
      <point x="429.4" y="-85.8215" type="curve" smooth="yes"/>
      <point x="429.4" y="-56.6096"/>
      <point x="413.245" y="-34.6926"/>
      <point x="393.486" y="-13.6491" type="curve"/>
      <point x="389.796" y="-13.6491" type="line"/>
      <point x="514.875" y="-13.4097"/>
      <point x="586.954" y="21.7916"/>
      <point x="655.316" y="125.228" type="curve" smooth="yes"/>
      <point x="660.02" y="132.345" type="line"/>
      <point x="658.372" y="132.345" type="line"/>
      <point x="541.693" y="201.466" type="line"/>
      <point x="534.466" y="201.466" type="line"/>
      <point x="529.98" y="191.354" type="line" smooth="yes"/>
      <point x="500.851" y="125.689"/>
      <point x="463.96" y="95.5049"/>
      <point x="387.786" y="95.5049" type="curve" smooth="yes"/>
      <point x="250.242" y="95.5049"/>
      <point x="198.326" y="206.193"/>
      <point x="198.326" y="328.55" type="curve" smooth="yes"/>
      <point x="198.326" y="444.769"/>
      <point x="245.561" y="573.295" name="hr01"/>
      <point x="388.774" y="573.295" type="curve" smooth="yes"/>
      <point x="464.159" y="573.295"/>
      <point x="504.485" y="545.427"/>
      <point x="529.657" y="476.962" type="curve" smooth="yes"/>
      <point x="533.716" y="465.924" type="line"/>
      <point x="541.086" y="465.924" type="line"/>
      <point x="657.207" y="535.409" type="line"/>
      <point x="658.902" y="535.409" type="line"/>
      <point x="654.507" y="542.423" type="line" smooth="yes"/>
      <point x="586.42" y="651.082"/>
      <point x="525.469" y="682.45" name="hr02"/>
      <point x="394.699" y="682.45" type="curve" smooth="yes"/>
      <point x="155.706" y="682.45"/>
      <point x="40.0489" y="522.99"/>
      <point x="40.0489" y="331.475" type="curve" smooth="yes"/>
      <point x="40.0489" y="124.271"/>
      <point x="152.544" y="-0.310943"/>
      <point x="357.583" y="-12.7213" type="curve"/>
      <point x="354.926" y="-12.7213" type="line"/>
      <point x="287.147" y="-61.4987" type="line"/>
      <point x="296.724" y="-68.2838" type="line" smooth="yes"/>
      <point x="313.312" y="-80.0357"/>
      <point x="326.423" y="-92.9042"/>
      <point x="326.423" y="-111.171" type="curve" smooth="yes"/>
      <point x="326.423" y="-140.682"/>
      <point x="308.138" y="-151.647"/>
      <point x="277.708" y="-162.529" type="curve" smooth="yes"/>
    </contour>
  </outline>
</glyph>
<glyph name="Egrave" format="2">
  <advance width="541"/>
  <unicode hex="00C8"/>
  <outline>
    <contour>
      <point x="106.493" y="853.288" type="line" name="hr02"/>
      <point x="104.993" y="853.288" type="line"/>
      <point x="317.364" y="695.497" type="line"/>
      <point x="321.269" y="695.497" type="line"/>
      <point x="385.879" y="706.838" type="line"/>
      <point x="388.851" y="706.838" type="line"/>
      <point x="230.707" y="890.786" type="line" name="hr01"/>
      <point x="225.33" y="890.786" type="line"/>
    </contour>
    <contour>
      <point x="80.0489" y="0" type="line" name="hr03"/>
      <point x="510.874" y="0" type="line"/>
      <point x="510.874" y="109.155" type="line"/>
      <point x="505.798" y="109.155" type="line"/>
      <point x="223.374" y="109.155" type="line"/>
      <point x="228.451" y="109.155" type="line"/>
      <point x="228.451" y="285.673" type="line"/>
      <point x="469.261" y="285.673" type="line"/>
      <point x="474.337" y="285.673" type="line"/>
      <point x="474.337" y="391.903" type="line" name="hr04"/>
      <point x="469.261" y="391.903" type="line"/>
      <point x="223.374" y="391.903" type="line"/>
      <point x="228.451" y="391.903" type="line"/>
      <point x="228.451" y="558.67" type="line" name="hr05"/>
      <point x="223.374" y="558.67" type="line"/>
      <point x="469.261" y="558.67" type="line"/>
      <point x="474.337" y="558.67" type="line"/>
      <point x="474.337" y="667.825" type="line"/>
      <point x="80.0489" y="667.825" type="line"/>
    </contour>
  </outline>
</glyph>
<glyph name="Eacute" format="2">
  <advance width="541"/>
  <unicode hex="00C9"/>
  <outline>
    <contour>
      <point x="192.179" y="708.792" type="line" name="hr02"/>
      <point x="195.146" y="708.792" type="line"/>
      <point x="259.833" y="697.437" type="line"/>
      <point x="263.774" y="697.437" type="line"/>
      <point x="476.013" y="858.058" type="line"/>
      <point x="474.178" y="858.058" type="line"/>
      <point x="352.162" y="888.48" type="line" name="hr01"/>
      <point x="347.089" y="888.48" type="line"/>
    </contour>
    <contour>
      <point x="80.0489" y="0" type="line" name="hr03"/>
      <point x="510.874" y="0" type="line"/>
      <point x="510.874" y="109.155" type="line"/>
      <point x="505.798" y="109.155" type="line"/>
      <point x="223.374" y="109.155" type="line"/>
      <point x="228.451" y="109.155" type="line"/>
      <point x="228.451" y="285.673" type="line"/>
      <point x="469.261" y="285.673" type="line"/>
      <point x="474.337" y="285.673" type="line"/>
      <point x="474.337" y="391.903" type="line" name="hr04"/>
      <point x="469.261" y="391.903" type="line"/>
      <point x="223.374" y="391.903" type="line"/>
      <point x="228.451" y="391.903" type="line"/>
      <point x="228.451" y="558.67" type="line" name="hr05"/>
      <point x="223.374" y="558.67" type="line"/>
      <point x="469.261" y="558.67" type="line"/>
      <point x="474.337" y="558.67" type="line"/>
      <point x="474.337" y="667.825" type="line"/>
      <point x="80.0489" y="667.825" type="line"/>
    </contour>
  </outline>
</glyph>
<glyph name="Ecircumflex" format="2">
  <advance width="541"/>
  <unicode hex="00CA"/>
  <outline>
    <contour>
      <point x="85.7796" y="714.341" type="line"/>
      <point x="88.4513" y="714.341" type="line"/>
      <point x="147.956" y="701.122" type="line"/>
      <point x="152.228" y="701.122" type="line"/>
      <point x="281.785" y="804.763" type="line"/>
      <point x="412.349" y="702.942" type="line"/>
      <point x="416.747" y="702.942" type="line"/>
      <point x="473.694" y="717.738" type="line"/>
      <point x="476.17" y="717.738" type="line"/>
      <point x="322.696" y="886.223" type="line" name="hr01"/>
      <point x="240.523" y="886.223" type="line"/>
    </contour>
    <contour>
      <point x="80.0489" y="0" type="line"/>
      <point x="510.874" y="0" type="line"/>
      <point x="510.874" y="109.155" type="line"/>
      <point x="505.798" y="109.155" type="line"/>
      <point x="223.374" y="109.155" type="line"/>
      <point x="228.451" y="109.155" type="line"/>
      <point x="228.451" y="285.673" type="line"/>
      <point x="469.261" y="285.673" type="line"/>
      <point x="474.337" y="285.673" type="line"/>
      <point x="474.337" y="391.903" type="line"/>
      <point x="469.261" y="391.903" type="line"/>
      <point x="223.374" y="391.903" type="line"/>
      <point x="228.451" y="391.903" type="line"/>
      <point x="228.451" y="558.67" type="line"/>
      <point x="223.374" y="558.67" type="line"/>
      <point x="469.261" y="558.67" type="line"/>
      <point x="474.337" y="558.67" type="line"/>
      <point x="474.337" y="667.825" type="line"/>
      <point x="80.0489" y="667.825" type="line"/>
    </contour>
  </outline>
</glyph>
<glyph name="Edieresis" format="2">
  <advance width="541"/>
  <unicode hex="00CB"/>
  <outline>
    <contour>
      <point x="384.336" y="722.469" type="curve" smooth="yes"/>
      <point x="431.459" y="722.469"/>
      <point x="461.5" y="756.674"/>
      <point x="461.5" y="791.671" type="curve" smooth="yes"/>
      <point x="461.5" y="826.253" name="hr01"/>
      <point x="432.847" y="860.874"/>
      <point x="385.324" y="860.874" type="curve" smooth="yes"/>
      <point x="338.743" y="860.874"/>
      <point x="309.148" y="827.175"/>
      <point x="309.148" y="792.646" type="curve" smooth="yes"/>
      <point x="309.148" y="758.484"/>
      <point x="335.514" y="722.469"/>
    </contour>
    <contour>
      <point x="95.8489" y="792.646" type="curve" smooth="yes"/>
      <point x="95.8489" y="758.042"/>
      <point x="123.59" y="722.469"/>
      <point x="172.025" y="722.469" type="curve" smooth="yes"/>
      <point x="219.548" y="722.469"/>
      <point x="248.201" y="757.09"/>
      <point x="248.201" y="791.671" type="curve" smooth="yes"/>
      <point x="248.201" y="825.4"/>
      <point x="220.336" y="860.874" name="hr02"/>
      <point x="173.012" y="860.874" type="curve" smooth="yes"/>
      <point x="126.325" y="860.874"/>
      <point x="95.8489" y="827.96"/>
    </contour>
    <contour>
      <point x="80.0489" y="0" type="line" name="hr03"/>
      <point x="510.874" y="0" type="line" name="hr04"/>
      <point x="510.874" y="109.155" type="line"/>
      <point x="505.798" y="109.155" type="line"/>
      <point x="223.374" y="109.155" type="line"/>
      <point x="228.451" y="109.155" type="line"/>
      <point x="228.451" y="285.673" type="line" name="hr05"/>
      <point x="469.261" y="285.673" type="line"/>
      <point x="474.337" y="285.673" type="line"/>
      <point x="474.337" y="391.903" type="line"/>
      <point x="469.261" y="391.903" type="line"/>
      <point x="223.374" y="391.903" type="line"/>
      <point x="228.451" y="391.903" type="line"/>
      <point x="228.451" y="558.67" type="line"/>
      <point x="223.374" y="558.67" type="line"/>
      <point x="469.261" y="558.67" type="line"/>
      <point x="474.337" y="558.67" type="line"/>
      <point x="474.337" y="667.825" type="line"/>
      <point x="80.0489" y="667.825" type="line"/>
    </contour>
  </outline>
</glyph>
<glyph name="Igrave" format="2">
  <advance width="323"/>
  <unicode hex="00CC"/>
  <outline>
    <contour>
      <point x="-15.1422" y="853.588" type="line"/>
      <point x="-16.8485" y="853.588" type="line"/>
      <point x="174.502" y="695.441" type="line"/>
      <point x="178.613" y="695.441" type="line"/>
      <point x="242.404" y="706.638" type="line"/>
      <point x="245.603" y="706.638" type="line"/>
      <point x="108.855" y="890.946" type="line"/>
      <point x="103.251" y="890.946" type="line"/>
    </contour>
    <contour>
      <point x="87.811" y="0" type="line"/>
      <point x="236.213" y="0" type="line"/>
      <point x="236.213" y="667.825" type="line"/>
      <point x="87.811" y="667.825" type="line"/>
    </contour>
  </outline>
</glyph>
<glyph name="Iacute" format="2">
  <advance width="317"/>
  <unicode hex="00CD"/>
  <outline>
    <contour>
      <point x="91.3495" y="708.587" type="line"/>
      <point x="94.5493" y="708.587" type="line"/>
      <point x="158.394" y="697.381" type="line"/>
      <point x="162.542" y="697.381" type="line"/>
      <point x="353.622" y="858.329" type="line"/>
      <point x="351.58" y="858.329" type="line"/>
      <point x="230.145" y="888.606" type="line"/>
      <point x="224.839" y="888.606" type="line"/>
    </contour>
    <contour>
      <point x="76.0489" y="0" type="line"/>
      <point x="224.451" y="0" type="line"/>
      <point x="224.451" y="667.825" type="line"/>
      <point x="76.0489" y="667.825" type="line"/>
    </contour>
  </outline>
</glyph>
<glyph name="Icircumflex" format="2">
  <advance width="313"/>
  <unicode hex="00CE"/>
  <outline>
    <contour>
      <point x="236" y="667" type="line"/>
      <point x="76" y="667" type="line"/>
      <point x="76" y="0" type="line"/>
      <point x="236" y="0" type="line"/>
    </contour>
    <contour>
      <point x="194" y="890" type="line"/>
      <point x="117" y="890" type="line"/>
      <point x="-14" y="725" type="line"/>
      <point x="33" y="713" type="line"/>
      <point x="156" y="819" type="line"/>
      <point x="281" y="717" type="line"/>
      <point x="326" y="731" type="line"/>
    </contour>
  </outline>
</glyph>
<glyph name="Idieresis" format="2">
  <advance width="307"/>
  <unicode hex="00CF"/>
  <outline>
    <contour>
      <point x="236.112" y="722.469" type="curve" smooth="yes"/>
      <point x="283.234" y="722.469"/>
      <point x="313.275" y="756.674"/>
      <point x="313.275" y="791.671" type="curve" smooth="yes" name="hr01"/>
      <point x="313.275" y="826.253"/>
      <point x="284.622" y="860.874" name="hr02"/>
      <point x="237.099" y="860.874" type="curve" smooth="yes"/>
      <point x="190.518" y="860.874"/>
      <point x="160.923" y="827.175"/>
      <point x="160.923" y="792.646" type="curve" smooth="yes" name="hr03"/>
      <point x="160.923" y="758.484"/>
      <point x="187.29" y="722.469" name="hr04"/>
    </contour>
    <contour>
      <point x="-6.95106" y="792.646" type="curve" smooth="yes"/>
      <point x="-6.95106" y="758.042" name="hr05"/>
      <point x="20.7902" y="722.469"/>
      <point x="69.2248" y="722.469" type="curve" smooth="yes" name="hr06"/>
      <point x="116.748" y="722.469"/>
      <point x="145.401" y="757.09"/>
      <point x="145.401" y="791.671" type="curve" smooth="yes"/>
      <point x="145.401" y="825.4" name="hr07"/>
      <point x="117.536" y="860.874"/>
      <point x="70.2123" y="860.874" type="curve" smooth="yes" name="hr08"/>
      <point x="23.5254" y="860.874"/>
      <point x="-6.95106" y="827.96"/>
    </contour>
    <contour>
      <point x="78.9611" y="0" type="line"/>
      <point x="227.363" y="0" type="line" name="hr09"/>
      <point x="227.363" y="667.825" type="line"/>
      <point x="78.9611" y="667.825" type="line"/>
    </contour>
  </outline>
</glyph>
<glyph name="Eth" format="2">
  <advance width="712"/>
  <unicode hex="00D0"/>
  <outline>
    <contour>
      <point x="76" y="379" type="line"/>
      <point x="6" y="379" type="line"/>
      <point x="6" y="316" type="line"/>
      <point x="76" y="316" type="line"/>
      <point x="76" y="0" type="line"/>
      <point x="342" y="0" type="line" smooth="yes"/>
      <point x="420" y="0"/>
      <point x="493" y="18"/>
      <point x="540" y="49" type="curve" smooth="yes"/>
      <point x="625" y="106"/>
      <point x="671" y="211"/>
      <point x="671" y="347" type="curve" smooth="yes"/>
      <point x="671" y="557"/>
      <point x="561" y="667"/>
      <point x="351" y="667" type="curve" smooth="yes"/>
      <point x="76" y="667" type="line"/>
    </contour>
    <contour>
      <point x="236" y="379" type="line"/>
      <point x="236" y="543" type="line"/>
      <point x="312" y="543" type="line" smooth="yes"/>
      <point x="374" y="543"/>
      <point x="403" y="537"/>
      <point x="431" y="519" type="curve" smooth="yes"/>
      <point x="476" y="490"/>
      <point x="502" y="426"/>
      <point x="502" y="344" type="curve" smooth="yes"/>
      <point x="502" y="266"/>
      <point x="479" y="198"/>
      <point x="440" y="163" type="curve" smooth="yes"/>
      <point x="411" y="136"/>
      <point x="372" y="124"/>
      <point x="314" y="124" type="curve" smooth="yes"/>
      <point x="236" y="124" type="line"/>
      <point x="236" y="316" type="line"/>
      <point x="372" y="316" type="line"/>
      <point x="372" y="379" type="line"/>
    </contour>
  </outline>
</glyph>
